{"glyphs":{"0":{"ha":484,"x_min":49,"x_max":543,"o":"m 460 614 q 429 617 448 620 q 390 608 410 614 q 344 582 370 601 q 293 538 318 564 q 241 472 269 513 q 189 382 214 432 q 123 202 141 283 q 113 76 104 121 q 150 14 122 31 q 182 8 162 5 q 225 21 203 12 q 275 54 248 31 q 328 108 302 77 q 384 185 355 139 q 437 285 412 231 q 479 386 463 339 q 501 466 495 432 q 507 527 507 500 q 499 571 507 553 q 483 598 492 588 q 460 614 473 609 m 102 382 q 167 494 129 441 q 252 587 205 547 q 352 644 298 627 q 456 646 406 661 q 509 611 488 637 q 536 542 529 585 q 527 431 543 498 q 471 279 511 363 q 302 35 391 110 q 136 -11 213 -39 q 69 72 89 7 q 58 220 49 137 q 102 382 68 304 z "},"1":{"ha":464,"x_min":19,"x_max":557,"o":"m 549 652 q 546 635 557 652 q 538 624 544 632 l 522 602 q 459 486 486 549 q 419 373 432 422 q 386 269 406 323 q 341 173 366 215 q 268 90 317 131 q 150 19 220 49 l 192 18 q 368 5 368 17 q 156 -8 362 -8 q 100 -9 135 -8 q 26 -4 36 -10 q 21 9 20 1 q 44 18 22 17 q 90 18 65 18 q 122 23 115 18 q 168 59 146 39 q 216 112 189 79 q 270 197 243 145 q 319 317 296 250 q 386 474 354 418 q 494 623 418 530 l 199 509 q 188 509 193 507 q 181 517 182 511 q 192 532 180 528 q 324 581 233 545 q 473 635 415 616 q 549 652 532 655 z "},"2":{"ha":637,"x_min":38,"x_max":670,"o":"m 97 109 q 76 79 81 96 q 75 45 70 61 q 102 19 80 29 q 160 12 124 9 q 236 28 196 14 q 299 55 277 43 q 336 79 321 68 q 290 109 315 95 q 232 133 265 122 q 162 139 198 144 q 97 109 126 134 m 591 631 q 655 530 641 596 q 649 386 670 465 q 566 219 629 308 q 409 54 504 130 q 441 33 426 41 q 475 19 456 24 q 513 16 493 14 q 554 28 533 18 q 505 -3 536 1 q 443 4 473 -7 q 386 37 412 16 q 272 -13 327 -1 q 145 -23 217 -26 q 85 -7 111 -22 q 48 29 59 8 q 43 75 38 50 q 71 121 48 100 q 146 160 103 151 q 229 158 189 168 q 302 131 269 147 q 359 96 335 115 q 485 217 431 151 q 565 343 538 283 q 601 458 591 404 q 602 553 611 513 q 570 612 593 593 q 495 646 536 640 q 416 641 454 652 q 343 604 378 629 q 282 549 307 580 q 242 483 256 517 q 230 418 227 448 q 280 342 236 353 q 375 363 325 331 q 453 448 425 396 q 459 461 456 454 q 465 472 463 468 q 469 479 467 475 q 473 484 471 483 q 477 485 475 486 q 487 444 491 477 q 471 389 484 411 q 422 333 454 358 q 356 298 391 309 q 287 293 320 288 q 231 328 254 297 q 202 412 207 359 q 221 511 198 462 q 286 596 243 561 q 378 652 328 631 q 486 669 429 673 q 591 631 543 664 z "},"3":{"ha":633,"x_min":68,"x_max":762,"o":"m 320 632 l 728 632 q 738 632 733 632 q 746 633 743 633 q 752 633 749 633 q 755 633 754 633 q 758 631 757 632 q 740 614 762 627 q 719 602 732 608 q 575 532 676 579 q 412 452 474 485 q 340 400 351 419 q 384 409 357 408 q 442 404 411 410 q 502 384 473 397 q 554 347 531 370 q 588 294 578 323 q 595 201 602 247 q 558 112 588 155 q 488 37 529 70 q 393 -17 447 4 q 284 -39 339 -37 q 129 -12 186 -43 q 70 89 71 20 q 102 185 68 137 q 199 264 135 233 q 220 273 206 268 q 251 280 233 277 q 272 275 269 283 q 270 272 273 274 q 261 269 268 271 q 247 264 255 267 q 228 256 239 262 q 207 244 217 251 q 104 110 110 180 q 141 21 98 47 q 256 2 184 -5 q 364 34 311 7 q 454 101 417 61 q 508 190 491 140 q 506 289 524 239 q 460 356 491 332 q 384 384 430 381 q 277 359 337 387 q 251 359 267 353 q 242 385 234 365 q 258 404 245 395 q 407 498 308 447 q 581 579 507 549 l 655 610 l 315 610 q 304 614 308 610 q 302 624 300 618 q 320 632 303 632 z "},"4":{"ha":594,"x_min":13,"x_max":678,"o":"m 624 650 q 635 644 631 650 q 637 631 640 638 q 587 477 625 600 q 523 287 549 355 q 609 302 568 291 q 646 315 625 306 q 649 317 647 316 q 652 319 650 318 l 654 319 q 655 320 654 320 q 656 321 656 321 q 658 321 657 321 l 659 322 q 660 323 659 323 l 663 323 l 669 322 q 678 309 678 319 q 669 296 678 300 q 668 296 669 296 q 659 290 663 292 q 616 275 637 280 q 512 258 574 263 q 476 177 494 213 q 457 137 469 164 q 437 94 445 111 q 415 55 429 77 q 387 19 401 33 q 353 -4 374 6 q 310 -14 333 -14 q 275 -2 275 -16 q 308 50 275 9 q 360 122 342 94 q 437 256 401 189 q 427 256 434 256 q 416 256 420 256 q 258 269 311 258 q 168 225 218 239 q 62 222 117 211 q 30 237 46 223 q 15 274 13 252 q 102 321 18 313 q 206 310 138 324 q 329 464 273 368 q 410 644 384 559 q 423 653 413 653 q 434 647 430 653 q 436 634 439 641 q 401 511 416 559 q 356 400 387 463 q 286 293 325 337 q 416 284 322 286 q 434 284 422 284 q 452 283 446 283 q 511 406 484 346 q 572 549 538 466 q 610 641 606 631 q 624 650 614 650 m 174 287 q 116 293 147 292 q 72 289 93 294 q 50 273 51 283 q 56 263 49 267 q 79 259 63 260 q 174 287 123 256 z "},"5":{"ha":600,"x_min":31,"x_max":684,"o":"m 342 652 q 405 655 370 660 q 460 645 439 651 q 506 629 480 638 q 542 616 532 619 q 619 613 591 606 q 663 626 648 620 q 681 627 678 633 q 681 616 684 622 q 673 608 678 611 q 665 604 670 607 q 642 595 659 602 q 608 586 625 589 q 565 583 590 583 q 515 589 539 583 q 374 618 413 616 q 267 579 297 624 q 248 570 258 567 q 240 578 243 572 q 241 589 238 583 q 282 627 252 608 q 342 652 312 646 m 337 600 q 359 593 347 600 q 368 580 372 587 l 269 371 q 363 384 332 382 q 454 375 413 386 q 524 339 496 364 q 560 276 552 315 q 551 183 568 237 q 458 56 525 109 q 310 -16 392 4 q 148 -26 229 -37 q 51 33 77 -17 q 54 122 31 73 q 117 196 75 165 q 177 225 143 216 q 216 218 212 235 q 207 210 216 212 q 177 200 199 208 q 133 174 156 193 q 79 111 95 144 q 76 47 62 75 q 155 1 95 9 q 263 12 205 -7 q 379 78 322 30 q 464 193 435 125 q 470 320 495 280 q 361 356 444 359 q 292 339 351 356 q 217 340 226 321 q 224 380 210 352 l 323 591 q 337 600 327 600 z "},"6":{"ha":503,"x_min":39,"x_max":581,"o":"m 569 667 q 580 653 581 666 q 565 638 578 641 q 551 634 559 637 q 513 618 542 631 q 457 590 485 606 q 389 545 429 574 q 314 482 350 516 q 240 398 279 448 q 171 292 201 349 q 129 189 142 239 q 117 97 115 138 q 144 29 119 56 q 214 -3 169 2 q 293 11 254 -7 q 363 57 333 28 q 418 125 394 87 q 454 201 442 163 q 463 272 465 238 q 441 324 460 305 q 376 336 412 348 q 304 290 339 325 q 256 216 270 254 q 226 139 233 150 q 197 141 214 121 q 193 226 174 169 q 239 303 208 269 q 306 355 270 338 q 381 375 342 372 q 450 358 420 378 q 487 312 476 342 q 494 245 498 281 q 476 169 490 209 q 433 93 461 130 q 372 28 406 57 q 293 -17 338 -1 q 202 -31 249 -33 q 98 2 137 -28 q 49 81 59 33 q 50 187 39 129 q 90 306 60 245 q 162 421 120 368 q 249 510 205 474 q 339 574 293 545 q 425 620 385 604 q 496 648 465 637 q 547 663 528 659 l 565 667 l 569 667 z "},"7":{"ha":513,"x_min":83,"x_max":649,"o":"m 208 632 q 617 632 208 632 q 634 633 620 635 q 636 617 649 632 q 452 390 520 481 q 287 154 385 298 q 255 105 275 137 q 224 57 235 73 q 197 21 213 41 q 165 -6 180 2 q 133 -15 149 -15 q 101 -12 113 -15 q 86 -3 90 -9 q 83 10 83 3 q 92 28 84 17 q 108 51 100 40 q 130 77 116 61 q 135 84 133 81 q 140 90 137 86 q 146 98 144 94 q 152 104 149 101 q 237 212 172 130 q 347 349 302 294 q 456 479 391 404 q 576 611 522 555 l 207 611 q 191 621 191 611 q 208 632 191 632 z "},"8":{"ha":583,"x_min":62,"x_max":673,"o":"m 253 581 q 339 642 282 618 q 479 665 396 666 q 621 616 569 665 q 646 487 673 568 q 611 429 637 462 q 550 369 585 397 q 478 330 515 342 q 409 333 440 317 q 416 354 396 340 q 438 368 422 358 q 547 454 512 412 q 577 498 565 475 q 584 591 604 547 q 510 643 564 635 q 440 642 473 648 q 382 622 406 636 q 343 594 359 608 q 316 565 327 580 q 281 487 288 524 q 289 419 275 450 q 325 362 302 389 q 376 308 348 334 q 430 258 405 282 q 472 205 455 234 q 490 149 489 177 q 478 81 490 113 q 442 22 467 49 q 374 -21 417 -5 q 273 -38 330 -37 q 200 -31 236 -38 q 132 -6 165 -23 q 81 41 100 10 q 64 114 62 73 q 103 223 66 170 q 195 303 140 276 q 254 315 229 320 q 255 298 271 312 q 249 294 252 296 q 174 216 205 265 q 140 102 142 166 q 144 61 140 79 q 162 25 149 43 q 203 -2 176 8 q 271 -13 231 -12 q 397 32 352 -16 q 434 158 442 80 q 408 227 429 193 q 363 284 387 260 q 306 341 340 307 q 253 399 273 374 q 220 492 220 444 q 253 581 221 541 z "},"9":{"ha":536,"x_min":47,"x_max":616,"o":"m 130 371 q 138 469 122 420 q 187 553 155 517 q 260 613 219 589 q 342 645 301 637 q 401 646 376 650 q 445 633 425 643 q 477 613 465 623 q 497 594 489 603 q 506 586 505 586 q 511 583 509 585 q 538 631 529 614 q 561 645 541 640 q 599 642 581 649 q 612 616 616 635 q 493 288 598 545 q 477 248 488 275 q 461 208 467 222 q 445 169 455 193 q 426 131 434 145 q 405 97 418 117 q 380 64 392 77 q 351 37 368 52 q 316 12 334 22 q 274 -7 298 2 q 225 -22 251 -16 q 133 -21 175 -33 q 70 15 92 -10 q 49 77 47 40 q 81 152 50 114 q 103 172 89 162 q 123 173 117 181 q 122 165 125 170 q 110 153 118 161 q 98 138 102 144 q 78 81 79 109 q 99 32 78 53 q 159 6 119 12 q 217 15 185 3 q 275 48 250 26 q 365 171 328 94 q 441 357 403 248 q 505 520 479 467 q 485 491 500 515 q 443 427 471 467 q 382 349 416 387 q 332 300 358 320 q 279 269 307 280 q 224 260 252 257 q 173 283 197 263 q 146 321 159 294 q 130 371 134 348 m 496 558 q 485 569 494 559 q 465 588 476 579 q 439 607 454 597 q 406 621 425 617 q 368 621 387 625 q 298 591 330 613 q 250 544 267 570 q 220 489 232 519 q 204 438 208 460 q 199 401 199 417 q 223 320 199 344 q 289 312 248 296 q 374 382 330 328 q 496 558 433 456 z "}," ":{"ha":250,"x_min":0,"x_max":0,"o":""},"!":{"ha":439,"x_min":94,"x_max":404,"o":"m 166 19 q 160 12 166 19 q 136 6 153 6 q 107 19 119 6 q 94 48 94 31 q 107 78 94 65 q 136 90 119 90 q 166 78 153 90 q 178 48 178 65 q 166 19 178 31 m 194 143 q 168 127 187 127 q 150 142 151 127 l 152 153 q 217 325 170 195 q 279 490 265 455 q 296 537 288 512 q 310 578 304 563 q 320 610 315 594 q 331 635 326 627 q 343 648 336 643 q 357 653 349 654 q 376 646 366 652 q 401 597 404 629 q 364 491 399 566 q 278 317 347 454 q 194 143 209 180 z "},"\"":{"ha":362,"x_min":153,"x_max":362,"o":"m 170 634 q 158 637 163 635 q 153 645 154 640 q 153 655 153 650 q 156 668 153 660 q 161 680 159 675 q 166 693 163 685 q 172 704 170 701 q 178 719 174 708 q 185 734 182 730 q 192 748 187 739 q 200 761 196 757 q 209 770 203 765 q 220 777 214 774 q 233 778 227 779 q 247 772 243 777 q 249 756 251 767 q 245 739 247 746 q 237 718 243 732 q 229 701 231 703 q 196 644 211 656 q 170 634 184 633 m 281 634 q 270 637 274 635 q 264 645 265 640 q 264 655 264 650 q 267 668 264 660 q 272 680 270 675 q 278 693 274 685 q 283 704 281 701 q 289 719 285 708 q 296 734 294 730 q 303 748 298 739 q 311 761 307 757 q 320 770 315 765 q 332 777 326 774 q 345 778 338 779 q 358 772 354 777 q 360 756 362 767 q 356 739 358 746 q 348 718 354 732 q 340 701 342 703 q 307 644 322 656 q 281 634 295 633 z "},"#":{"ha":822,"x_min":63,"x_max":669,"o":"m 97 86 q 72 102 80 85 q 78 125 64 118 l 87 127 q 138 132 101 129 q 195 138 174 136 q 227 225 219 203 q 139 221 146 222 q 113 237 122 220 q 118 260 104 253 l 127 262 q 181 267 142 264 q 244 272 220 270 q 249 285 246 278 q 254 299 251 292 q 258 310 257 307 q 278 365 268 335 q 294 411 288 394 q 306 443 299 427 q 319 465 313 458 q 335 472 326 472 q 355 465 342 472 q 380 424 380 451 q 343 311 380 392 q 328 279 341 307 q 475 289 441 288 q 482 310 481 307 q 502 365 492 335 q 517 411 512 394 q 530 443 523 427 q 543 465 536 458 q 558 472 550 472 q 579 465 566 472 q 604 424 604 451 q 568 311 604 393 q 564 303 567 309 q 559 294 561 297 q 602 296 575 296 q 653 289 636 296 q 669 262 669 281 l 669 260 q 650 235 667 241 q 596 229 633 229 q 565 230 587 229 q 529 231 543 231 q 492 158 511 197 q 561 161 558 161 q 611 154 595 161 q 628 129 628 147 l 628 125 q 609 100 627 106 q 553 94 591 94 q 517 95 543 94 q 478 96 492 96 l 461 96 q 397 -37 407 -13 q 372 -53 391 -53 q 353 -39 354 -52 q 355 -28 353 -34 q 403 94 382 40 q 320 93 377 94 q 235 92 262 92 q 174 -37 186 -6 q 149 -53 168 -52 q 130 -39 131 -53 q 132 -28 130 -34 q 150 20 134 -23 q 176 90 166 63 q 97 86 103 87 m 425 154 q 440 196 430 170 q 452 229 450 223 q 378 228 429 229 q 302 227 327 227 q 283 188 298 218 q 260 142 269 159 q 425 154 332 149 z "},"$":{"ha":673,"x_min":37,"x_max":633,"o":"m 227 -180 q 201 -199 222 -196 q 180 -186 182 -201 q 180 -176 178 -182 q 214 -52 189 -149 q 81 -13 125 -55 q 56 108 37 29 q 92 169 65 146 q 150 199 118 193 q 232 195 211 212 q 231 180 241 186 q 229 179 230 180 q 129 98 159 154 q 123 9 101 47 q 220 -28 147 -34 q 312 334 256 111 q 277 359 288 351 q 246 385 267 368 q 217 414 226 403 q 198 445 209 426 q 185 480 186 463 q 187 519 184 497 q 201 564 190 541 q 279 652 227 619 q 404 692 332 685 q 412 723 407 703 q 419 755 416 745 q 426 779 421 765 q 434 798 431 793 q 445 807 438 802 q 459 812 451 812 q 477 806 467 811 q 509 770 505 795 q 496 688 513 745 q 594 643 555 677 q 629 564 633 608 q 606 514 627 536 q 566 512 581 488 q 555 539 559 522 q 535 610 553 576 q 486 659 517 644 q 485 655 486 658 q 483 651 484 652 q 390 357 464 597 q 438 316 419 334 q 477 273 457 298 q 507 220 497 248 q 515 162 516 193 q 498 92 514 124 q 456 36 481 59 q 398 -4 431 14 q 333 -32 365 -22 q 267 -47 300 -41 q 227 -180 229 -174 m 370 289 q 325 143 359 254 q 276 -18 291 32 q 431 177 425 22 q 370 289 433 233 m 330 405 q 391 641 378 597 l 397 665 q 325 630 358 656 q 273 571 291 604 q 257 523 258 546 q 265 480 255 500 q 291 442 275 459 q 330 405 306 425 z "},"%":{"ha":886,"x_min":36,"x_max":826,"o":"m 608 144 q 567 127 595 151 q 513 62 538 103 q 491 -42 460 -22 q 585 38 518 -60 q 614 91 606 68 q 620 126 623 115 q 608 144 618 138 m 458 112 q 610 183 529 221 q 638 164 626 176 q 660 134 650 153 q 665 85 670 115 q 637 20 659 56 q 592 -39 614 -17 q 549 -69 570 -62 q 512 -76 529 -77 q 477 -70 496 -76 q 447 -48 460 -64 q 429 -7 435 -31 q 431 48 424 16 q 458 112 438 80 m 374 604 q 333 587 361 612 q 279 522 304 563 q 256 418 227 438 q 351 498 283 401 q 380 551 372 528 q 386 587 388 574 q 374 604 384 599 m 196 508 q 200 524 196 508 q 224 572 203 540 q 266 623 244 604 q 308 648 288 642 q 344 652 328 653 q 376 644 360 651 q 404 625 392 636 q 426 594 416 613 q 430 545 435 575 q 402 479 425 515 q 357 420 380 443 q 315 391 335 398 q 278 384 294 384 q 242 391 261 385 q 213 413 225 396 q 195 453 200 429 q 196 508 189 477 m 83 -72 q 53 -75 71 -83 q 43 -52 37 -66 q 50 -45 45 -48 q 355 250 84 -14 q 653 539 625 513 q 689 574 671 555 q 720 605 708 593 q 744 628 731 616 q 764 645 756 640 q 780 652 772 650 q 795 650 789 654 q 808 635 802 646 q 810 581 826 608 q 730 502 793 554 q 604 392 705 481 q 401 213 503 303 q 195 28 300 122 q 83 -72 90 -66 z "},"&":{"ha":1000,"x_min":191,"x_max":941,"o":"m 580 240 q 701 259 618 250 q 826 278 785 269 q 893 305 860 286 q 918 345 926 323 q 882 357 909 361 q 838 340 855 354 q 798 301 821 328 q 788 300 790 295 q 833 353 783 317 q 888 368 855 368 q 928 349 921 368 q 907 281 941 313 q 819 236 873 249 q 695 216 781 227 q 566 195 610 206 q 503 173 528 184 q 467 149 477 161 q 452 126 456 136 q 448 102 448 116 q 449 86 447 93 q 452 76 451 79 q 453 74 454 74 q 442 84 448 73 q 437 104 437 95 q 469 188 433 155 q 580 240 506 221 m 699 516 q 739 564 728 536 q 732 614 750 592 q 667 636 713 636 q 543 585 600 636 q 488 486 492 538 q 552 397 483 425 q 593 386 570 390 q 611 378 608 383 q 607 369 614 373 q 591 365 600 365 q 303 211 388 368 q 275 105 275 160 q 299 11 275 50 q 363 -32 323 -27 q 443 -24 397 -36 q 534 27 489 -12 q 624 150 579 66 q 649 186 644 185 q 654 183 652 187 q 646 153 656 180 q 613 86 637 126 q 560 18 590 45 q 465 -41 519 -20 q 359 -59 411 -62 q 263 -28 303 -56 q 207 41 224 0 q 193 132 191 83 q 218 227 195 182 q 302 318 245 279 q 425 371 360 356 q 546 377 490 386 q 495 396 522 381 q 448 437 469 412 q 424 497 427 463 q 442 573 421 532 q 467 607 452 590 q 508 641 483 623 q 570 666 532 658 q 650 671 607 675 q 725 646 696 667 q 759 600 753 626 q 752 547 765 574 q 707 500 739 519 q 675 486 694 491 q 645 480 657 480 q 631 486 633 480 q 631 489 631 488 q 632 491 631 490 q 635 491 633 491 q 640 491 637 491 q 646 492 643 491 q 655 494 650 492 q 667 498 661 496 q 681 505 673 500 q 699 516 690 510 z "},"'":{"ha":265,"x_min":153,"x_max":251,"o":"m 170 634 q 158 637 163 635 q 153 645 154 640 q 153 655 153 650 q 156 668 153 660 q 161 680 159 675 q 166 693 163 685 q 172 704 170 701 q 178 719 174 708 q 185 734 182 730 q 192 748 187 739 q 200 761 196 757 q 209 770 203 765 q 220 777 214 774 q 233 778 227 779 q 247 772 243 777 q 249 756 251 767 q 245 739 247 746 q 237 718 243 732 q 229 701 231 703 q 196 644 211 656 q 170 634 184 633 z "},"(":{"ha":455,"x_min":119,"x_max":530,"o":"m 475 635 q 277 404 372 591 q 227 274 245 343 q 203 145 208 204 q 201 40 199 86 q 210 -37 203 -6 q 262 -157 224 -104 q 306 -190 275 -175 q 313 -194 313 -193 q 303 -195 313 -195 q 238 -174 269 -195 q 165 -76 195 -144 q 127 76 136 -9 q 138 261 119 160 q 208 448 158 361 q 464 648 307 621 q 477 650 471 649 q 491 651 484 650 q 503 652 497 652 q 514 652 509 652 q 523 652 519 652 q 528 651 526 652 q 530 650 530 650 q 525 647 530 648 q 505 645 519 647 q 475 635 491 642 z "},")":{"ha":467,"x_min":-66,"x_max":372,"o":"m 236 591 q 227 603 231 597 q 218 612 222 609 q 210 619 214 616 q 204 624 207 622 q 200 627 201 625 q 197 630 198 629 q 197 632 197 631 q 216 624 199 635 q 253 595 233 612 q 366 290 372 490 q 326 95 362 191 q 237 -68 290 -1 q 124 -178 185 -136 q 12 -222 64 -220 q -56 -206 -26 -224 q -62 -199 -66 -200 q -55 -200 -60 -199 q -1 -195 -21 -204 q 108 -121 61 -168 q 156 -61 130 -99 q 209 30 182 -22 q 257 152 237 83 q 283 289 277 220 q 236 591 300 498 z "},"*":{"ha":398,"x_min":55,"x_max":349,"o":"m 72 418 q 60 421 66 415 q 55 437 55 428 q 64 450 56 446 q 117 473 78 456 q 166 496 155 491 q 158 506 163 499 q 151 515 153 513 q 103 575 106 569 q 106 612 87 601 q 137 611 123 621 q 178 563 152 601 q 199 534 182 557 q 201 541 199 535 q 204 548 203 546 q 214 574 209 560 q 221 597 218 589 q 228 615 224 606 q 233 629 231 624 q 240 636 236 633 q 248 639 243 640 q 258 635 252 638 q 273 608 274 625 q 252 548 272 590 q 244 530 247 537 q 270 542 256 536 q 291 553 283 549 q 308 561 300 557 q 322 566 317 565 q 332 567 328 568 q 340 564 337 567 q 344 553 342 560 q 335 524 349 536 q 277 496 321 512 q 259 489 273 494 q 236 481 245 484 q 306 384 292 402 q 305 371 310 378 q 292 360 300 363 q 277 364 284 358 q 208 448 248 401 q 165 349 190 408 q 154 342 163 342 q 137 346 144 341 q 134 359 130 351 q 170 456 143 382 q 72 418 80 421 z "},"+":{"ha":713,"x_min":191,"x_max":567,"o":"m 326 29 q 297 12 321 14 q 271 26 274 11 q 271 37 269 31 q 335 248 282 69 q 208 252 245 249 q 193 267 194 252 q 208 290 192 283 q 219 292 213 292 q 270 291 222 292 q 347 289 317 290 q 362 337 353 306 q 375 382 371 369 q 382 404 378 389 q 419 505 408 486 q 453 515 430 524 q 475 504 469 509 q 481 486 481 499 q 474 456 481 473 q 454 402 468 438 q 449 389 451 393 q 412 288 433 349 q 427 288 417 288 q 441 288 436 288 q 488 287 460 288 q 556 283 545 286 q 567 264 567 280 q 544 247 567 250 q 449 245 522 244 q 424 246 441 245 q 398 246 407 246 q 355 117 381 196 q 326 29 328 37 z "},",":{"ha":326,"x_min":109,"x_max":209,"o":"m 110 -58 q 120 -44 109 -55 q 144 -19 132 -34 q 159 7 157 -5 q 155 19 161 16 q 142 23 149 22 q 129 30 135 24 q 122 50 122 37 q 137 78 122 67 q 169 86 151 88 q 198 67 187 84 q 205 22 209 50 q 156 -52 199 -23 q 114 -63 127 -71 q 110 -58 111 -61 z "},"-":{"ha":633,"x_min":151,"x_max":498,"o":"m 168 127 q 153 142 154 127 q 168 165 152 159 q 179 167 173 167 q 374 163 293 164 q 420 162 392 163 q 487 158 476 161 q 498 139 498 155 q 476 122 498 125 q 380 121 453 119 q 168 127 216 123 z "},".":{"ha":288,"x_min":125,"x_max":209,"o":"m 197 9 q 191 3 197 9 q 167 -3 184 -3 q 137 9 149 -3 q 125 39 125 22 q 137 68 125 56 q 167 81 149 81 q 197 68 184 81 q 209 39 209 56 q 197 9 209 22 z "},"/":{"ha":543,"x_min":-58,"x_max":669,"o":"m -12 -180 q -41 -186 -24 -193 q -52 -166 -58 -181 q -47 -158 -51 -162 q 232 180 -15 -122 q 503 510 479 481 q 530 542 516 525 q 552 570 543 558 q 571 594 562 582 q 588 615 581 607 q 602 630 595 623 q 615 640 610 637 q 626 643 621 642 q 638 640 632 643 q 649 629 644 636 q 655 574 669 604 q 582 484 641 545 q 466 357 559 460 q 280 150 372 253 q 90 -64 189 47 q -12 -180 -9 -176 z "},":":{"ha":216,"x_min":12,"x_max":153,"o":"m 141 234 q 135 228 141 234 q 111 222 129 222 q 81 234 94 222 q 69 263 69 246 q 82 293 69 281 q 111 306 94 306 q 141 293 129 306 q 153 264 153 281 q 141 234 153 247 m 12 -58 q 23 -44 12 -55 q 47 -19 35 -34 q 62 7 60 -5 q 58 19 64 16 q 45 23 52 22 q 31 30 37 24 q 24 50 24 37 q 39 78 24 67 q 72 86 54 88 q 101 67 90 84 q 108 22 112 50 q 59 -51 102 -23 q 16 -63 30 -71 q 12 -58 13 -62 z "},";":{"ha":297,"x_min":0,"x_max":154,"o":"m 41 -12 q 12 0 24 -12 q 0 29 0 12 q 12 59 0 47 q 41 71 24 71 q 71 59 59 71 q 85 29 83 47 q 72 0 85 12 q 41 -12 60 -12 m 111 221 q 82 234 94 221 q 69 264 69 246 q 81 293 69 281 q 111 306 94 306 q 141 294 129 306 q 154 264 153 282 q 142 234 154 246 q 111 221 130 222 z "},"<":{"ha":711,"x_min":218,"x_max":589,"o":"m 230 271 q 220 287 222 277 q 222 300 218 296 q 241 315 224 311 q 346 343 271 322 q 471 374 421 363 q 573 389 520 384 q 587 374 586 390 q 573 346 589 356 l 564 342 q 257 288 396 304 q 366 229 279 274 q 400 211 377 223 q 437 192 424 199 q 467 176 450 185 q 492 158 483 166 q 492 130 505 147 q 462 116 479 112 q 442 122 452 118 q 418 135 432 127 q 398 148 405 144 q 375 164 391 152 q 356 177 358 176 q 230 271 304 213 z "},"=":{"ha":791,"x_min":136,"x_max":570,"o":"m 178 328 q 163 342 164 328 q 178 363 163 358 l 186 364 q 343 366 262 366 l 411 366 q 457 366 428 366 q 497 366 486 366 q 552 362 534 366 q 570 346 570 358 q 570 340 570 342 q 548 321 566 326 q 486 317 530 317 l 450 317 q 178 328 387 318 m 150 161 q 137 175 138 161 q 151 196 137 191 l 160 197 q 226 198 176 197 q 306 198 277 198 q 383 197 359 198 q 429 198 400 197 q 470 198 458 198 q 544 178 544 198 q 543 172 544 174 q 522 154 539 159 q 469 149 505 149 q 447 150 463 149 q 422 150 432 150 q 150 161 397 150 z "},">":{"ha":665,"x_min":142,"x_max":515,"o":"m 503 245 q 513 230 511 239 q 510 216 515 220 q 492 202 509 206 q 387 174 460 194 q 262 143 313 153 q 159 127 212 132 q 145 141 146 126 q 159 171 143 161 q 169 175 163 174 q 476 229 335 212 q 366 288 458 240 q 318 311 351 296 q 262 338 286 326 q 228 361 239 351 q 228 390 215 372 q 258 404 240 408 q 376 340 297 395 q 503 245 428 304 z "},"?":{"ha":564,"x_min":97,"x_max":514,"o":"m 176 155 q 151 136 165 136 q 146 157 138 136 q 181 200 154 179 q 242 241 208 221 q 313 286 277 262 q 383 346 349 309 q 435 427 416 382 q 430 529 458 484 q 353 581 401 574 q 304 577 326 585 q 271 556 283 569 q 250 531 259 544 q 232 512 240 518 q 216 511 224 505 q 200 570 184 531 q 263 633 215 608 q 368 652 311 657 q 485 576 455 644 q 469 416 514 508 q 414 339 448 375 q 345 278 380 302 q 275 232 309 253 q 214 192 241 212 q 176 155 186 172 m 139 -4 q 109 8 121 -4 q 97 37 97 20 q 110 67 97 55 q 139 80 122 80 q 169 68 156 80 q 181 38 181 56 q 169 8 181 20 q 139 -4 156 -4 z "},"@":{"ha":900,"x_min":56,"x_max":817,"o":"m 512 579 q 625 562 570 580 q 723 510 679 544 q 792 419 767 475 q 813 295 817 363 q 727 78 806 170 q 591 -9 665 7 q 475 29 517 -25 q 451 78 460 50 q 446 121 445 100 q 321 14 382 16 q 278 30 296 13 q 254 73 260 47 q 245 127 247 99 q 250 178 243 156 q 277 248 258 215 q 322 307 296 281 q 382 343 348 332 q 454 349 417 355 q 494 328 476 346 q 513 288 511 310 l 513 289 q 526 309 521 302 q 542 326 532 317 q 564 333 552 334 q 591 320 576 332 q 587 248 621 297 q 520 89 532 163 q 555 33 515 41 q 656 64 597 24 q 764 204 731 115 q 784 315 784 257 q 765 410 784 368 q 717 477 746 452 q 650 521 688 503 q 576 546 612 538 q 507 553 541 553 q 307 494 399 553 q 162 340 214 435 q 111 142 110 245 q 173 -60 113 21 q 325 -161 234 -140 q 446 -170 390 -176 q 538 -150 502 -164 q 601 -122 575 -135 q 632 -111 627 -110 q 622 -125 636 -112 q 582 -155 608 -138 q 516 -187 555 -172 q 428 -208 476 -202 q 322 -203 380 -213 q 126 -90 197 -179 q 56 142 56 -1 q 76 263 56 201 q 138 381 97 326 q 233 481 178 437 q 360 552 287 525 q 512 579 433 578 m 473 314 q 419 304 450 326 q 356 232 388 282 q 325 155 334 197 q 327 80 315 114 q 394 98 345 42 q 419 130 406 111 q 465 200 446 169 q 496 260 477 226 q 473 314 496 302 z "},"A":{"ha":1116,"x_min":-1,"x_max":1415,"o":"m 1411 886 q 1415 873 1414 878 q 1410 862 1415 867 q 1398 854 1404 857 q 1382 848 1392 851 q 1364 843 1372 845 q 1347 839 1356 841 q 1331 835 1337 836 q 1187 644 1260 772 q 1057 370 1114 515 q 1167 379 1120 372 q 1238 393 1214 386 q 1276 410 1261 401 q 1295 425 1291 420 q 1299 433 1298 429 q 1048 345 1307 352 q 1036 313 1044 335 q 1023 281 1027 292 q 997 202 1009 242 q 973 115 984 163 q 956 27 962 68 q 952 -49 950 -13 q 966 -106 954 -85 q 1029 -145 987 -140 q 1111 -126 1072 -150 q 1142 -99 1126 -117 q 1169 -68 1158 -81 q 1184 -56 1179 -56 q 1185 -72 1190 -59 q 1170 -101 1181 -84 q 1147 -127 1158 -118 q 960 -154 1064 -199 q 896 -86 915 -135 q 881 33 876 -37 q 905 178 886 103 q 954 339 923 254 q 956 341 955 340 q 956 344 956 343 q 786 347 889 344 q 719 349 751 349 q 717 346 718 348 q 715 343 716 344 q 659 241 679 277 q 603 148 639 206 q 540 57 566 90 q 474 -16 513 25 q 397 -79 434 -57 q 313 -118 361 -101 q 215 -138 266 -135 q 84 -109 142 -142 q 4 -7 26 -75 q 0 29 0 7 q 6 83 -1 51 q 27 146 13 115 q 72 212 42 178 q 143 272 102 246 q 192 300 172 290 q 256 327 213 311 q 345 352 298 343 q 467 368 392 361 q 631 376 541 375 q 1153 829 862 756 q 1036 825 1097 823 q 927 833 975 827 q 811 840 880 838 q 671 836 743 842 q 539 812 601 830 q 427 764 477 794 q 347 688 376 734 q 316 585 317 642 q 340 512 315 540 q 400 479 364 484 q 477 485 436 473 q 549 524 518 497 q 591 571 574 547 q 618 627 608 596 q 631 680 627 659 q 640 739 635 702 q 654 738 642 762 q 674 659 671 703 q 674 646 675 652 q 581 498 669 560 q 535 475 564 486 q 473 459 507 465 q 407 457 440 454 q 346 473 373 461 q 301 514 318 486 q 283 584 283 543 q 315 700 283 649 q 401 783 346 751 q 525 834 457 815 q 674 859 593 852 q 822 862 744 865 q 962 855 900 860 q 1097 851 1025 850 q 1227 864 1169 852 q 1237 868 1231 865 q 1259 876 1242 870 q 1292 887 1276 882 q 1329 896 1308 892 q 1364 902 1349 901 q 1393 899 1380 903 q 1411 886 1407 895 m 615 349 q 350 325 461 350 q 174 258 239 299 q 103 199 132 233 q 59 136 73 166 q 39 76 45 106 q 34 25 33 45 q 39 -7 35 5 q 105 -86 57 -60 q 217 -108 153 -112 q 277 -92 247 -106 q 332 -59 307 -78 q 386 -6 357 -39 q 436 55 415 27 q 485 127 457 83 q 530 201 513 172 q 574 278 547 231 q 615 349 602 326 m 965 368 q 1104 642 1021 514 q 1267 830 1187 770 q 1111 781 1174 812 q 733 375 908 681 q 800 372 778 374 q 965 368 894 368 z "},"B":{"ha":1066,"x_min":-9,"x_max":1053,"o":"m 485 553 q 495 514 488 534 q 509 483 503 495 q 521 460 516 471 q 525 442 526 449 q 515 431 524 435 q 502 428 510 428 q 485 431 494 428 q 467 440 475 433 q 450 458 458 447 q 436 486 441 469 q 429 525 431 503 q 429 576 427 547 q 473 695 436 642 q 566 779 511 748 q 690 824 622 810 q 827 829 758 837 q 911 807 872 824 q 955 829 937 821 q 1053 857 1050 871 q 1049 849 1053 852 q 1022 835 1044 846 q 975 810 999 825 q 943 791 960 802 q 1016 721 989 762 q 1046 631 1044 680 q 1021 532 1049 582 q 849 421 975 452 q 941 355 907 402 q 979 248 975 308 q 965 121 983 189 q 903 19 948 64 q 797 -53 858 -26 q 666 -94 736 -80 q 523 -104 595 -107 q 387 -83 451 -101 q 223 -138 314 -132 q 92 -108 150 -142 q 13 -6 35 -74 q 7 138 -9 67 q 24 184 14 165 q 46 214 35 204 q 68 228 57 224 q 88 232 79 233 q 102 226 97 231 q 114 207 111 216 q 109 184 116 197 q 96 163 102 171 q 71 135 90 155 q 67 130 68 132 q 47 -7 20 77 q 114 -86 65 -60 q 225 -106 162 -113 q 277 -94 252 -104 q 323 -71 302 -84 q 363 -36 343 -58 q 399 6 384 -14 q 431 56 414 26 q 459 111 448 87 q 486 171 471 134 q 510 231 500 207 q 533 293 519 255 q 556 353 547 332 q 868 781 674 656 q 813 800 840 795 q 753 804 785 804 q 686 795 720 804 q 620 774 652 787 q 561 739 588 761 q 514 691 533 717 q 486 629 494 665 q 485 553 478 593 m 715 430 q 722 431 718 431 q 728 431 726 431 q 755 433 742 433 q 955 574 901 454 q 962 678 977 628 q 901 762 946 728 q 787 637 837 712 q 686 430 738 562 q 695 430 690 430 q 706 430 700 430 q 715 430 712 430 m 794 411 q 678 408 732 403 q 668 381 677 405 q 654 344 659 357 q 611 232 632 281 q 561 124 591 182 q 495 20 532 67 q 416 -62 458 -28 q 468 -64 440 -64 q 529 -62 495 -64 q 597 -52 563 -59 q 667 -35 631 -45 q 735 -6 702 -24 q 797 34 768 11 q 848 88 825 56 q 885 157 871 119 q 901 231 898 191 q 897 309 904 271 q 863 376 890 347 q 794 411 837 404 z "},"C":{"ha":583,"x_min":0,"x_max":735,"o":"m 75 842 q 94 747 60 795 q 192 656 128 699 q 372 782 277 740 q 316 840 349 812 q 263 868 298 854 q 190 889 229 882 q 119 885 152 897 q 75 842 85 874 m 172 635 q 54 769 83 696 q 75 892 24 843 q 159 917 105 920 q 264 896 213 913 q 351 855 315 878 q 420 801 392 829 q 509 820 461 814 q 597 821 559 825 q 662 805 635 817 q 705 777 688 793 q 728 741 721 760 q 735 703 735 722 q 727 667 734 684 q 666 595 709 624 q 566 556 623 567 q 444 549 509 545 q 314 570 378 552 q 258 589 281 579 q 147 398 195 509 q 113 289 126 349 q 100 166 100 229 q 116 51 100 102 q 173 -32 131 -1 q 279 -58 214 -62 q 381 -32 333 -55 q 469 33 429 -8 q 540 120 509 74 q 604 228 572 166 q 623 244 612 244 q 626 243 625 244 q 627 241 627 243 q 627 238 627 239 q 626 234 627 236 q 624 230 625 231 q 622 225 623 228 q 620 221 621 222 q 281 -82 477 -66 q 126 -53 191 -90 q 31 51 62 -17 q 1 214 0 119 q 37 417 1 309 q 172 635 74 529 m 463 750 q 484 682 488 709 q 452 652 479 654 q 439 654 445 651 q 430 664 434 656 q 423 677 426 671 q 415 698 420 684 q 406 722 410 711 q 275 610 336 681 q 334 589 308 596 q 434 572 379 575 q 542 575 489 568 q 638 607 595 583 q 699 671 682 632 q 697 742 717 712 q 632 780 678 772 q 520 770 585 787 q 463 750 491 762 z "},"D":{"ha":1148,"x_min":-9,"x_max":1109,"o":"m 454 509 q 465 470 457 490 q 479 438 472 450 q 491 414 486 425 q 495 396 496 403 q 485 385 494 389 q 471 382 479 382 q 454 385 463 382 q 435 394 444 387 q 418 413 426 401 q 404 441 410 425 q 396 481 398 458 q 397 533 394 503 q 442 655 404 601 q 537 740 480 709 q 663 785 594 771 q 804 792 732 799 q 866 781 839 789 q 955 829 905 806 q 1053 857 1050 871 q 1049 849 1053 852 q 1022 835 1044 846 q 975 810 999 825 q 907 766 939 790 q 1008 699 964 741 q 1080 593 1052 656 q 1109 451 1109 530 q 1080 274 1109 372 q 1009 127 1053 193 q 912 19 964 62 q 801 -54 860 -24 q 684 -96 742 -83 q 573 -109 627 -108 q 477 -100 520 -111 q 406 -69 434 -89 q 223 -138 322 -132 q 92 -108 150 -142 q 13 -6 35 -74 q 7 138 -9 67 q 24 184 14 165 q 46 214 35 204 q 68 228 57 224 q 88 232 79 233 q 102 226 97 231 q 114 207 111 216 q 109 184 116 197 q 96 163 102 171 q 71 135 90 155 q 67 130 68 132 q 47 -7 20 77 q 114 -86 65 -60 q 225 -106 162 -113 q 277 -94 252 -104 q 323 -71 302 -84 q 363 -36 343 -58 q 399 6 384 -14 q 431 56 414 26 q 459 111 448 87 q 486 171 471 134 q 510 231 500 207 q 533 293 519 255 q 556 353 547 332 q 828 753 662 625 q 789 762 810 758 q 736 765 764 766 q 677 759 707 764 q 617 743 647 753 q 560 718 587 733 q 511 682 533 703 q 474 635 489 661 q 453 578 459 610 q 454 509 448 547 m 429 -51 q 529 -73 475 -71 q 638 -60 583 -75 q 747 -12 693 -45 q 846 71 800 22 q 927 192 891 120 q 983 348 964 263 q 998 511 1002 436 q 962 645 995 585 q 871 736 930 705 q 761 591 810 680 q 654 344 711 501 q 613 236 633 284 q 565 132 593 187 q 503 31 537 77 q 429 -51 468 -16 z "},"E":{"ha":587,"x_min":0,"x_max":745,"o":"m 184 815 q 179 800 181 808 q 178 785 178 793 q 211 711 178 748 q 302 646 245 673 q 328 726 306 686 q 406 808 353 770 q 372 833 393 821 q 323 852 350 845 q 270 859 296 859 q 184 815 205 859 m 435 826 q 576 863 502 863 q 595 862 586 863 q 706 825 667 857 q 744 749 744 793 q 736 709 744 729 q 711 671 728 690 q 672 639 695 653 q 629 617 653 627 q 562 597 606 607 q 473 587 518 587 q 380 597 427 587 l 380 597 q 418 527 384 556 q 519 484 452 497 q 544 474 540 481 q 538 462 547 467 q 518 456 530 456 q 507 456 513 456 q 133 252 245 456 q 119 224 125 239 q 109 195 113 210 q 101 166 104 180 q 97 137 98 151 q 96 109 96 123 q 128 -13 96 38 q 213 -70 160 -63 q 245 -72 229 -72 q 447 5 362 -72 q 490 50 469 26 q 527 97 511 75 q 557 143 543 120 q 582 185 572 166 q 602 218 593 203 q 617 241 610 233 q 628 250 624 250 q 633 245 631 250 l 633 245 q 612 195 633 237 q 551 95 591 153 q 472 0 511 36 q 353 -78 419 -49 q 222 -106 287 -106 q 208 -106 215 -106 q 31 -7 84 -99 q 0 115 0 46 q 39 271 0 195 q 131 380 70 332 q 264 452 193 428 q 406 477 336 477 q 432 476 419 477 q 457 473 445 475 q 357 521 406 481 q 302 620 309 562 q 190 695 228 650 q 153 786 153 741 q 170 840 153 817 q 211 870 184 860 q 271 880 237 880 q 359 865 314 880 q 435 826 404 850 m 488 774 q 511 736 504 754 q 519 704 519 718 q 509 675 519 686 q 491 665 499 665 q 482 668 486 665 q 473 680 477 671 q 465 695 468 688 q 455 717 461 703 q 446 740 449 732 q 380 618 385 682 q 385 617 382 618 q 390 615 389 616 q 475 605 431 605 q 541 610 509 605 q 604 628 572 616 q 661 656 635 640 q 678 669 670 663 q 692 684 686 676 q 704 699 699 691 q 712 715 709 707 q 717 732 715 724 q 719 748 719 740 q 694 797 719 778 q 619 816 669 816 q 488 774 551 816 z "},"F":{"ha":822,"x_min":-11,"x_max":1269,"o":"m 1194 796 q 1215 804 1203 799 q 1233 811 1226 808 q 1249 817 1240 814 q 1260 819 1257 820 q 1266 817 1263 819 q 1266 798 1269 810 q 1248 771 1263 787 q 1207 746 1233 756 q 915 715 1086 698 q 896 706 914 713 q 846 678 877 699 q 788 623 815 657 q 713 498 742 565 q 650 328 684 431 l 650 327 q 772 351 718 342 q 779 364 772 351 q 795 391 785 377 q 812 408 804 406 q 832 411 824 412 q 845 404 840 411 q 840 380 850 397 q 781 284 797 298 q 771 279 775 280 q 760 283 764 279 q 758 297 757 288 q 761 313 759 306 q 766 329 763 320 q 642 304 699 317 q 610 214 626 255 q 571 125 594 173 q 524 40 548 78 q 468 -35 500 2 q 400 -97 435 -72 q 321 -140 366 -123 q 228 -161 277 -157 q 133 -147 182 -165 q 50 -90 83 -128 q 79 -220 37 -168 q 80 -221 80 -220 q 83 -223 81 -221 q 86 -227 85 -225 q 90 -232 88 -229 q 94 -238 92 -235 q 97 -243 96 -240 q 99 -249 98 -246 q 99 -253 100 -251 q 98 -256 99 -255 q 85 -255 94 -260 q 72 -243 77 -250 l 66 -236 q 30 -64 7 -164 q 15 -34 21 -50 q 7 111 -11 29 q 23 157 14 137 q 44 187 33 177 q 66 202 55 197 q 86 206 77 207 q 100 200 95 205 q 112 180 110 190 q 106 156 115 170 q 92 134 98 142 q 66 103 86 125 q 44 -20 22 51 q 304 218 103 121 q 538 300 395 262 q 545 318 541 307 q 551 335 550 330 q 639 512 584 424 q 749 650 694 600 q 818 695 780 678 q 886 718 855 713 q 808 728 821 726 q 399 729 554 776 q 203 545 243 682 q 197 496 195 522 q 209 446 200 469 q 241 405 218 422 q 297 380 264 387 q 457 466 383 366 q 496 530 479 496 q 524 589 514 564 q 541 637 534 615 q 553 670 548 659 q 561 680 557 682 q 576 661 570 677 q 582 618 582 645 q 577 562 583 592 q 554 497 572 532 q 510 433 537 463 q 410 363 466 384 q 296 352 355 343 q 193 421 228 362 q 178 553 158 481 q 218 643 191 604 q 295 713 245 682 q 412 760 344 744 q 582 775 481 775 q 810 755 683 774 q 1194 796 989 726 m 58 -52 q 131 -114 83 -94 q 229 -131 179 -135 q 317 -100 276 -127 q 384 -43 357 -73 q 440 50 410 -14 q 484 148 471 114 q 524 260 496 182 q 530 275 528 271 q 317 199 397 238 q 66 -29 121 104 q 62 -42 64 -33 q 58 -52 59 -51 z "},"G":{"ha":817,"x_min":-11,"x_max":972,"o":"m 725 784 q 602 755 663 783 q 555 731 572 742 q 604 677 589 705 q 614 631 619 650 q 589 606 610 612 q 564 611 574 602 q 537 647 555 620 q 503 694 520 675 q 367 530 422 631 q 479 511 423 515 q 588 517 530 508 q 700 546 646 526 q 793 602 754 566 q 842 683 833 638 q 818 758 851 731 q 725 784 785 785 m 278 793 q 189 775 224 793 q 149 716 153 757 q 180 632 144 671 q 276 564 215 593 q 455 738 343 672 q 401 770 432 755 q 278 793 355 793 m 281 819 q 435 795 370 819 q 504 764 467 783 q 602 798 555 787 q 735 812 682 816 q 819 788 789 809 q 861 739 850 766 q 867 681 872 711 q 794 570 855 616 q 647 503 734 523 q 463 488 560 482 q 353 505 408 490 q 324 427 334 463 q 313 276 300 338 q 359 181 326 214 q 435 152 393 149 q 676 322 554 161 q 804 491 739 431 q 874 537 835 519 q 940 560 913 555 q 970 560 966 565 q 967 554 972 557 q 949 546 962 551 q 921 533 936 541 q 884 506 905 524 q 844 465 863 488 q 768 340 798 407 q 706 170 739 273 q 654 38 684 103 q 578 -92 623 -26 q 482 -206 533 -157 q 364 -287 431 -256 q 228 -320 298 -319 q 147 -309 187 -321 q 70 -267 107 -297 q 15 -192 33 -236 q 7 -48 -11 -129 q 23 -2 14 -22 q 44 28 33 18 q 66 43 55 38 q 86 47 77 48 q 100 41 95 46 q 112 22 109 31 q 108 1 114 12 q 95 -21 102 -11 q 72 -49 87 -32 q 66 -55 68 -53 q 50 -192 18 -112 q 121 -268 70 -242 q 229 -289 173 -293 q 332 -253 282 -285 q 420 -177 382 -222 q 495 -68 458 -132 q 557 53 532 -4 q 607 177 582 109 q 627 225 621 213 q 437 129 529 136 q 355 138 394 125 q 283 180 316 151 q 232 264 250 210 q 217 391 214 319 q 260 539 220 465 q 136 647 172 583 q 137 768 100 710 q 281 819 172 818 z "},"H":{"ha":1118,"x_min":-1,"x_max":1430,"o":"m 853 796 q 907 826 883 817 q 945 834 931 836 q 964 825 959 833 q 962 804 970 813 q 931 787 954 794 q 875 777 909 780 q 819 719 844 750 q 778 660 794 688 q 743 590 761 633 q 715 518 725 547 q 687 435 705 490 q 657 347 669 380 q 800 343 723 347 q 966 342 892 338 q 1055 533 1007 448 q 1149 675 1103 618 q 1246 771 1196 732 q 1341 830 1297 811 q 1430 856 1385 850 q 1308 771 1365 825 q 1206 645 1251 717 q 1128 505 1160 572 q 1061 353 1095 437 q 1272 453 1226 378 q 1274 454 1274 457 q 1275 449 1274 453 q 1223 377 1280 410 q 1053 330 1165 345 q 1023 253 1042 303 q 997 175 1009 214 q 973 87 984 135 q 956 0 962 40 q 952 -77 950 -41 q 966 -134 954 -113 q 1029 -173 987 -168 q 1111 -154 1072 -178 q 1142 -127 1126 -145 q 1169 -96 1158 -109 q 1184 -84 1179 -83 q 1185 -99 1190 -87 q 1170 -129 1181 -112 q 1147 -155 1158 -146 q 960 -182 1064 -227 q 896 -114 915 -163 q 881 5 876 -64 q 905 151 886 75 q 954 311 923 226 q 956 316 955 313 q 958 321 957 319 q 786 319 877 317 q 648 322 719 322 q 648 319 648 321 q 646 315 647 317 q 606 209 623 253 q 563 112 588 165 q 514 23 538 59 q 458 -50 490 -13 q 390 -110 425 -87 q 311 -148 355 -132 q 215 -166 266 -163 q 84 -136 142 -170 q 4 -35 26 -102 q 0 1 0 -21 q 6 55 -1 23 q 27 118 13 87 q 72 184 42 150 q 143 244 102 218 q 202 277 176 264 q 276 306 228 290 q 395 333 325 323 q 555 346 465 342 q 685 626 632 541 q 810 765 738 710 q 724 749 771 752 q 595 750 676 747 q 477 753 515 753 q 300 723 380 752 q 172 635 221 693 q 122 501 123 578 q 146 429 121 456 q 206 395 170 401 q 283 402 242 390 q 355 441 324 414 q 397 488 380 463 q 424 544 414 513 q 436 596 433 576 q 445 656 440 617 q 460 654 448 679 q 479 576 477 620 q 479 563 480 569 q 387 414 474 476 q 330 388 366 399 q 252 374 294 376 q 174 380 211 372 q 113 420 138 389 q 89 500 89 451 q 140 651 89 588 q 279 744 192 713 q 479 776 366 774 q 577 773 484 776 q 733 776 670 771 q 852 795 797 781 l 853 796 m 546 320 q 318 292 400 314 q 174 231 235 269 q 103 172 132 205 q 59 108 73 138 q 39 48 45 78 q 34 -2 33 18 q 39 -35 35 -22 q 105 -115 57 -88 q 217 -136 154 -142 q 269 -123 244 -133 q 314 -100 294 -113 q 354 -66 334 -87 q 389 -25 374 -44 q 421 25 404 -5 q 449 79 438 56 q 476 138 460 102 q 500 198 491 175 q 523 260 509 221 q 546 320 538 300 z "},"I":{"ha":718,"x_min":-9,"x_max":1098,"o":"m 1021 848 q 1029 851 1022 848 q 1041 856 1036 854 q 1056 859 1047 857 q 1070 861 1064 861 q 1083 860 1077 861 q 1093 855 1090 859 q 1097 843 1097 850 q 1093 831 1098 836 q 1078 825 1087 827 q 1059 823 1068 823 q 1040 822 1050 822 q 1025 821 1029 821 q 1004 817 1010 818 q 947 787 958 794 q 838 702 881 749 q 757 579 794 654 q 671 369 720 504 q 809 458 764 371 q 840 499 826 490 q 871 507 854 509 q 884 502 878 507 q 892 489 890 497 q 893 470 895 480 q 882 445 891 459 q 857 415 872 430 q 663 347 785 348 q 654 321 656 326 q 620 229 636 270 q 579 137 604 188 q 530 48 555 87 q 472 -30 505 9 q 402 -96 438 -69 q 320 -140 366 -122 q 223 -161 274 -157 q 93 -131 151 -165 q 13 -28 35 -97 q 7 115 -9 45 q 24 161 14 142 q 46 191 35 181 q 68 205 57 201 q 88 209 79 210 q 102 203 97 208 q 112 190 109 197 q 113 175 115 183 q 110 161 111 166 q 99 144 108 156 q 85 127 90 133 q 67 107 81 122 q 47 -30 20 54 q 114 -109 65 -83 q 225 -130 162 -136 q 277 -117 252 -127 q 323 -94 302 -107 q 363 -59 343 -81 q 399 -17 384 -37 q 431 33 414 3 q 459 87 448 64 q 486 148 471 111 q 510 208 500 184 q 533 270 519 232 q 556 330 547 309 q 562 345 558 335 q 567 359 565 355 q 489 412 519 375 q 449 492 458 448 q 447 581 440 535 q 475 661 454 626 q 567 754 511 719 q 685 804 623 790 q 806 823 748 817 q 926 833 865 828 q 1021 848 987 838 m 579 388 q 669 564 623 488 q 762 687 716 640 q 846 760 808 733 q 927 806 884 786 q 930 807 928 806 q 933 808 932 808 q 740 779 791 792 q 562 670 625 749 q 528 618 543 647 q 509 484 492 550 q 579 388 525 418 z "},"J":{"ha":868,"x_min":-5,"x_max":1132,"o":"m 346 131 q 218 106 338 93 q 94 26 157 113 q 39 -96 50 -33 q 50 -206 29 -159 q 120 -280 71 -253 q 237 -301 170 -308 q 312 -277 275 -297 q 378 -228 349 -257 q 437 -156 408 -199 q 488 -72 467 -113 q 533 24 510 -31 q 572 121 557 79 q 606 216 587 163 q 553 224 576 218 q 454 275 496 237 q 390 366 411 313 q 376 486 369 418 q 422 618 383 553 q 515 722 458 678 q 631 788 572 766 q 760 826 690 810 q 885 848 829 842 q 998 862 942 854 q 1082 880 1054 871 q 1106 883 1091 884 q 1127 873 1121 881 q 1124 863 1132 866 q 1112 856 1121 861 q 1086 843 1103 852 q 1050 821 1069 833 q 929 722 979 776 q 837 577 880 667 q 882 522 867 557 q 892 443 897 487 q 834 305 884 361 q 711 228 785 249 q 236 -334 526 -319 q 99 -303 157 -338 q 18 -214 41 -269 q 2 -93 -5 -159 q 52 32 10 -26 q 121 109 87 81 q 208 157 155 137 q 289 174 258 176 q 335 161 321 173 q 346 131 349 149 m 1051 848 q 867 819 880 821 q 583 709 680 783 q 476 576 513 655 q 441 451 445 510 q 455 352 437 392 q 501 284 473 311 q 562 247 529 258 q 612 237 583 239 q 650 349 641 324 q 755 580 695 479 q 683 558 714 578 q 649 527 661 544 q 633 500 636 511 q 621 479 630 489 q 595 465 612 469 q 570 481 576 461 q 589 540 562 509 q 658 584 612 568 q 768 601 716 605 q 837 695 801 654 q 909 764 872 736 q 970 806 945 791 q 1031 839 996 821 q 1041 844 1034 840 q 1051 848 1048 847 m 721 255 q 820 329 781 279 q 865 450 860 379 q 828 557 871 523 q 749 342 788 469 q 721 255 724 262 z "},"K":{"ha":1002,"x_min":-9,"x_max":1519,"o":"m 861 796 q 916 826 891 817 q 954 834 940 836 q 972 825 968 833 q 970 804 979 813 q 940 787 962 794 q 884 777 918 780 q 817 707 845 744 q 766 621 788 669 q 730 535 744 572 q 693 428 716 497 q 654 315 671 359 q 614 209 631 253 q 571 112 596 165 q 522 23 546 59 q 466 -50 498 -13 q 398 -110 433 -87 q 319 -148 363 -132 q 223 -166 274 -163 q 92 -136 150 -170 q 13 -35 35 -102 q 7 109 -9 39 q 24 155 14 136 q 46 185 35 175 q 68 199 57 195 q 88 203 79 204 q 102 197 97 202 q 114 178 111 187 q 109 156 116 169 q 96 135 102 142 q 71 106 90 127 q 67 102 68 103 q 47 -35 20 48 q 114 -115 65 -88 q 225 -136 162 -142 q 277 -123 252 -133 q 323 -100 302 -113 q 363 -65 343 -87 q 399 -23 384 -43 q 431 28 414 -3 q 459 82 448 58 q 486 142 471 106 q 510 202 500 178 q 533 265 519 227 q 556 325 547 303 q 654 552 612 468 q 732 682 696 636 q 819 765 768 727 q 752 753 793 757 q 679 750 712 749 q 583 751 645 750 q 485 753 521 753 q 308 723 387 753 q 180 636 229 694 q 130 501 132 578 q 154 429 130 456 q 214 395 178 401 q 291 402 250 390 q 363 441 332 414 q 406 488 389 463 q 432 544 422 513 q 445 597 441 575 q 454 656 449 618 q 469 654 456 679 q 488 576 485 620 q 488 563 488 569 q 395 414 482 476 q 338 388 374 399 q 260 374 302 376 q 182 380 219 372 q 121 420 146 389 q 97 500 97 451 q 148 651 97 588 q 286 744 199 713 q 488 776 373 774 q 564 775 503 776 q 664 775 625 774 q 759 781 702 776 q 860 795 817 785 l 861 796 m 1433 861 q 1499 832 1480 861 q 1496 778 1519 804 l 1495 779 q 1489 828 1506 808 q 1438 846 1472 849 q 1372 831 1404 844 q 1318 802 1341 819 q 1202 696 1254 758 q 1091 541 1150 635 q 963 392 1028 441 q 817 328 899 343 q 856 269 842 298 q 872 209 869 239 q 873 151 876 178 q 861 87 870 124 q 845 11 850 41 q 838 -54 840 -18 q 845 -114 836 -90 q 875 -152 854 -138 q 965 -161 911 -173 q 1048 -118 1018 -150 q 1073 -86 1063 -103 q 1088 -59 1084 -69 q 1096 -49 1093 -50 q 1103 -60 1104 -45 q 1080 -118 1102 -87 q 1076 -123 1078 -121 q 991 -183 1046 -162 q 870 -186 937 -205 q 804 -149 829 -175 q 768 -89 778 -122 q 759 -15 758 -56 q 766 62 759 26 q 785 134 772 98 q 804 205 798 172 q 806 272 810 239 q 785 321 802 304 q 769 319 784 321 q 736 316 753 317 q 696 320 719 316 q 678 336 681 323 q 682 353 675 349 q 718 368 695 366 q 762 365 741 370 q 799 350 783 359 q 868 383 837 361 q 923 433 899 404 q 964 488 947 462 q 1004 550 982 515 q 1042 606 1026 585 q 1231 797 1143 742 q 1420 861 1319 852 q 1433 861 1425 861 m 762 339 q 721 347 747 349 q 708 340 707 346 q 762 339 709 332 z "},"L":{"ha":744,"x_min":-4,"x_max":1098,"o":"m 107 -112 q 101 -112 104 -112 q 96 -113 98 -113 q 92 -113 94 -113 q 31 -131 39 -120 q 28 -138 28 -134 q 30 -145 28 -142 q 36 -151 32 -149 q 44 -155 40 -153 q 54 -157 47 -156 q 63 -158 60 -158 q 73 -159 67 -159 q 79 -160 78 -160 q 218 -145 145 -166 q 261 -130 241 -139 q 107 -112 166 -109 m 977 830 q 863 727 930 818 q 745 512 796 635 q 910 581 827 524 q 1021 696 993 639 q 1039 771 1040 739 q 1021 819 1038 802 q 977 830 1003 836 m 271 757 q 355 822 299 802 q 469 839 411 842 q 589 819 528 836 q 677 786 641 805 q 726 753 714 766 q 734 736 739 741 q 719 739 730 731 q 674 764 707 746 q 599 794 641 782 q 493 812 543 810 q 399 793 444 814 q 332 729 354 773 q 317 675 319 703 q 324 622 315 648 q 357 572 333 595 q 417 532 381 549 q 510 507 454 515 q 636 500 566 498 q 660 546 638 504 q 705 626 682 587 q 763 713 727 665 q 833 790 799 762 q 933 849 880 828 q 1026 848 987 870 q 1063 769 1063 828 q 1027 656 1063 710 q 913 552 990 603 q 732 483 837 500 q 680 360 708 430 q 635 245 652 291 q 590 142 618 199 q 534 45 563 86 q 460 -39 505 4 q 357 -119 415 -83 q 536 -177 418 -133 q 722 -237 654 -220 q 941 -257 863 -273 q 1047 -206 1019 -241 q 1060 -134 1075 -171 q 1004 -92 1046 -100 q 908 -106 962 -83 q 883 -119 895 -112 q 863 -133 871 -125 q 848 -147 854 -141 q 838 -162 842 -153 q 831 -175 833 -171 q 827 -188 829 -180 q 824 -198 825 -197 q 823 -207 824 -200 q 822 -214 823 -212 q 820 -214 821 -216 q 814 -207 818 -213 q 808 -182 808 -197 q 815 -149 808 -167 q 844 -111 823 -130 q 897 -79 865 -92 q 959 -65 926 -68 q 1020 -69 991 -62 q 1070 -97 1049 -76 q 1095 -150 1090 -118 q 1093 -205 1098 -179 q 1069 -254 1087 -231 q 1023 -294 1052 -278 q 946 -316 994 -309 q 836 -317 898 -323 q 685 -286 760 -309 q 558 -239 610 -263 q 437 -185 506 -214 q 312 -142 369 -157 q 209 -174 260 -165 q 78 -184 144 -188 q 2 -154 12 -181 q 8 -119 -4 -136 q 46 -96 20 -102 q 125 -87 82 -88 q 208 -92 168 -87 q 302 -107 248 -97 q 401 -18 359 -68 q 474 92 444 32 q 524 207 503 153 q 573 338 545 261 q 625 471 601 416 q 455 488 530 471 q 334 534 380 505 q 265 599 289 562 q 243 676 241 635 q 271 757 245 716 z "},"M":{"ha":1335,"x_min":-9,"x_max":1569,"o":"m 930 751 q 852 743 897 746 q 774 740 808 741 q 683 739 740 739 q 596 739 626 739 q 340 669 437 735 q 241 487 243 603 q 281 400 240 427 q 377 381 322 372 q 475 427 433 390 q 517 474 500 450 q 543 531 534 499 q 556 583 552 562 q 564 642 559 604 q 579 641 567 665 q 599 562 596 606 q 599 549 600 555 q 507 401 593 463 q 449 374 485 386 q 372 360 413 362 q 294 367 330 358 q 233 407 257 376 q 208 487 208 437 q 315 687 208 617 q 599 762 422 758 q 708 761 624 763 q 856 763 793 760 q 971 781 919 767 l 972 782 q 985 790 978 785 q 1005 802 993 795 q 1028 813 1017 808 q 1052 821 1040 818 q 1071 821 1063 823 q 1083 810 1080 819 q 1063 778 1090 793 q 1007 760 1036 764 q 963 697 981 732 q 934 619 945 662 q 918 539 924 576 q 905 452 911 503 q 892 370 898 400 q 887 345 891 367 q 879 302 883 322 q 869 255 875 282 q 855 204 863 229 q 839 161 847 179 q 865 215 842 167 q 904 292 889 263 q 944 366 919 320 q 995 451 969 412 q 1046 521 1021 490 q 1472 826 1253 777 q 1569 819 1565 846 q 1558 801 1569 806 q 1537 796 1548 795 l 1525 796 q 1384 653 1453 755 q 1271 441 1316 552 q 1203 224 1227 330 q 1186 132 1193 179 q 1178 27 1180 84 q 1186 -81 1176 -30 q 1220 -163 1196 -132 q 1291 -208 1247 -201 q 1375 -192 1334 -215 q 1437 -125 1415 -169 q 1447 -104 1442 -115 q 1454 -87 1451 -94 q 1458 -76 1456 -81 q 1461 -68 1459 -71 q 1463 -66 1462 -66 q 1471 -79 1468 -69 q 1469 -111 1474 -89 q 1446 -158 1463 -132 q 1333 -230 1407 -218 q 1192 -195 1259 -243 q 1107 -30 1128 -148 q 1121 244 1086 88 q 1267 596 1169 450 q 1480 798 1366 743 q 1432 784 1459 793 q 1358 750 1404 774 q 1267 694 1312 726 q 1169 609 1223 662 q 1069 491 1115 555 q 1004 396 1030 437 q 963 326 979 355 q 909 225 947 296 q 828 78 871 154 q 729 -66 781 -7 q 648 -122 677 -126 q 646 -111 638 -121 q 656 -97 648 -107 q 704 -35 685 -64 q 766 122 737 17 q 806 349 794 228 q 919 706 825 556 q 792 566 846 654 q 654 275 739 478 q 599 147 621 195 q 535 26 577 99 q 453 -88 493 -46 q 352 -164 412 -130 q 223 -206 292 -199 q 93 -178 151 -213 q 13 -75 35 -143 q 7 69 -9 -1 q 24 115 14 96 q 46 145 35 135 q 68 159 57 155 q 88 163 79 164 q 102 157 97 162 q 112 144 109 151 q 113 129 115 137 q 110 115 111 120 q 99 98 108 110 q 85 81 90 87 q 67 61 81 76 q 47 -75 20 7 q 114 -155 65 -128 q 225 -176 162 -182 q 349 -133 292 -169 q 453 -35 406 -98 q 536 100 499 28 q 610 270 572 172 q 697 469 653 383 q 782 609 741 554 q 862 698 824 665 q 940 753 899 732 q 930 751 933 751 z "},"N":{"ha":1206,"x_min":-9,"x_max":1716,"o":"m 1594 861 q 1696 820 1666 861 q 1705 773 1715 793 q 1686 761 1699 762 q 1653 764 1664 758 q 1639 781 1643 770 q 1632 802 1635 791 q 1616 821 1628 813 q 1581 829 1604 829 q 1510 819 1544 830 q 1444 781 1476 807 q 1382 720 1412 755 q 1319 632 1352 686 q 1255 522 1286 579 q 1184 385 1223 464 q 1159 333 1177 371 q 1130 274 1141 296 q 1099 213 1120 253 q 1063 148 1078 174 q 1025 86 1048 123 q 983 25 1002 50 q 938 -28 964 1 q 889 -77 913 -58 q 838 -114 865 -97 q 781 -140 810 -131 q 767 -139 772 -142 q 765 -129 763 -136 q 813 63 800 -12 q 832 250 826 137 q 847 439 839 363 q 956 753 871 651 q 848 669 890 713 q 762 539 807 625 q 654 298 717 454 q 617 206 631 240 q 576 116 603 172 q 527 25 549 60 q 470 -52 505 -9 q 400 -119 435 -94 q 320 -162 366 -144 q 223 -184 274 -180 q 93 -154 151 -188 q 13 -52 35 -120 q 7 92 -9 22 q 24 138 14 119 q 46 168 35 158 q 68 182 57 178 q 88 186 79 187 q 102 180 97 185 q 112 167 109 174 q 113 152 115 160 q 110 138 111 143 q 99 121 108 133 q 85 104 90 110 q 67 84 81 99 q 47 -53 20 31 q 114 -132 65 -106 q 225 -153 162 -159 q 327 -121 279 -147 q 413 -57 375 -96 q 487 39 450 -19 q 551 156 523 97 q 610 293 578 215 q 755 593 688 489 q 890 746 822 697 q 798 740 851 741 q 699 739 745 739 q 596 739 652 739 q 339 670 435 736 q 241 487 243 604 q 281 400 240 427 q 377 381 322 372 q 475 427 433 390 q 517 474 500 450 q 543 531 534 499 q 556 583 552 562 q 564 642 559 604 q 579 641 567 665 q 599 562 596 606 q 599 549 600 555 q 507 401 593 463 q 449 374 485 386 q 372 360 413 362 q 294 367 330 358 q 233 407 257 376 q 208 487 208 437 q 258 637 208 575 q 395 730 309 700 q 599 762 482 761 q 671 762 627 762 q 756 763 714 762 q 849 767 798 764 q 942 777 900 770 q 1052 821 1021 816 q 1083 810 1077 824 q 1077 789 1088 800 q 1047 773 1065 779 q 1016 763 1028 766 q 998 759 1004 760 q 957 633 969 712 q 937 397 945 553 q 884 89 927 224 q 799 -104 842 -45 q 877 -40 840 -78 q 939 26 915 -3 q 1002 122 964 56 q 1056 217 1040 188 q 1118 337 1071 245 q 1125 352 1122 347 q 1132 365 1128 357 q 1139 379 1136 372 q 1174 449 1150 400 q 1212 527 1197 497 q 1254 604 1227 557 q 1303 681 1281 651 q 1358 748 1325 711 q 1423 805 1391 784 q 1497 843 1455 827 q 1582 861 1538 859 q 1588 861 1584 861 q 1594 861 1592 861 z "},"O":{"ha":857,"x_min":0,"x_max":922,"o":"m 551 701 q 372 475 432 593 q 334 392 340 410 q 338 390 336 392 q 444 378 392 378 q 507 494 468 436 q 636 641 566 583 q 779 699 705 699 q 823 693 801 699 q 880 623 869 680 q 894 688 894 656 q 886 733 894 712 q 844 793 874 770 q 781 815 814 815 q 570 717 688 815 q 605 685 591 700 q 618 665 618 670 q 618 664 618 664 q 613 662 616 662 q 551 701 603 662 m 504 765 q 743 848 636 848 q 758 847 753 848 q 866 809 826 842 q 916 737 906 776 q 922 686 922 712 q 884 566 922 625 q 845 406 878 496 q 774 245 812 317 q 372 -114 578 -114 q 297 -103 334 -114 q 195 -19 228 -81 q 161 134 161 44 q 216 399 161 256 q 64 516 128 445 q 0 663 0 587 q 29 757 0 712 q 237 844 85 844 q 378 827 306 844 q 504 765 432 812 m 482 751 q 380 798 423 788 q 273 810 329 810 q 104 733 140 810 q 86 654 86 694 q 127 534 86 590 q 233 437 169 477 q 440 722 317 630 q 461 737 447 727 q 482 751 475 747 m 435 351 q 410 351 427 351 q 336 355 372 351 q 328 357 334 356 q 319 358 322 357 q 261 91 261 208 q 334 -66 261 -35 q 389 -79 360 -79 q 536 -14 458 -79 q 680 149 615 51 q 789 359 745 248 q 836 509 820 438 q 684 408 769 441 q 526 363 615 378 q 453 160 482 275 q 433 126 444 126 q 414 151 422 126 q 406 206 406 176 q 407 212 406 208 q 407 218 407 216 q 435 351 411 290 m 539 389 q 694 443 633 407 q 847 566 790 494 q 850 601 850 591 q 827 660 850 652 q 804 663 817 663 q 744 643 776 663 q 685 596 711 623 q 633 534 659 569 q 592 477 606 499 q 567 436 577 454 q 539 389 555 414 z "},"P":{"ha":980,"x_min":-9,"x_max":1053,"o":"m 447 554 q 454 526 449 540 q 466 501 460 511 q 478 480 472 490 q 489 463 485 470 q 496 449 494 455 q 497 438 499 443 q 490 431 496 433 q 476 428 484 428 q 459 431 469 428 q 441 440 450 433 q 424 458 432 447 q 410 486 416 469 q 403 525 405 503 q 404 576 401 547 q 448 695 410 642 q 541 779 485 748 q 664 824 596 810 q 801 829 732 837 q 901 801 850 824 q 955 829 936 821 q 1053 857 1050 871 q 1049 849 1053 852 q 1022 835 1044 846 q 975 810 999 825 q 932 784 960 802 q 1020 699 987 751 q 1053 575 1053 646 q 1016 424 1053 491 q 917 317 979 357 q 778 257 855 277 q 614 239 700 237 q 565 131 590 180 q 503 32 539 82 q 427 -53 467 -18 q 335 -111 387 -87 q 223 -138 282 -134 q 92 -108 150 -142 q 13 -6 35 -74 q 7 138 -9 67 q 24 184 14 165 q 46 214 35 204 q 68 228 57 224 q 88 232 79 233 q 102 226 97 231 q 114 207 111 216 q 109 184 116 197 q 96 163 102 171 q 71 135 90 155 q 67 130 68 132 q 47 -7 20 77 q 114 -86 65 -60 q 225 -106 162 -113 q 277 -94 252 -104 q 323 -71 302 -84 q 363 -36 343 -58 q 399 6 384 -14 q 431 56 414 26 q 459 111 448 87 q 486 171 471 134 q 510 231 500 207 q 533 293 519 255 q 556 353 547 332 q 865 779 673 654 q 792 804 830 798 q 731 808 764 808 q 662 799 698 808 q 593 777 627 790 q 529 742 559 764 q 479 693 500 719 q 449 630 458 667 q 447 554 440 594 m 621 254 q 706 264 664 255 q 794 298 748 274 q 874 357 840 321 q 934 449 909 392 q 962 578 958 507 q 897 758 970 697 q 771 610 826 703 q 654 344 716 517 q 621 254 640 301 z "},"Q":{"ha":848,"x_min":-5,"x_max":945,"o":"m 603 167 q 702 333 663 245 q 751 498 740 422 q 755 638 762 574 q 724 739 749 701 q 665 782 703 770 q 588 792 627 795 q 507 775 549 789 q 509 773 507 774 q 511 770 510 771 q 578 649 559 716 q 591 518 598 582 q 557 392 584 454 q 490 283 530 330 q 397 204 449 235 q 291 168 345 173 q 207 191 240 163 q 163 267 174 219 q 159 373 152 314 q 190 490 165 433 q 429 778 277 692 q 324 793 378 805 q 220 737 271 781 q 174 687 195 715 q 140 633 153 659 q 117 581 127 607 q 103 533 108 555 q 94 495 98 511 q 86 469 90 478 q 79 460 83 460 q 69 483 71 462 q 76 537 68 504 q 97 607 83 570 q 132 680 110 643 q 180 740 154 716 q 336 821 254 808 q 475 800 416 833 q 653 827 560 834 q 754 797 711 823 q 820 733 798 772 q 852 650 843 694 q 857 559 861 606 q 818 374 849 460 q 744 224 787 288 q 640 104 701 161 q 517 9 578 48 q 380 -68 456 -31 q 376 -71 378 -69 q 372 -73 374 -72 q 367 -75 370 -73 q 362 -77 364 -76 q 509 -142 462 -125 q 673 -184 610 -176 q 859 -163 779 -198 q 897 -132 883 -152 q 899 -100 911 -112 q 892 -81 886 -88 q 920 -88 899 -72 q 940 -122 934 -98 q 936 -172 945 -145 q 899 -213 926 -199 q 827 -235 865 -229 q 753 -241 788 -241 q 672 -229 719 -240 q 594 -208 625 -218 q 510 -176 562 -198 q 432 -142 458 -155 q 353 -104 406 -130 q 323 -90 333 -95 q 178 -110 255 -109 q 48 -93 102 -112 q 1 -39 -5 -75 q 32 -4 3 -18 q 110 5 60 10 q 302 -49 197 -3 q 470 42 390 -14 q 603 167 550 98 m 264 -62 q 197 -35 224 -45 q 138 -17 166 -23 q 89 -12 110 -12 q 53 -16 68 -12 q 30 -29 37 -20 q 25 -48 23 -37 q 68 -82 28 -69 q 164 -87 107 -95 q 264 -62 214 -79 m 458 756 q 433 742 443 748 q 297 603 363 700 q 203 419 230 505 q 189 300 182 349 q 216 223 195 250 q 262 201 237 197 q 371 257 321 211 q 451 365 420 303 q 498 494 481 427 q 515 617 515 560 q 498 704 515 674 q 458 756 479 737 z "},"R":{"ha":969,"x_min":-9,"x_max":1060,"o":"m 447 554 q 454 526 449 540 q 466 501 460 511 q 478 480 472 490 q 489 463 485 470 q 496 449 494 455 q 497 438 499 443 q 490 431 496 433 q 476 428 484 428 q 459 431 469 428 q 441 440 450 433 q 424 458 432 447 q 410 486 416 469 q 403 525 405 503 q 404 576 401 547 q 448 695 410 642 q 541 779 485 748 q 664 824 596 810 q 801 829 732 837 q 901 801 850 824 q 955 829 936 821 q 1053 857 1050 871 q 1049 849 1053 852 q 1022 835 1044 846 q 975 810 999 825 q 932 784 960 802 q 1020 699 987 751 q 1053 575 1053 646 q 1031 455 1053 510 q 970 361 1009 401 q 880 295 930 322 q 767 254 829 269 q 785 245 773 252 q 828 194 813 228 q 842 124 843 161 q 832 49 842 87 q 806 -64 808 -34 q 845 -145 804 -120 q 905 -161 873 -162 q 964 -149 937 -160 q 1010 -122 991 -138 q 1030 -97 1022 -111 q 1042 -75 1038 -83 q 1048 -65 1046 -66 q 1059 -75 1058 -62 q 1031 -131 1059 -99 q 954 -175 1005 -161 q 840 -173 903 -188 q 763 -128 791 -158 q 731 -60 735 -98 q 733 13 727 -22 q 755 87 739 49 q 773 145 768 117 q 775 198 779 172 q 755 235 772 223 q 726 246 745 242 q 614 239 674 238 q 565 131 590 180 q 503 32 539 82 q 427 -53 467 -18 q 335 -111 387 -87 q 223 -138 282 -134 q 92 -108 150 -142 q 13 -6 35 -74 q 7 138 -9 67 q 24 184 14 165 q 46 214 35 204 q 68 228 57 224 q 88 232 79 233 q 102 226 97 231 q 114 207 111 216 q 109 184 116 197 q 96 163 102 171 q 71 135 90 155 q 67 130 68 132 q 47 -7 20 77 q 114 -86 65 -60 q 225 -106 162 -113 q 277 -94 252 -104 q 323 -71 302 -84 q 363 -36 343 -58 q 399 6 384 -14 q 431 56 414 26 q 459 111 448 87 q 486 171 471 134 q 510 231 500 207 q 533 293 519 255 q 556 353 547 332 q 865 779 673 654 q 792 804 830 798 q 731 808 764 808 q 662 799 698 808 q 593 777 627 790 q 529 742 559 764 q 479 693 500 719 q 449 630 458 667 q 447 554 440 594 m 621 254 q 706 264 664 255 q 794 298 748 274 q 874 357 840 321 q 934 449 909 392 q 962 578 958 507 q 897 758 970 697 q 771 610 826 703 q 654 344 716 517 q 621 254 640 301 z "},"S":{"ha":947,"x_min":-5,"x_max":1048,"o":"m 546 483 q 573 441 564 460 q 581 415 582 422 q 578 407 581 409 q 570 413 575 407 q 555 433 564 420 q 538 455 545 446 q 418 550 487 517 q 284 586 349 584 q 163 565 220 589 q 77 494 106 541 q 60 426 58 460 q 90 357 62 391 q 165 305 117 323 q 191 297 167 304 q 262 351 222 332 q 353 372 307 372 q 432 357 399 372 q 484 319 465 342 q 492 307 487 315 q 625 348 553 321 q 783 427 718 383 q 771 488 774 467 q 763 541 767 508 q 760 602 758 574 q 769 657 762 630 q 800 739 781 703 q 838 793 820 774 q 879 824 857 811 q 913 840 902 836 q 939 845 925 843 q 1033 793 1016 859 q 1011 646 1048 734 q 972 576 995 608 q 824 430 918 500 q 837 368 828 409 q 850 301 846 328 q 858 239 854 275 q 857 164 861 202 q 842 87 853 127 q 792 -15 826 32 q 714 -94 758 -62 q 618 -149 671 -126 q 512 -179 565 -171 q 406 -184 458 -188 q 310 -163 353 -180 q 171 -48 220 -127 q 125 119 123 32 q 172 274 127 207 q 100 302 134 283 q 40 346 66 321 q 5 404 15 371 q 5 471 -5 437 q 73 569 23 532 q 186 615 122 607 q 318 611 250 623 q 447 566 386 600 q 546 483 509 532 m 788 404 q 644 329 713 353 q 624 321 640 328 q 592 310 607 315 q 553 298 578 305 q 505 284 529 290 q 527 190 526 241 q 508 95 528 138 q 453 39 488 53 q 409 47 421 27 q 421 89 397 67 q 460 148 448 114 q 470 213 472 182 q 456 274 468 245 q 207 267 324 249 q 162 146 171 215 q 180 8 153 77 q 270 -98 207 -61 q 347 -123 301 -117 q 443 -122 392 -129 q 547 -95 494 -116 q 647 -43 601 -75 q 732 36 694 -12 q 789 142 770 84 q 805 234 803 186 q 803 319 808 283 q 788 404 799 355 m 820 454 q 932 572 880 503 q 995 682 972 624 q 1010 781 1017 739 q 968 806 1004 818 q 885 736 928 794 q 815 535 819 646 q 815 511 814 523 q 820 454 817 479 m 445 298 q 429 319 437 311 q 333 348 395 355 q 224 290 271 340 q 445 298 316 275 z "},"T":{"ha":728,"x_min":-9,"x_max":1236,"o":"m 837 672 q 988 659 919 661 q 1109 663 1057 656 q 1188 690 1162 670 q 1207 741 1215 709 q 1158 787 1199 774 q 1065 794 1118 801 q 965 764 1012 787 q 837 672 887 726 m 802 628 q 654 307 736 536 q 620 215 636 256 q 579 124 604 174 q 530 34 555 73 q 472 -44 505 -5 q 402 -110 438 -83 q 320 -154 366 -136 q 223 -175 274 -172 q 93 -145 151 -179 q 13 -43 35 -111 q 7 101 -9 31 q 24 147 14 127 q 46 177 35 167 q 68 191 57 186 q 88 195 79 196 q 102 189 97 194 q 112 176 109 182 q 113 160 115 169 q 110 147 111 152 q 99 130 108 142 q 85 113 90 119 q 67 93 81 108 q 47 -44 20 39 q 114 -123 65 -97 q 225 -144 162 -150 q 277 -131 252 -141 q 323 -108 302 -121 q 363 -73 343 -95 q 399 -31 384 -52 q 431 20 414 -11 q 459 74 448 50 q 486 134 471 98 q 510 194 500 170 q 533 257 519 218 q 556 317 547 295 q 739 637 634 517 q 559 673 661 650 q 495 687 534 678 q 433 702 456 696 q 376 714 410 707 q 320 724 342 721 q 272 729 299 727 q 226 729 244 731 q 186 722 208 727 q 151 707 165 717 q 124 683 137 697 q 102 648 111 668 q 182 489 61 558 q 182 487 186 486 q 172 490 180 488 q 106 530 132 503 q 73 588 80 556 q 79 655 65 620 q 127 721 92 691 q 202 763 162 750 q 297 775 243 777 q 409 762 351 773 q 552 729 467 751 q 781 680 664 699 q 918 778 844 741 q 1008 810 958 798 q 1109 819 1057 821 q 1195 797 1160 817 q 1227 759 1219 783 q 1228 710 1236 735 q 1202 668 1221 686 q 802 628 1111 586 z "},"U":{"ha":883,"x_min":-7,"x_max":1017,"o":"m 78 669 q 27 520 32 606 q 69 417 23 434 q 137 421 102 406 q 194 458 173 437 q 233 502 216 479 q 325 703 292 586 q 330 594 341 654 q 283 484 318 534 q 236 433 262 454 q 184 400 209 411 q 136 386 160 390 q 93 382 111 381 q 64 389 75 384 q 7 454 22 405 q 5 563 -7 504 q 50 673 18 622 q 152 775 90 736 q 285 819 214 813 q 371 809 332 822 q 437 766 410 795 q 474 690 464 736 q 474 581 485 644 q 439 472 467 539 q 381 340 412 404 q 321 203 350 275 q 275 74 292 132 q 267 -30 259 17 q 314 -96 275 -76 q 713 345 471 -175 q 719 358 717 354 q 721 362 720 359 q 722 366 722 364 q 869 678 789 555 q 956 780 920 754 q 1015 795 993 806 q 1013 788 1017 794 q 997 765 1008 782 q 970 725 985 749 q 932 658 955 702 q 887 562 909 614 q 750 196 783 320 q 727 -16 717 73 q 774 -135 736 -97 q 849 -161 812 -174 q 923 -105 892 -147 q 936 -94 933 -92 q 939 -100 937 -96 q 919 -143 943 -115 q 852 -182 895 -172 q 760 -169 802 -193 q 693 -99 718 -145 q 659 4 669 -54 q 657 115 649 61 q 674 201 665 163 q 398 -126 537 -82 q 342 -135 370 -134 q 288 -123 314 -136 q 240 -90 261 -111 q 207 -33 220 -69 q 194 51 195 4 q 213 181 193 111 q 262 314 233 251 q 323 438 292 378 q 377 558 353 498 q 406 661 401 617 q 388 750 412 715 q 330 792 363 785 q 255 791 296 799 q 165 752 214 784 q 78 669 116 721 z "},"V":{"ha":790,"x_min":0,"x_max":1365,"o":"m 1253 820 q 1348 763 1323 810 q 1352 711 1365 732 q 1332 699 1345 699 q 1300 708 1310 700 q 1288 727 1290 715 q 1283 751 1285 739 q 1270 774 1281 764 q 1236 788 1259 785 q 1127 774 1181 796 q 1017 696 1074 752 q 902 560 960 640 q 772 361 844 480 q 466 6 637 138 q 108 -129 294 -126 q 107 -129 107 -129 l 106 -130 q 87 -129 94 -132 q 80 -129 85 -129 q 72 -128 75 -128 q 77 -127 73 -127 q 83 -127 81 -127 q 81 -125 81 -125 q 82 -122 81 -123 q 91 -121 84 -121 q 103 -120 97 -121 q 148 -105 127 -116 q 187 -80 170 -94 q 221 -44 204 -66 q 250 -2 237 -22 q 276 49 262 18 q 298 103 289 79 q 318 162 307 126 q 336 221 329 197 q 353 282 342 244 q 370 340 363 319 q 651 785 463 658 q 388 781 577 772 q 256 766 320 783 q 143 717 192 749 q 64 635 94 684 q 33 529 34 587 q 57 456 33 484 q 117 423 81 429 q 194 430 153 418 q 267 469 235 441 q 309 516 292 491 q 335 572 326 541 q 348 624 344 604 q 356 684 351 645 q 371 682 359 707 q 391 604 388 648 q 391 591 391 597 q 298 442 385 504 q 241 415 277 427 q 163 401 205 404 q 85 408 122 399 q 24 448 49 417 q 0 528 0 479 q 55 679 0 615 q 197 773 109 743 q 391 804 284 804 q 468 802 413 804 q 555 801 524 800 q 633 807 587 801 q 720 825 680 812 q 773 847 762 848 q 777 844 776 847 q 777 838 778 840 q 770 833 775 836 q 759 826 765 829 q 739 813 752 822 q 711 795 726 805 q 612 701 651 751 q 538 564 573 650 q 466 333 504 477 q 427 206 448 264 q 375 87 406 148 q 302 -22 345 26 q 209 -96 260 -69 q 376 -18 297 -67 q 518 96 454 32 q 631 223 583 160 q 728 362 680 286 q 758 411 737 378 q 817 506 795 472 q 881 599 839 540 q 958 691 922 658 q 1040 761 994 725 q 1137 811 1086 797 q 1241 821 1187 825 q 1253 820 1244 821 z "},"W":{"ha":1144,"x_min":0,"x_max":1681,"o":"m 773 833 q 777 830 776 833 q 777 827 777 828 q 776 824 777 825 q 773 821 774 823 q 768 818 772 820 q 762 814 765 816 q 753 809 759 812 q 743 802 748 806 l 724 790 q 711 781 716 785 q 576 627 624 719 q 472 323 528 536 q 431 195 454 256 q 376 74 408 134 q 300 -35 344 13 q 205 -111 256 -83 q 303 -62 255 -93 q 389 3 351 -31 q 467 84 428 37 q 535 169 507 130 q 594 260 563 208 q 645 344 626 311 q 687 422 663 377 q 768 558 727 498 q 839 656 808 619 q 905 724 870 693 q 960 768 939 754 q 1008 798 981 782 q 1093 830 1090 844 q 1093 825 1094 827 q 1086 819 1091 823 q 1074 812 1081 816 q 1054 800 1067 808 q 1027 781 1041 791 l 1026 781 q 1025 780 1025 780 q 875 598 941 726 q 770 316 808 470 q 747 231 758 269 q 720 148 736 194 q 686 66 705 102 q 644 -6 667 30 q 592 -69 621 -41 q 528 -115 562 -97 q 628 -81 579 -104 q 718 -32 677 -58 q 799 33 758 -5 q 870 105 839 71 q 935 185 901 140 q 992 267 968 231 q 1044 348 1015 302 q 1074 397 1053 363 q 1133 492 1111 458 q 1197 585 1155 526 q 1274 677 1238 644 q 1356 747 1310 711 q 1453 797 1402 783 q 1557 807 1503 811 q 1569 806 1565 807 q 1664 749 1639 797 q 1668 697 1681 719 q 1647 686 1661 686 q 1615 694 1626 686 q 1603 714 1605 702 q 1598 738 1600 726 q 1585 760 1596 749 q 1551 774 1574 770 q 1443 760 1496 782 q 1334 681 1391 739 q 1220 546 1276 624 q 1088 348 1163 467 q 1078 330 1085 342 q 1047 281 1059 300 q 1009 223 1036 262 q 960 156 982 184 q 903 89 938 129 q 836 21 868 50 q 762 -38 804 -7 q 677 -89 719 -69 q 585 -124 635 -109 q 484 -142 535 -138 q 399 -142 401 -146 q 401 -137 397 -139 q 419 -134 406 -136 q 468 -117 445 -129 q 510 -85 490 -106 q 545 -45 530 -65 q 576 8 561 -25 q 602 65 591 41 q 625 130 612 89 q 645 194 638 171 q 664 262 652 218 q 682 326 677 307 q 610 216 642 263 q 538 117 577 168 q 463 30 498 66 q 385 -40 427 -6 q 300 -96 342 -75 q 209 -130 258 -117 q 108 -143 160 -142 q 81 -139 85 -143 q 83 -136 79 -138 q 92 -136 85 -136 q 103 -134 98 -134 q 148 -119 127 -130 q 187 -94 170 -108 q 221 -58 204 -80 q 250 -15 237 -35 q 276 35 262 5 q 298 89 289 66 q 318 148 307 113 q 336 207 329 184 q 353 268 342 231 q 370 326 363 306 q 640 764 460 635 q 388 760 566 752 q 216 732 296 764 q 85 634 136 699 q 33 486 34 569 q 57 406 33 436 q 118 371 82 376 q 194 378 153 365 q 267 420 235 391 q 309 472 292 445 q 335 533 326 499 q 348 590 344 568 q 356 654 351 613 q 370 654 359 679 q 391 570 387 618 q 391 553 391 561 q 298 391 385 459 q 241 362 277 375 q 163 347 205 349 q 85 354 122 345 q 24 398 49 364 q 0 486 0 431 q 32 615 0 557 q 117 710 63 673 q 241 766 172 747 q 391 786 311 786 q 466 784 414 786 q 550 783 519 783 q 626 788 581 783 q 709 806 671 794 q 773 833 762 834 z "},"X":{"ha":782,"x_min":-9,"x_max":1400,"o":"m 1048 783 q 1102 803 1072 793 q 1177 823 1133 813 q 1269 831 1221 833 q 1356 814 1317 829 q 1379 802 1370 808 q 1391 789 1388 796 q 1396 778 1395 781 q 1398 766 1396 775 q 1387 738 1400 751 q 1358 725 1373 726 q 1331 735 1342 724 q 1325 762 1325 743 q 1314 787 1326 782 q 1236 803 1284 806 q 1142 788 1187 800 q 1065 759 1096 775 q 932 668 987 716 q 822 540 876 620 q 818 531 821 536 q 814 522 815 526 q 698 250 730 342 q 654 47 665 157 q 658 -54 648 -8 q 692 -128 668 -99 q 750 -171 716 -157 q 827 -182 784 -186 q 918 -155 871 -178 q 989 -106 948 -141 q 1006 -100 1004 -94 q 1007 -101 1007 -100 q 977 -140 1010 -111 q 916 -182 944 -169 q 820 -209 869 -205 q 727 -197 771 -213 q 650 -150 684 -182 q 597 -64 616 -118 q 581 58 578 -10 q 583 101 582 87 q 200 -183 414 -170 q 72 -153 126 -187 q 5 -52 18 -119 q 17 92 -9 20 q 39 138 26 119 q 65 168 52 158 q 89 182 77 178 q 110 186 101 187 q 122 180 118 185 q 132 161 130 170 q 124 139 133 152 q 108 118 115 126 q 81 90 100 110 q 75 85 77 87 q 39 -52 22 32 q 96 -132 50 -105 q 205 -153 141 -159 q 611 256 436 -130 q 613 260 612 257 q 614 264 614 262 q 650 371 629 317 q 702 496 671 425 q 744 597 732 568 q 770 757 783 691 q 695 833 758 823 q 448 748 572 855 q 366 656 399 706 q 323 564 334 606 q 318 488 313 522 q 344 440 323 454 q 395 428 365 425 q 454 444 425 431 q 508 477 483 457 q 558 524 535 498 q 597 571 582 549 q 626 614 613 593 q 645 651 638 635 q 657 680 652 667 q 665 696 663 692 q 669 698 667 701 q 649 545 694 629 q 529 423 603 462 q 418 394 477 396 q 326 414 360 392 q 286 474 296 432 q 291 573 276 515 q 347 691 307 631 q 405 759 370 726 q 487 820 441 791 q 591 861 534 848 q 705 865 649 874 q 821 788 779 852 q 848 630 863 724 q 1048 783 946 737 z "},"Y":{"ha":866,"x_min":-8,"x_max":1165,"o":"m 349 814 q 209 789 276 824 q 92 680 142 753 q 43 565 56 626 q 42 457 30 504 q 87 393 54 410 q 171 392 131 373 q 242 461 211 412 q 288 574 274 510 q 294 629 292 592 q 301 682 297 666 q 313 690 304 698 q 340 642 330 675 q 345 556 350 608 q 315 455 340 504 q 266 398 298 423 q 201 363 235 374 q 134 349 168 352 q 78 358 100 346 q 9 442 27 382 q 7 570 -8 501 q 62 698 22 639 q 181 809 108 766 q 330 852 254 852 q 488 783 429 852 q 522 597 547 715 q 457 434 511 545 q 392 267 403 323 q 387 212 387 240 q 393 157 387 184 q 416 111 399 130 q 460 90 433 93 q 713 302 571 77 q 883 649 795 520 q 928 708 905 681 q 972 756 951 736 q 1014 793 993 776 q 1053 821 1035 810 q 1087 840 1071 831 q 1117 852 1104 848 q 1140 859 1131 857 q 1156 861 1150 861 q 1163 859 1162 861 q 1160 854 1165 857 q 1145 847 1156 851 q 1121 836 1135 842 q 1089 818 1107 829 q 1054 793 1072 807 q 1018 757 1037 779 q 982 709 998 735 q 888 529 932 628 q 823 368 844 430 q 775 214 803 307 q 745 110 748 121 q 692 -16 724 45 q 617 -133 661 -77 q 521 -231 572 -189 q 404 -299 469 -273 q 267 -326 338 -325 q 186 -315 227 -327 q 109 -273 146 -303 q 54 -198 72 -242 q 47 -54 28 -135 q 63 -8 53 -28 q 83 22 73 12 q 105 37 94 32 q 125 41 117 42 q 139 35 134 40 q 151 16 149 25 q 148 -5 153 6 q 134 -27 142 -17 q 111 -55 126 -38 q 109 -57 110 -56 q 107 -59 109 -58 q 106 -61 106 -60 q 89 -199 57 -118 q 161 -274 109 -249 q 269 -295 212 -299 q 372 -266 322 -291 q 460 -201 421 -240 q 535 -109 499 -163 q 597 -1 570 -56 q 646 118 623 54 q 665 168 661 159 q 519 62 593 83 q 463 53 491 53 q 409 63 435 53 q 361 93 382 73 q 326 149 340 113 q 309 231 312 184 q 324 350 306 286 q 367 462 342 413 q 414 575 391 511 q 441 692 437 640 q 415 777 446 746 q 349 814 385 808 z "},"Z":{"ha":741,"x_min":-12,"x_max":798,"o":"m 486 881 q 567 888 530 892 q 637 871 604 884 q 693 834 669 859 q 733 781 717 810 q 755 713 749 751 q 757 637 761 676 q 737 554 753 597 q 692 469 720 511 q 612 378 659 420 q 517 310 566 337 q 430 265 469 282 q 356 237 391 248 q 464 231 401 250 q 561 168 526 213 q 581 175 572 172 q 640 198 612 187 q 686 217 667 209 q 720 233 705 226 q 745 246 735 241 q 761 255 754 251 q 772 262 768 260 q 778 266 776 264 q 782 268 781 268 q 785 268 784 269 q 789 267 787 268 q 783 247 798 262 q 721 208 768 233 q 604 158 673 183 q 574 148 590 153 q 598 80 590 118 q 603 -5 606 41 q 578 -104 601 -52 q 511 -203 555 -156 q 389 -298 456 -262 q 262 -340 321 -333 q 159 -344 203 -348 q 86 -328 114 -340 q 9 -248 30 -304 q 10 -125 -12 -193 q 92 -5 32 -58 q 189 55 130 28 q 295 96 247 82 q 419 128 344 109 q 533 159 495 147 q 419 217 500 203 q 258 201 339 231 q 232 208 242 195 q 237 231 222 222 q 253 237 243 235 q 314 254 280 241 q 389 288 349 267 q 469 340 429 309 q 547 410 510 372 q 615 498 584 448 q 665 604 647 549 q 684 716 685 663 q 661 807 684 769 q 590 857 637 845 q 468 846 542 869 q 360 788 412 829 q 274 690 308 747 q 243 598 252 653 q 249 495 235 544 q 297 433 262 447 q 347 426 321 421 q 394 441 372 430 q 436 473 415 452 q 473 514 457 494 q 502 559 488 535 q 534 621 520 591 q 553 669 547 650 q 563 701 559 687 q 570 720 567 715 q 577 725 573 726 q 600 686 595 721 q 588 598 605 652 q 533 496 572 544 q 469 438 505 461 q 400 408 434 416 q 336 400 366 399 q 282 410 307 401 q 242 444 260 418 q 215 506 224 469 q 212 593 205 543 q 244 696 218 644 q 337 808 274 755 q 486 881 401 861 m 544 139 q 462 117 522 133 q 367 90 403 101 q 280 62 330 79 q 190 23 230 45 q 121 -22 151 2 q 54 -101 78 -58 q 28 -183 31 -145 q 44 -251 26 -221 q 99 -290 62 -281 q 166 -297 131 -300 q 233 -284 201 -294 q 295 -258 264 -275 q 351 -224 327 -241 q 398 -187 376 -207 q 528 -14 488 -106 q 544 139 568 78 z "},"[":{"ha":555,"x_min":27,"x_max":559,"o":"m 304 -184 q 312 -193 311 -185 q 304 -202 312 -201 q 29 -200 33 -218 q 139 142 27 -191 q 279 547 252 475 q 292 582 289 572 q 302 604 296 591 q 311 618 309 616 q 321 626 313 621 q 333 630 329 631 q 350 632 336 630 q 373 637 363 635 q 482 636 405 644 q 552 608 559 629 q 510 600 549 600 q 428 595 471 599 q 375 575 385 591 q 301 394 355 544 q 184 67 246 243 q 98 -168 123 -109 q 107 -171 98 -169 q 134 -174 117 -173 q 172 -177 151 -176 q 215 -179 193 -178 q 255 -181 237 -180 q 287 -183 273 -182 q 304 -184 301 -184 z "},"\\":{"ha":543,"x_min":-58,"x_max":669,"o":"m -12 -180 q -41 -186 -24 -193 q -52 -166 -58 -181 q -47 -158 -51 -162 q 232 180 -15 -122 q 503 510 479 481 q 530 542 516 525 q 552 570 543 558 q 571 594 562 582 q 588 615 581 607 q 602 630 595 623 q 615 640 610 637 q 626 643 621 642 q 638 640 632 643 q 649 629 644 636 q 655 574 669 604 q 582 484 641 545 q 466 357 559 460 q 280 150 372 253 q 90 -64 189 47 q -12 -180 -9 -176 z "},"]":{"ha":600,"x_min":-58,"x_max":501,"o":"m 224 637 q 217 646 218 637 q 225 654 217 654 q 500 652 496 671 q 438 479 501 646 q 303 125 375 313 q 221 -94 232 -63 q 189 -161 203 -147 q 127 -184 174 -174 q 18 -183 95 -191 q -52 -155 -58 -176 q -34 -149 -48 -148 q 4 -152 -20 -151 q 51 -154 28 -153 q 95 -147 74 -155 q 125 -123 116 -139 q 444 626 159 -60 q 397 632 445 629 q 283 635 363 633 q 224 637 230 636 z "},"^":{"ha":488,"x_min":104,"x_max":454,"o":"m 351 986 q 394 951 380 985 q 439 789 408 918 q 453 729 448 751 q 446 720 454 724 q 428 714 439 715 q 406 714 417 713 q 386 718 395 715 q 376 727 378 722 q 359 827 368 766 q 343 925 350 889 q 289 860 313 900 q 242 783 264 820 q 194 728 220 747 q 138 719 179 718 q 107 732 104 720 q 210 848 147 774 q 304 954 273 921 q 351 986 336 986 z "},"_":{"ha":574,"x_min":82,"x_max":464,"o":"m 98 1 q 83 17 84 2 q 98 39 83 34 q 110 41 103 42 q 181 38 145 39 q 249 38 217 37 q 332 37 281 38 q 450 31 435 35 q 464 11 464 25 q 435 -5 464 -3 q 339 -4 406 -7 q 98 1 125 -1 z "},"`":{"ha":195,"x_min":31,"x_max":164,"o":"m 37 861 q 34 877 31 866 q 44 892 37 887 q 62 892 52 897 q 129 836 94 868 q 158 796 164 804 q 111 812 151 788 q 37 861 71 836 z "},"a":{"ha":393,"x_min":-26,"x_max":437,"o":"m 244 285 q 250 296 245 288 q 257 308 255 304 q 266 319 260 312 q 277 328 271 326 q 291 334 283 331 q 310 337 299 337 q 335 334 321 336 q 319 243 374 326 q 252 93 262 156 q 252 51 248 64 q 267 41 256 38 q 291 54 278 43 q 319 81 304 64 q 414 229 360 128 q 424 244 420 242 q 432 243 427 245 q 436 235 437 239 q 428 216 435 231 q 418 198 427 214 q 407 177 409 182 q 396 159 404 173 q 385 139 389 144 q 374 121 382 134 q 362 102 367 109 q 351 85 358 96 q 338 69 344 75 q 326 55 333 62 q 313 41 319 47 q 233 11 273 4 q 182 66 193 18 q 180 121 176 92 q 53 9 115 11 q 10 26 28 9 q -15 69 -8 43 q -24 123 -22 95 q -19 174 -26 152 q 9 244 -10 211 q 54 302 28 277 q 114 339 79 328 q 186 345 149 351 q 225 324 208 342 q 244 284 243 306 l 244 285 m 204 310 q 151 300 182 321 q 87 228 119 278 q 50 137 64 191 q 50 54 37 83 q 111 68 65 23 q 150 117 130 87 q 196 189 174 151 q 227 255 205 213 q 204 310 227 298 z "},"b":{"ha":407,"x_min":-52,"x_max":454,"o":"m 190 588 q 393 743 298 761 q 430 722 418 738 q 437 683 441 705 q 424 634 433 660 q 397 582 414 609 q 366 534 380 555 q 336 496 351 513 q 137 308 239 378 q 127 286 134 300 q 118 263 121 271 q 281 328 207 342 q 350 265 335 317 q 334 148 364 213 q 331 142 333 146 q 328 136 330 138 q 421 218 384 157 q 425 225 423 221 q 428 231 427 229 q 431 235 429 233 q 433 238 432 237 q 435 241 434 239 q 437 243 436 243 q 439 244 438 243 q 440 245 439 245 q 443 245 441 245 q 446 244 444 245 q 443 221 454 242 q 390 152 417 176 q 315 114 363 127 q 290 80 307 102 q 123 1 220 -1 q 79 16 92 1 q 69 49 66 30 q 101 89 74 76 q 184 110 128 102 q 204 112 190 111 q 227 115 219 114 q 270 222 261 165 q 258 293 279 279 q 131 243 223 322 q 90 193 109 224 q 52 96 66 136 q 18 17 29 31 q -26 3 7 2 q -40 9 -35 4 q -49 30 -46 15 q -42 71 -52 45 q 66 343 -3 186 q 190 588 134 500 m 211 95 q 198 94 207 95 q 184 92 189 93 q 97 58 116 85 q 102 34 87 43 q 151 43 119 24 q 211 95 182 62 m 153 345 q 333 525 237 408 q 411 657 391 594 q 395 715 429 715 q 393 715 393 715 q 315 649 362 715 q 220 489 268 583 q 153 345 192 433 z "},"c":{"ha":273,"x_min":-11,"x_max":323,"o":"m 212 310 q 163 298 193 322 q 104 233 133 273 q 72 163 83 203 q 66 85 60 123 q 103 33 73 47 q 145 36 119 26 q 192 72 170 46 q 252 155 220 105 q 296 232 283 205 q 314 244 304 248 q 307 214 323 241 q 208 61 247 104 q 54 11 132 -23 q 6 56 23 24 q -11 120 -11 87 q -4 182 -10 153 q 74 302 16 255 q 186 347 131 350 q 235 316 214 345 q 241 243 258 286 q 221 219 235 228 q 195 214 208 211 q 177 230 181 217 q 186 254 174 243 q 205 274 197 264 q 217 295 213 284 q 212 310 220 305 z "},"d":{"ha":401,"x_min":-14,"x_max":504,"o":"m 214 309 q 161 299 192 321 q 98 227 130 277 q 63 142 75 191 q 65 60 52 94 q 135 82 83 22 q 158 113 146 95 q 224 222 195 165 q 228 233 226 226 q 233 247 231 241 q 237 258 235 253 q 214 309 235 298 m 407 652 q 436 683 419 675 q 485 684 453 692 q 500 674 496 680 q 500 656 504 668 q 492 638 496 645 q 477 614 488 631 q 363 367 439 550 q 263 84 287 184 q 274 31 250 29 q 329 74 296 32 q 424 231 373 130 q 434 244 429 242 q 440 244 438 247 q 435 214 450 241 q 321 35 368 87 q 270 6 298 9 q 220 22 241 3 q 195 73 199 41 q 203 145 192 96 q 62 8 132 11 q 9 37 29 7 q -13 104 -11 67 q -9 173 -14 141 q 19 243 0 210 q 63 302 37 277 q 123 339 89 327 q 195 345 158 351 q 229 328 214 341 q 250 298 244 315 q 407 652 319 488 z "},"e":{"ha":259,"x_min":-20,"x_max":304,"o":"m 201 300 q 167 309 193 321 q 96 231 130 294 q 81 196 90 220 q 124 195 97 185 q 171 227 151 205 q 198 267 191 247 q 201 300 205 288 m 75 177 q 62 111 65 142 q 66 55 58 79 q 93 26 73 31 q 138 37 115 22 q 185 80 162 52 q 221 130 208 109 q 251 176 235 151 q 256 184 254 182 q 269 208 262 196 q 279 226 275 220 q 285 237 282 232 q 291 243 288 242 q 296 244 293 245 q 301 233 304 241 q 271 176 298 223 q 256 151 269 174 q 237 119 243 129 q 215 86 231 109 q 188 53 199 64 q 159 27 177 41 q 124 7 140 12 q 86 2 107 2 q 43 12 65 3 q -8 74 5 29 q -6 180 -20 118 q 42 283 7 239 q 126 342 77 327 q 187 342 157 352 q 224 312 217 332 q 219 260 232 290 q 179 207 207 229 q 75 177 117 157 z "},"f":{"ha":264,"x_min":-85,"x_max":423,"o":"m 119 284 q 176 329 151 307 q 251 395 216 361 q 323 471 286 429 q 381 551 361 512 q 398 617 402 589 q 372 643 395 642 q 267 560 330 644 l 259 549 q 119 284 207 475 m 101 245 q 71 174 91 222 q 171 148 112 141 q 279 220 239 156 q 286 231 282 224 q 291 241 289 237 q 296 249 294 245 q 301 254 298 253 q 306 254 303 256 q 311 251 310 252 q 310 240 313 249 q 297 214 307 231 q 164 132 252 139 q 65 161 100 127 q 100 71 90 129 q 103 -50 111 12 q 79 -166 96 -111 q 33 -251 62 -220 q -31 -271 3 -281 q -77 -193 -69 -260 q -68 -38 -85 -125 q -20 140 -52 50 q 82 383 20 253 q 206 583 143 513 q 267 636 236 615 q 323 663 298 656 q 369 666 349 669 q 402 652 390 663 q 418 624 415 641 q 400 540 423 587 q 335 447 378 493 q 259 370 293 401 q 187 309 224 338 q 101 245 131 264 m 56 134 q -22 -191 -18 -78 q -1 -248 -23 -251 q 4 -245 1 -247 q 54 -164 29 -233 q 84 -15 79 -96 q 56 134 88 66 z "},"g":{"ha":379,"x_min":-336,"x_max":391,"o":"m 291 309 q 327 341 310 328 q 356 358 345 353 q 375 362 368 362 q 388 358 383 362 l 389 357 q 388 353 391 355 q 376 345 382 349 q 357 326 371 341 q 326 287 342 310 q 305 254 315 271 q 287 218 296 238 q 272 183 277 197 q 257 143 266 169 q 245 107 249 118 q 233 65 242 96 q 221 24 224 34 q 182 -96 201 -43 q 138 -201 163 -148 q 84 -292 113 -254 q 21 -360 56 -330 q -57 -405 -14 -390 q -152 -420 -101 -420 q -245 -397 -205 -420 q -311 -319 -285 -375 q -324 -195 -336 -267 q -313 -155 -321 -172 q -296 -127 -305 -137 q -277 -113 -287 -118 q -260 -109 -268 -109 q -248 -113 -253 -109 q -245 -160 -228 -132 q -273 -199 -250 -170 q -280 -318 -309 -245 q -152 -393 -250 -393 q -87 -378 -119 -393 q -32 -341 -56 -363 q 16 -283 -8 -319 q 56 -215 39 -248 q 91 -135 73 -181 q 120 -55 109 -89 q 145 24 132 -21 q 157 60 149 36 q 73 9 114 10 q 30 26 47 9 q 5 69 12 43 q -4 123 -2 95 q 1 174 -6 152 q 28 244 9 211 q 73 302 47 277 q 134 339 99 328 q 205 345 168 351 q 248 321 230 342 q 264 276 266 300 q 291 309 278 296 m 224 310 q 170 300 201 321 q 107 228 139 278 q 70 137 83 191 q 70 54 56 83 q 130 68 85 23 q 170 117 149 87 q 192 150 184 136 q 247 252 216 205 q 224 310 247 298 z "},"h":{"ha":391,"x_min":-52,"x_max":441,"o":"m 190 588 q 393 743 298 761 q 430 722 418 738 q 437 683 441 705 q 424 634 433 660 q 397 582 414 609 q 366 534 380 555 q 336 496 351 513 q 137 308 239 378 q 113 252 121 270 q 206 322 164 307 q 278 323 248 337 q 310 296 298 314 q 320 250 322 278 q 298 191 319 221 q 259 122 275 155 q 240 64 244 89 q 250 33 237 40 q 315 74 271 24 q 403 210 359 125 q 406 216 404 212 q 409 222 408 220 q 412 228 410 224 q 415 233 414 232 q 418 237 416 235 q 420 241 420 240 q 423 243 421 241 q 426 244 425 245 q 429 244 427 243 q 435 235 436 239 q 422 208 434 231 q 420 203 421 205 q 397 160 410 183 q 366 108 385 138 q 325 53 347 78 q 283 17 303 28 q 207 13 244 -7 q 171 84 170 33 q 191 153 171 114 q 231 227 211 193 q 252 277 251 261 q 215 298 254 311 q 124 235 172 285 q 87 189 102 212 q 52 96 78 165 q 18 17 29 31 q -26 3 7 2 q -40 9 -35 4 q -49 30 -46 15 q -42 71 -52 45 q 66 343 -3 186 q 190 588 134 500 m 153 345 q 333 525 237 408 q 411 657 391 594 q 395 715 429 715 q 393 715 393 715 q 315 649 362 715 q 220 489 268 583 q 153 345 192 433 z "},"i":{"ha":180,"x_min":-29,"x_max":225,"o":"m 167 399 q 140 385 155 388 q 114 389 125 382 q 108 395 109 392 q 100 421 99 405 q 110 451 100 437 q 116 459 114 457 q 143 473 127 471 q 170 469 159 476 q 175 463 173 467 q 183 437 184 453 q 174 407 183 420 q 167 399 172 405 m 43 275 q 59 302 52 292 q 84 321 66 313 q 125 328 101 330 q 139 322 134 326 q 143 309 144 317 q 141 294 142 301 q 134 276 140 287 q 126 259 129 264 q 117 243 123 253 q 41 83 63 146 q 47 35 26 39 q 97 65 68 31 q 193 214 128 100 q 199 224 196 218 q 203 232 202 229 q 207 237 205 234 q 210 241 209 241 q 212 244 210 242 q 216 245 214 245 q 220 244 217 244 q 224 236 225 241 q 215 216 223 231 q 97 35 136 70 q 21 12 57 0 q -27 73 -15 24 q -28 90 -28 83 q -25 112 -29 98 q -19 136 -22 126 q -10 161 -16 146 q 1 187 -3 177 q 13 213 5 197 q 24 236 20 228 q 35 257 28 245 q 43 275 41 270 z "},"j":{"ha":161,"x_min":-558,"x_max":183,"o":"m 166 397 q 140 382 155 385 q 113 387 124 380 q 107 393 109 390 q 99 419 98 403 q 109 449 99 435 q 115 456 110 451 q 142 471 127 468 q 168 467 157 474 q 174 461 173 464 q 182 435 183 451 q 172 405 182 418 q 166 397 168 399 m 47 294 q 95 331 67 319 q 133 339 122 344 q 146 330 143 334 q 144 319 149 325 q 134 307 140 313 q 119 292 128 301 q 104 275 109 283 q 83 242 93 258 q 64 205 73 227 q 50 172 55 184 q 35 131 44 159 q 23 95 26 103 q 10 52 20 87 q -1 12 0 18 q -49 -131 -26 -71 q -105 -251 -72 -191 q -174 -349 -138 -311 q -262 -409 -211 -386 q -374 -432 -313 -432 q -468 -410 -428 -432 q -533 -332 -507 -387 q -547 -208 -558 -279 q -535 -167 -543 -184 q -518 -140 -528 -149 q -500 -125 -509 -130 q -483 -121 -490 -121 q -471 -125 -475 -121 q -467 -172 -450 -144 q -495 -211 -472 -181 q -503 -330 -531 -258 q -374 -405 -473 -405 q -310 -390 -341 -405 q -255 -353 -279 -376 q -207 -296 -231 -331 q -166 -227 -183 -260 q -131 -147 -149 -193 q -102 -67 -113 -101 q -77 12 -91 -33 q 47 294 -15 217 z "},"k":{"ha":366,"x_min":-47,"x_max":443,"o":"m 196 606 q 298 720 250 687 q 394 743 347 752 q 431 722 420 738 q 440 684 443 706 q 428 636 437 661 q 402 584 418 611 q 372 537 387 557 q 343 499 357 516 q 131 298 237 372 q 96 215 100 226 q 129 229 110 224 q 168 245 151 233 q 197 273 185 258 q 222 303 210 288 q 254 330 235 318 q 297 346 273 342 q 354 321 333 351 q 366 273 374 292 q 351 256 361 262 q 334 252 341 251 q 323 254 327 253 q 317 262 317 258 q 321 268 317 265 q 330 275 325 270 q 338 287 336 280 q 336 314 345 305 q 292 294 321 325 q 259 261 270 271 q 227 239 248 252 q 175 216 205 226 q 190 205 184 210 q 203 191 196 200 q 214 172 211 182 q 216 148 217 162 q 209 119 216 134 q 194 54 194 83 q 208 22 193 25 q 283 70 235 16 q 381 218 332 124 q 389 232 387 228 q 396 240 392 237 q 406 244 401 244 q 399 211 417 244 q 383 183 398 210 q 361 144 368 156 q 338 107 355 133 q 310 67 321 82 q 281 36 298 52 q 248 9 264 19 q 207 -3 229 -2 q 168 4 185 -4 q 138 32 150 13 q 127 75 127 50 q 140 131 127 100 q 154 182 153 162 q 146 209 155 208 q 74 160 107 213 q 54 96 61 125 q 24 18 38 35 q -24 3 11 2 q -38 9 -33 4 q -46 30 -44 15 q -38 71 -47 45 q -15 141 -37 73 q 16 230 8 208 q 48 316 24 252 q 92 418 73 380 q 138 509 110 456 q 196 606 166 562 m 149 337 q 334 525 240 405 q 411 661 392 599 q 395 715 428 715 q 317 650 364 716 q 221 489 270 584 q 149 337 185 418 z "},"l":{"ha":224,"x_min":-62,"x_max":444,"o":"m 191 599 q 258 679 225 648 q 316 723 291 711 q 363 736 341 735 q 399 730 385 737 q 422 712 412 724 q 418 619 444 684 q 330 487 392 553 q 114 284 210 356 q 75 188 89 231 q 52 89 56 133 q 62 28 49 44 q 79 19 69 20 q 99 24 88 18 q 121 41 110 31 q 145 68 133 52 q 170 100 158 83 q 194 136 182 117 q 216 173 206 156 q 235 208 226 191 q 240 217 237 212 q 244 225 242 222 q 247 231 245 228 q 250 237 249 235 q 253 241 251 239 q 255 243 254 243 q 258 245 256 244 q 261 245 259 245 q 264 244 262 245 q 268 234 269 239 q 256 207 267 229 q 225 149 240 175 q 188 89 210 122 q 143 34 165 55 q 96 0 122 12 q 46 -7 70 -13 q 2 212 -62 20 q 191 599 75 433 m 137 332 q 182 372 149 343 q 247 433 216 401 q 328 522 277 465 q 396 629 374 576 q 402 695 418 682 q 321 650 376 716 q 213 481 266 585 q 189 434 204 465 q 160 378 173 403 q 137 332 148 353 z "},"m":{"ha":590,"x_min":0,"x_max":640,"o":"m 46 236 q 32 215 36 218 q 20 217 28 212 q 33 250 16 220 q 36 256 35 254 q 46 271 43 267 q 58 287 49 276 q 77 303 66 298 q 99 311 87 309 q 154 299 138 316 q 168 248 171 281 q 246 330 220 309 q 298 342 272 350 q 353 298 343 330 q 473 343 415 360 q 530 293 523 328 q 503 210 538 257 q 447 102 465 157 q 450 35 430 46 q 514 80 469 25 q 604 216 559 134 q 609 224 606 220 q 613 231 612 229 q 615 236 614 233 q 618 240 617 239 q 621 242 619 241 q 624 244 623 243 q 628 244 626 244 q 625 218 640 244 q 623 212 624 215 q 614 196 622 210 q 602 176 606 182 q 588 153 597 169 q 572 126 578 136 q 555 100 566 116 q 536 75 545 85 q 518 52 528 64 q 498 31 507 39 q 480 16 490 23 q 461 7 470 9 q 390 11 416 -8 q 363 79 363 29 q 384 155 363 109 q 426 240 405 200 q 447 297 446 281 q 431 321 448 324 q 363 267 405 317 q 345 241 353 254 q 328 209 340 230 q 281 106 300 165 q 256 39 261 47 q 233 29 248 30 q 204 42 218 28 q 191 75 190 55 q 232 197 194 114 q 272 296 271 280 q 252 311 275 326 q 168 211 219 288 l 141 168 q 140 167 141 167 l 140 165 q 118 120 132 148 q 97 75 104 92 q 66 15 76 27 q 29 -1 50 -5 q 7 9 15 2 q 1 34 0 16 q 14 83 1 53 q 39 139 18 94 q 70 210 60 185 q 77 226 72 216 q 85 244 82 237 q 92 261 89 252 q 93 274 94 269 q 85 279 92 279 q 46 236 72 280 z "},"n":{"ha":431,"x_min":0,"x_max":475,"o":"m 46 236 q 32 215 36 218 q 20 217 28 212 q 33 250 16 220 q 36 256 35 254 q 46 271 43 267 q 58 287 49 276 q 77 303 66 298 q 99 311 87 309 q 158 295 142 317 q 165 234 174 274 q 326 343 271 359 q 382 293 375 328 q 355 210 390 258 q 299 107 317 157 q 298 41 281 56 q 327 43 309 32 q 365 84 344 55 q 405 144 386 113 q 446 215 424 175 q 450 223 448 218 q 453 230 452 228 q 456 236 454 233 q 459 240 458 239 q 463 243 460 241 q 466 244 465 245 q 469 244 467 243 q 474 234 475 241 q 463 210 473 227 q 441 169 460 205 q 414 119 422 133 q 388 79 405 105 q 355 38 371 53 q 323 14 339 22 q 270 3 295 1 q 228 26 245 5 q 210 81 210 47 q 232 156 210 111 q 276 241 254 201 q 299 298 298 281 q 260 301 301 332 q 165 198 215 267 q 128 138 140 163 q 121 125 125 131 q 97 75 106 96 q 66 15 76 27 q 29 -1 50 -5 q 7 9 15 2 q 1 34 0 16 q 14 83 1 53 q 39 139 18 94 q 70 210 60 185 q 77 226 72 216 q 85 244 82 237 q 92 261 89 252 q 93 274 94 269 q 85 279 92 279 q 46 236 72 280 z "},"o":{"ha":328,"x_min":-27,"x_max":379,"o":"m 184 176 q 209 171 199 180 q 214 146 219 163 q 206 125 212 142 q 237 209 232 169 q 220 270 241 248 q 160 275 195 289 q 98 222 126 260 q 64 151 74 189 q 58 85 54 113 q 76 45 62 56 q 107 39 89 34 q 143 55 126 43 q 176 84 159 66 q 159 109 163 92 q 157 138 155 125 q 184 176 161 171 m 158 330 q 239 294 205 330 q 261 207 267 262 q 219 99 256 151 q 265 118 239 96 q 311 168 292 140 q 329 194 321 182 q 341 214 336 206 q 349 227 345 221 q 353 236 352 233 q 356 241 355 239 q 359 244 357 243 q 363 244 360 244 q 356 205 378 244 q 332 165 355 203 q 274 101 311 132 q 199 75 237 70 q 151 30 175 47 q 104 7 126 13 q 63 1 82 1 q 27 9 44 2 q -14 62 -1 22 q -17 157 -27 102 q 29 256 -7 212 q 90 310 56 289 q 158 330 123 330 z "},"p":{"ha":390,"x_min":-551,"x_max":439,"o":"m 92 253 q 253 321 177 336 q 322 261 307 311 q 307 146 338 211 q 304 140 306 144 q 301 134 302 136 q 308 137 303 135 q 314 139 312 138 q 415 237 374 161 q 422 245 417 241 q 429 248 427 248 q 432 231 439 245 q 314 121 393 153 q 288 112 306 117 q 263 79 273 91 q 95 -5 186 -11 q 57 8 71 -3 q 45 40 43 19 q 81 85 47 62 q 170 113 114 109 q 203 116 192 115 q 240 216 234 165 q 227 281 247 268 q 191 290 213 294 q 147 270 169 285 q 103 234 125 256 q 58 171 79 210 q 31 110 37 132 q 31 107 31 108 q 19 67 26 94 q 6 24 11 39 q -33 -96 -14 -43 q -77 -201 -52 -148 q -131 -292 -102 -254 q -194 -360 -159 -330 q -272 -405 -229 -390 q -367 -420 -316 -420 q -461 -397 -421 -420 q -526 -319 -500 -375 q -540 -195 -551 -267 q -529 -155 -536 -172 q -512 -127 -521 -137 q -493 -113 -503 -118 q -476 -109 -484 -109 q -464 -113 -469 -109 q -452 -129 -455 -121 q -455 -149 -450 -137 q -465 -168 -460 -160 q -484 -193 -470 -176 q -488 -199 -486 -197 q -496 -318 -524 -246 q -368 -393 -466 -393 q -303 -378 -334 -393 q -248 -341 -272 -363 q -200 -283 -224 -319 q -159 -215 -176 -248 q -124 -135 -142 -181 q -95 -55 -106 -89 q -71 24 -84 -21 q -6 191 -43 113 q 75 309 32 268 q 135 352 107 338 q 172 358 163 366 l 173 357 q 172 353 176 355 q 161 345 166 349 q 141 326 155 341 q 111 287 127 310 q 85 245 94 264 q 88 249 85 247 q 92 253 90 252 m 189 97 q 172 96 177 96 q 80 59 111 93 q 71 27 62 39 q 77 24 73 25 q 129 38 96 16 q 189 97 161 60 z "},"q":{"ha":380,"x_min":-30,"x_max":425,"o":"m 244 297 q 250 310 246 302 q 256 321 254 318 q 260 329 257 323 q 264 337 263 335 q 269 342 266 338 q 274 346 271 345 q 279 347 276 346 q 287 347 283 348 q 295 346 290 347 q 305 343 299 345 q 323 332 318 339 q 328 315 329 326 q 322 293 326 304 q 311 266 319 282 q 309 261 310 263 q 307 257 308 259 q 222 48 264 161 q 227 50 223 48 q 234 53 231 52 q 400 228 328 91 q 409 243 407 241 q 416 244 411 245 q 420 243 418 244 q 423 236 422 241 q 418 220 425 231 q 408 202 417 219 q 393 177 399 185 q 376 150 388 168 q 352 119 363 132 q 325 91 340 106 q 291 63 309 75 q 252 41 273 51 q 245 38 248 39 q 238 34 241 36 q 232 31 234 33 q 230 29 230 30 q 242 -11 231 28 q 248 -242 264 -71 q 157 -443 231 -424 q 70 -397 99 -457 q 59 -239 40 -336 q 157 92 88 -90 q 49 9 102 12 q 6 26 24 9 q -19 69 -12 43 q -28 123 -26 95 q -23 174 -30 152 q 5 244 -14 211 q 50 302 24 277 q 110 339 75 328 q 182 345 144 351 q 220 325 203 342 q 239 287 237 308 q 242 292 240 288 q 244 297 243 295 m 200 310 q 146 300 178 321 q 83 228 115 278 q 46 137 60 191 q 46 54 33 83 q 106 68 61 23 q 146 117 125 87 q 208 216 179 164 q 214 232 209 218 q 223 252 220 245 q 200 310 223 298 m 211 16 q 180 -71 185 -54 q 120 -378 104 -290 q 155 -413 127 -422 q 222 -265 205 -398 q 233 -165 230 -203 q 232 -78 236 -127 q 213 9 228 -30 q 212 13 213 11 q 211 16 212 16 z "},"r":{"ha":261,"x_min":21,"x_max":309,"o":"m 64 323 q 50 346 54 330 q 50 378 46 362 q 61 409 53 395 q 82 429 69 424 q 111 427 96 433 q 124 410 121 422 q 123 387 126 398 q 115 366 121 376 q 130 303 92 321 q 172 176 214 262 q 157 147 163 159 q 145 120 152 136 q 133 94 138 104 q 124 72 129 84 q 118 52 120 60 q 116 37 117 44 q 117 27 115 31 q 124 22 119 23 q 197 95 144 19 q 277 221 250 172 q 283 233 281 230 q 288 241 285 237 q 293 247 291 246 q 298 248 296 248 q 298 222 309 243 q 286 201 297 220 q 269 171 275 181 q 250 138 263 160 q 227 101 237 115 q 204 68 218 87 q 178 37 190 48 q 154 14 167 25 q 131 -1 142 3 q 109 -1 119 -4 q 60 31 77 8 q 47 87 43 54 q 51 105 48 96 q 58 125 53 113 q 66 143 64 138 q 78 165 68 148 q 88 184 87 182 q 108 227 102 210 q 116 261 115 243 q 109 291 118 278 q 79 313 100 303 q 44 235 50 245 q 26 224 35 219 q 29 244 21 228 q 64 323 53 290 z "},"s":{"ha":273,"x_min":-28,"x_max":323,"o":"m 189 408 q 203 399 200 408 q 188 379 205 389 q 175 368 184 377 q 154 336 167 359 q 134 287 140 313 q 132 244 128 262 q 145 207 136 227 q 166 171 155 186 q 185 134 176 155 q 195 91 194 112 q 195 84 195 90 q 196 77 196 79 q 208 90 199 80 q 302 239 254 144 q 314 244 307 247 q 318 231 323 241 q 264 138 300 193 q 204 57 229 83 q 188 40 195 47 q 172 24 181 33 q 154 9 162 15 q 135 -4 145 3 q 114 -15 124 -11 q 91 -21 103 -18 q 66 -23 79 -23 q 39 -19 53 -22 q -28 54 -28 -3 q -20 84 -28 69 q -2 105 -12 98 q 12 109 7 113 q 14 99 16 104 q 6 82 11 94 q 3 60 1 70 q 35 34 7 38 q 84 42 64 29 q 114 91 111 56 q 96 154 117 125 q 68 224 73 184 q 73 282 64 263 q 68 276 75 286 q 50 242 64 269 q 29 205 35 214 q 28 203 28 204 q 12 187 18 186 q 8 189 10 187 q 17 218 3 192 q 40 264 22 229 q 73 323 57 300 q 111 369 88 347 q 148 394 124 382 q 180 408 172 406 q 189 408 183 408 z "},"t":{"ha":193,"x_min":-252,"x_max":632,"o":"m -191 486 q -204 463 -193 471 q -227 456 -215 454 q -243 468 -238 458 q -245 502 -252 484 q -220 536 -239 521 q -143 573 -184 564 q -31 575 -103 581 q 142 539 14 572 q 199 652 174 606 q 228 683 211 675 q 277 684 245 692 q 292 674 288 680 q 292 656 296 668 q 283 638 288 645 q 269 614 279 631 q 222 519 254 589 q 473 513 364 490 q 520 527 501 518 q 546 547 538 536 q 555 566 553 557 q 556 582 557 574 q 575 613 555 598 q 614 620 595 628 q 629 603 627 614 q 628 581 632 591 q 616 558 624 570 q 558 516 597 531 q 488 496 519 500 q 214 503 360 474 q 119 277 165 398 q 55 84 72 157 q 66 31 42 29 q 121 74 88 32 q 215 231 163 127 q 232 244 223 247 q 227 214 241 241 q 113 35 159 87 q 61 6 90 9 q 12 22 33 3 q -14 73 -9 41 q 26 250 -19 118 q 134 522 71 382 q 103 529 125 524 q 74 537 82 535 q 44 544 65 539 q 16 550 24 549 q -11 555 9 551 q -38 558 -31 558 q -65 559 -45 557 q -92 558 -85 561 q -164 537 -142 553 q -191 486 -186 521 z "},"u":{"ha":399,"x_min":-31,"x_max":446,"o":"m 260 298 q 334 322 291 351 q 330 253 363 302 q 276 149 298 203 q 250 72 254 95 q 265 22 242 19 q 317 67 286 26 q 419 227 354 114 q 439 244 433 250 q 431 210 446 238 q 313 28 356 76 q 259 -1 290 2 q 205 15 229 -4 q 174 65 181 33 q 173 101 171 80 q 85 4 117 20 q 8 0 43 -18 q -29 68 -26 18 q -14 145 -31 98 q 22 232 2 193 q 78 320 58 301 q 126 325 97 339 q 142 301 142 317 q 133 264 143 286 q 100 208 123 243 q 49 94 65 153 q 54 26 33 36 q 108 55 76 18 q 195 180 140 92 q 260 298 212 218 z "},"v":{"ha":357,"x_min":5,"x_max":405,"o":"m 18 227 q 56 294 45 279 q 120 305 87 332 q 129 189 159 274 q 114 148 124 175 q 99 107 104 121 q 88 75 94 93 q 79 44 82 56 q 77 25 77 33 q 120 34 77 -3 q 208 135 168 75 q 232 182 225 163 q 238 220 233 195 q 254 274 244 245 q 279 318 263 302 q 312 323 294 334 q 319 307 319 319 q 316 282 319 294 q 309 262 313 270 q 270 191 300 242 q 261 155 259 172 q 277 135 264 138 q 330 163 297 130 q 381 235 362 197 q 396 244 387 247 q 396 226 405 241 q 337 147 374 184 q 272 117 300 111 q 251 128 260 119 q 241 147 242 137 q 205 97 237 136 q 147 32 174 58 q 106 2 125 12 q 74 -7 87 -7 q 50 0 60 -7 q 32 15 39 7 q 21 35 26 24 q 21 89 14 52 q 49 196 28 126 q 60 253 64 247 q 47 240 57 258 l 40 228 q 23 198 30 206 q 9 193 16 190 q 7 201 5 196 q 18 227 9 207 z "},"w":{"ha":469,"x_min":-39,"x_max":517,"o":"m 433 325 q 443 307 441 319 q 442 284 444 294 q 436 267 439 274 q 414 227 431 254 q 393 194 397 200 q 380 158 382 175 q 389 136 379 140 q 435 160 401 131 q 493 234 469 189 q 507 244 500 247 q 507 221 517 241 q 438 139 480 170 q 370 123 396 108 q 353 140 359 129 q 342 123 350 136 q 329 102 334 110 q 200 5 258 -19 q 154 54 166 19 q 157 136 142 89 q 154 132 156 135 q 151 127 152 129 q 142 111 151 126 q 130 90 133 96 q 116 69 126 84 q 100 46 106 54 q 83 28 94 39 q 64 11 73 16 q 44 1 55 6 q 22 -4 33 -4 q 0 1 11 -3 q -31 42 -24 12 q -32 109 -39 72 q -14 178 -24 146 q 7 232 -4 210 q 28 274 20 259 q 46 304 35 288 q 67 327 57 321 q 89 333 77 334 q 124 318 115 331 q 126 278 134 305 q 93 208 119 252 q 35 86 58 148 q 31 22 13 24 q 62 38 43 21 q 102 88 80 55 q 140 151 123 121 q 180 220 157 180 q 186 235 183 229 q 261 333 233 336 q 280 330 273 332 q 295 320 288 328 q 302 300 302 313 q 294 264 302 288 q 266 208 286 240 q 215 94 233 151 q 212 27 197 37 q 241 27 225 18 q 275 61 256 35 q 309 109 294 86 q 343 169 323 132 q 361 258 338 208 q 397 315 376 292 q 433 325 418 338 z "},"x":{"ha":315,"x_min":-36,"x_max":360,"o":"m 266 324 q 295 316 280 324 q 309 296 309 308 q 292 273 309 280 q 267 279 274 265 q 212 280 248 314 q 154 182 175 247 q 146 155 149 168 q 160 36 125 63 q 200 37 176 23 q 248 83 223 50 q 292 149 272 115 q 330 217 313 182 q 348 244 342 242 q 355 244 351 246 q 359 240 358 243 q 358 232 360 238 q 353 221 356 227 q 345 205 351 216 q 337 191 342 201 q 326 170 330 178 q 312 145 321 162 q 295 118 302 129 q 277 91 288 107 q 257 65 267 75 q 237 42 248 54 q 214 24 225 31 q 192 13 203 18 q 169 10 180 9 q 146 18 157 12 q 113 84 115 35 q 34 3 79 21 q -17 3 4 -9 q -19 29 -36 13 l -13 34 q 56 111 20 57 q 111 218 93 164 q 111 294 129 273 q 52 246 92 317 q 51 245 51 245 q 50 244 50 245 q 35 220 39 224 q 25 218 31 216 q 24 235 16 222 q 36 259 26 239 q 52 287 47 279 q 68 308 58 295 q 90 324 79 320 q 114 325 101 328 q 145 301 132 320 q 159 249 158 281 q 205 306 183 288 q 266 324 229 324 z "},"y":{"ha":363,"x_min":-336,"x_max":360,"o":"m 340 328 q 357 327 353 329 q 357 320 360 325 q 346 307 353 315 q 342 303 344 304 q 339 299 341 302 q 336 295 337 297 q 332 291 334 294 q 329 287 330 289 q 326 282 327 284 q 305 249 315 266 q 286 213 295 233 q 271 178 277 193 q 257 139 265 164 q 245 102 249 114 q 233 60 242 90 q 221 20 224 30 q 182 -100 201 -48 q 138 -206 163 -153 q 84 -297 113 -259 q 21 -365 56 -334 q -57 -410 -14 -395 q -152 -425 -101 -425 q -245 -402 -205 -425 q -311 -324 -285 -380 q -324 -200 -336 -272 q -313 -159 -321 -177 q -296 -132 -305 -142 q -278 -118 -288 -123 q -261 -114 -269 -113 q -249 -118 -254 -114 q -245 -165 -229 -136 q -273 -203 -251 -174 q -281 -323 -309 -251 q -153 -397 -251 -397 q -88 -383 -119 -397 q -33 -346 -57 -368 q 15 -288 -9 -323 q 56 -219 39 -253 q 91 -140 73 -186 q 120 -60 109 -94 q 144 20 131 -26 q 172 101 160 70 q 92 16 122 35 q 38 0 64 1 q -9 18 12 -1 q -31 71 -29 37 q 8 212 -33 125 q 55 295 33 266 q 98 319 77 323 q 130 307 123 315 q 128 271 137 298 q 86 188 119 243 q 42 85 53 132 q 52 28 32 38 q 120 73 72 20 q 210 195 168 127 q 340 328 271 319 z "},"z":{"ha":365,"x_min":-186,"x_max":416,"o":"m 43 231 q 24 198 35 219 q 9 177 13 177 q 4 182 6 178 q 25 235 -2 193 q 43 261 36 252 q 71 291 51 271 q 120 326 92 312 q 184 346 149 340 q 263 341 229 353 q 307 302 296 330 q 256 185 332 231 q 212 162 237 173 q 174 148 188 152 l 159 143 q 176 140 165 142 q 214 125 187 138 q 259 92 241 113 q 326 149 298 121 q 379 218 353 178 q 384 226 381 222 q 388 233 387 231 q 391 237 389 235 q 394 241 393 240 q 396 243 395 241 q 398 244 398 245 q 401 244 399 243 q 404 244 403 245 q 393 207 416 242 l 385 195 q 271 77 334 123 q 295 -56 305 26 q 222 -219 285 -134 q 83 -335 159 -305 q -16 -360 30 -356 q -93 -353 -62 -364 q -143 -326 -123 -342 q -169 -288 -162 -309 q -152 -180 -186 -238 q -46 -75 -117 -121 q 90 -2 7 -41 q 218 64 174 37 q 151 123 199 110 q 131 125 144 127 q 113 122 117 123 q 94 117 108 121 q 75 111 81 113 q 49 107 53 106 q 41 113 45 108 q 40 125 39 119 q 48 138 41 131 q 63 149 56 144 q 81 159 70 154 q 98 167 92 164 q 113 174 105 170 q 117 175 115 174 q 157 193 142 185 q 193 214 172 201 q 224 245 214 228 q 236 282 235 262 q 221 316 237 304 q 176 323 205 328 q 43 231 97 313 m 224 46 q 93 -24 177 17 q -31 -90 8 -66 q -124 -184 -95 -132 q -146 -265 -153 -237 q -96 -306 -136 -301 q -8 -292 -57 -311 q 99 -222 44 -273 q 187 -121 153 -172 q 225 -41 220 -71 q 224 46 233 11 z "},"{":{"ha":545,"x_min":-16,"x_max":585,"o":"m 302 -203 q 310 -212 309 -203 q 302 -221 310 -220 q 117 -228 163 -229 q 2 -178 -15 -224 q 32 -101 14 -145 q 57 -36 49 -58 q 76 15 66 -14 q 88 59 85 44 q 92 94 91 75 q 88 128 93 113 q 73 157 83 142 q 50 182 64 171 q 30 202 36 194 q 27 223 24 210 q 38 242 31 237 q 69 253 45 247 q 115 268 94 259 q 154 291 137 277 q 185 321 171 304 q 219 375 199 337 q 256 449 239 414 q 306 557 272 484 q 314 576 309 564 q 322 592 320 589 q 328 605 323 596 q 334 616 332 614 q 340 625 336 618 q 348 632 345 631 q 357 637 352 633 q 369 643 362 641 q 382 646 375 644 q 400 650 390 648 q 509 650 433 657 q 578 621 585 642 q 561 615 575 614 q 522 618 546 617 q 474 621 497 620 q 430 613 450 622 q 402 587 410 605 q 182 231 275 275 q 136 216 159 220 q 102 213 113 213 q 90 210 90 212 q 94 200 88 205 q 109 192 100 196 q 132 176 119 189 q 153 145 144 163 q 83 -192 200 47 q 132 -198 81 -195 q 239 -201 182 -200 q 302 -203 297 -202 z "},"|":{"ha":406,"x_min":10,"x_max":393,"o":"m 54 -253 q 30 -270 48 -269 q 11 -258 14 -271 q 13 -245 10 -253 q 146 172 29 -200 q 275 580 262 545 q 300 663 286 611 q 330 741 318 723 q 366 744 341 758 q 392 695 393 728 q 357 585 390 663 q 297 424 345 553 q 202 161 250 294 q 106 -107 154 28 q 54 -253 58 -241 z "},"}":{"ha":598,"x_min":-66,"x_max":534,"o":"m 217 639 q 210 648 210 640 q 218 657 210 656 q 403 664 356 665 q 517 614 534 659 q 488 537 505 581 q 462 472 471 494 q 444 421 454 450 q 431 377 434 392 q 428 342 429 361 q 432 308 427 323 q 446 279 437 294 q 469 254 455 265 q 489 234 484 242 q 492 213 495 227 q 482 194 489 199 q 450 183 475 189 q 404 168 426 177 q 366 145 382 159 q 335 115 349 132 q 300 61 321 99 q 264 -13 280 22 q 214 -121 248 -47 q 205 -140 211 -127 q 198 -156 199 -153 q 192 -169 196 -160 q 185 -180 188 -178 q 179 -189 183 -182 q 171 -196 175 -195 q 162 -201 168 -197 q 151 -207 157 -205 q 137 -210 144 -208 q 119 -214 130 -212 q 11 -214 87 -221 q -59 -184 -66 -206 q -41 -179 -56 -178 q -2 -182 -26 -181 q 46 -185 22 -184 q 90 -177 69 -186 q 117 -151 110 -169 q 337 205 244 161 q 383 220 360 216 q 417 223 406 223 q 429 227 429 224 q 425 236 431 231 q 410 244 419 240 q 388 260 400 248 q 366 291 375 273 q 436 628 319 389 q 388 634 438 631 q 280 637 338 636 q 217 639 222 638 z "},"~":{"ha":433,"x_min":28,"x_max":401,"o":"m 28 871 q 68 939 35 907 q 150 971 102 971 q 228 950 176 970 q 304 928 280 929 l 313 928 q 399 972 366 928 q 401 961 401 967 q 370 901 401 932 q 300 869 338 869 q 219 890 271 869 q 138 911 167 910 q 28 871 76 911 z "},"¢":{"ha":579,"x_min":56,"x_max":471,"o":"m 420 500 q 364 507 404 517 q 300 272 345 440 q 237 43 254 104 q 336 72 293 38 q 361 77 353 85 q 351 53 370 68 q 229 11 296 7 q 204 -72 213 -47 q 191 -82 201 -80 q 173 -79 181 -85 q 170 -62 165 -73 q 193 17 177 -43 q 135 44 165 24 q 75 125 93 71 q 60 231 56 178 q 81 328 64 283 q 190 489 117 425 q 338 564 263 553 q 351 610 345 591 q 359 633 354 618 q 378 682 371 672 q 403 685 385 692 q 410 681 408 683 q 414 674 413 678 q 414 666 414 670 q 411 655 414 663 q 407 642 409 648 q 400 623 404 635 q 392 600 395 611 q 387 583 391 595 q 380 564 382 570 q 385 564 382 564 q 389 563 387 563 q 450 518 429 555 q 464 422 471 480 q 454 396 462 407 q 439 386 447 386 q 436 419 427 386 q 420 500 452 472 m 317 487 q 208 392 252 451 q 163 315 182 358 q 135 226 144 271 q 135 139 126 181 q 171 70 143 96 q 202 51 182 59 q 317 487 218 107 z "},"£":{"ha":614,"x_min":66,"x_max":734,"o":"m 667 589 q 639 637 667 614 q 567 656 612 659 q 523 648 543 654 q 484 628 502 641 q 452 601 467 614 q 423 565 437 587 q 399 525 409 543 q 377 477 389 507 q 357 429 365 448 q 338 377 350 410 q 328 350 331 359 q 342 350 332 350 q 356 349 352 349 q 384 349 367 349 q 407 349 401 349 q 451 347 446 350 q 445 322 456 343 q 415 302 435 305 q 340 298 395 298 q 317 298 326 298 l 309 298 l 222 45 q 323 43 262 41 q 440 41 385 45 q 496 20 496 36 q 472 -9 496 -4 q 340 -13 448 -14 q 277 -13 300 -13 q 215 -15 277 -13 q 133 -17 153 -18 q 118 -17 127 -17 q 105 -16 110 -16 q 95 -16 101 -16 q 85 -15 88 -16 q 78 -14 83 -15 q 73 -11 73 -13 q 69 -7 72 -9 q 67 -1 66 -4 q 67 7 68 3 q 80 31 69 24 q 106 39 90 39 q 144 37 122 39 q 222 298 174 164 q 113 299 169 297 q 106 318 101 300 q 128 346 112 339 l 137 347 q 241 349 162 347 q 260 397 249 370 q 349 561 305 500 q 448 652 392 621 q 581 684 504 682 q 672 664 630 684 q 722 623 715 644 q 706 576 734 588 q 673 578 687 568 q 667 589 667 583 z "},"¥":{"ha":468,"x_min":64,"x_max":501,"o":"m 90 243 q 80 254 83 243 q 82 276 78 265 q 96 287 86 287 q 184 288 151 287 q 158 354 172 313 q 135 429 144 395 q 107 527 125 462 q 81 623 90 592 q 99 641 77 634 q 168 644 132 652 q 191 627 190 638 q 244 310 216 406 q 341 473 265 337 q 433 628 418 610 q 476 643 448 645 q 501 626 501 642 q 500 620 501 623 q 397 457 473 585 q 292 288 321 330 q 373 285 360 288 q 389 262 393 280 q 369 243 385 246 q 312 239 354 239 q 307 239 309 239 q 302 239 305 239 q 297 239 300 239 l 269 239 l 251 163 l 253 163 q 283 162 269 162 q 311 163 298 163 q 334 163 323 163 q 353 161 345 163 q 367 157 361 159 q 374 149 372 154 q 375 137 376 144 q 356 118 371 121 q 301 115 342 115 q 283 115 289 115 l 239 115 l 218 24 q 185 -3 212 1 q 151 9 160 -6 q 149 24 147 15 l 170 115 q 76 118 99 117 q 66 129 68 118 q 68 151 64 140 q 81 161 72 161 q 126 162 92 161 q 180 163 160 163 l 198 240 q 90 243 115 241 z "},"¨":{"ha":250,"x_min":-9,"x_max":297,"o":"m 195 286 q 150 275 177 298 q 96 214 123 252 q 66 150 77 186 q 61 78 55 113 q 95 31 67 43 q 133 33 109 24 q 176 66 156 43 q 231 142 202 97 q 273 214 259 187 q 290 225 280 228 q 284 199 297 222 q 283 197 283 198 q 192 56 225 94 q 50 10 122 -22 q 6 52 21 22 q -9 111 -9 81 q -3 168 -9 140 q 68 279 16 235 q 171 319 121 323 q 217 292 199 317 q 222 224 237 264 q 204 202 217 210 q 180 197 191 194 q 163 212 166 200 q 172 234 161 224 q 195 286 214 273 z "},"©":{"ha":672,"x_min":170,"x_max":596,"o":"m 524 357 q 465 377 500 376 q 390 360 430 379 q 315 304 349 342 q 249 206 273 257 q 223 114 225 155 q 234 39 221 73 q 275 -11 248 6 q 388 -14 319 -39 q 496 73 457 12 q 557 240 549 156 q 524 357 565 325 m 434 420 q 495 410 469 420 q 551 369 522 399 q 583 224 596 317 q 513 52 570 132 q 451 -12 486 14 q 379 -46 415 -37 q 308 -53 342 -56 q 243 -34 273 -50 q 197 20 215 -18 q 174 106 178 58 q 188 211 170 154 q 245 315 206 267 q 334 391 285 361 q 434 420 383 420 m 461 279 q 425 270 448 288 q 382 222 403 252 q 358 170 367 199 q 355 113 350 141 q 382 75 359 85 q 412 77 394 69 q 447 103 431 84 q 459 119 454 111 q 468 132 465 127 q 472 140 470 137 q 477 144 475 144 q 482 144 479 145 q 481 126 490 142 q 459 95 473 111 q 345 58 404 33 q 310 92 323 68 q 298 138 298 115 q 302 184 298 162 q 360 273 317 238 q 442 305 402 308 q 479 283 463 304 q 484 229 496 260 q 469 212 479 218 q 450 208 458 205 q 436 220 439 210 q 443 237 434 229 q 461 279 477 268 z "},"­":{"ha":118,"x_min":-1,"x_max":132,"o":"m 56 69 q 59 62 56 66 q 62 57 61 58 q 61 54 62 56 q 56 54 59 53 q 52 60 54 55 q 50 72 50 64 q 67 97 52 88 q 100 104 82 106 q 113 100 109 102 q 119 104 119 104 q 132 107 132 109 q 122 101 132 106 q 119 100 121 100 q 117 98 117 99 q 132 72 132 90 q 96 32 132 41 q 98 31 97 32 q 104 6 109 24 q 106 -18 98 -14 q 126 -16 117 -25 q 129 -12 127 -14 q 130 -9 130 -10 l 131 -8 q 132 -9 132 -7 l 129 -16 q 105 -22 121 -26 q 94 11 83 -15 q 94 29 100 25 q 91 31 92 31 q 77 30 86 30 q 28 -17 58 -16 q 1 -1 7 -18 q 1 17 -1 9 q 5 25 2 22 q 9 29 7 28 q 13 28 12 29 q 8 16 16 25 q 6 -1 3 10 q 28 -14 11 -16 q 37 -11 33 -13 q 45 -5 41 -9 q 51 2 49 -1 q 57 12 54 5 q 61 22 60 18 q 65 33 62 25 q 69 44 68 41 q 108 98 84 82 q 99 100 104 99 q 68 94 84 103 q 56 69 53 85 m 77 32 q 106 42 93 33 q 120 73 119 52 q 112 95 121 87 q 82 43 96 83 q 80 38 81 41 q 77 32 78 34 z "},"®":{"ha":661,"x_min":160,"x_max":496,"o":"m 340 159 q 372 180 356 159 q 373 220 387 201 l 369 216 q 362 207 364 210 q 355 194 359 203 q 345 172 350 184 q 340 159 341 161 m 319 204 q 311 191 319 192 q 300 194 304 189 q 297 207 296 199 q 319 237 300 227 q 361 245 338 248 q 391 234 379 244 q 404 208 403 223 q 394 176 406 189 q 363 158 382 162 l 357 158 q 371 150 367 155 q 376 130 375 144 q 374 117 376 125 q 372 102 372 108 q 376 96 372 96 q 385 103 380 95 q 396 111 390 111 q 405 103 404 111 q 397 89 406 95 q 366 85 386 80 q 348 107 351 90 q 349 135 345 125 q 343 151 351 145 q 338 153 339 153 l 338 153 q 334 144 337 152 q 330 135 331 137 q 326 126 329 133 q 321 117 323 119 q 315 110 319 115 q 307 103 311 105 q 298 99 303 102 q 287 96 293 96 q 273 96 281 95 q 253 103 262 96 q 241 120 244 109 q 240 142 237 130 q 260 160 245 161 q 272 150 271 160 q 268 139 273 145 q 262 130 264 135 q 260 119 260 124 q 267 111 261 113 q 296 126 279 106 q 322 174 312 146 q 368 224 339 217 q 357 228 363 227 q 332 222 344 231 q 319 204 320 214 m 365 347 q 415 341 395 347 q 460 317 436 336 q 492 245 488 293 q 480 147 496 197 q 436 57 465 97 q 368 -3 408 18 q 290 -24 329 -24 q 218 -2 250 -23 q 175 60 189 17 q 170 160 160 102 q 220 266 180 218 q 288 324 250 302 q 365 347 326 347 m 434 298 q 389 314 416 313 q 331 301 362 315 q 274 258 300 286 q 215 160 231 210 q 208 74 199 110 q 242 16 216 37 q 336 6 279 -14 q 422 75 393 26 q 465 177 455 131 q 465 252 474 223 q 434 298 456 280 z "},"À":{"ha":1116,"x_min":-1,"x_max":1415,"o":"m 1411 886 q 1415 873 1414 878 q 1410 862 1415 867 q 1398 854 1404 857 q 1382 848 1392 851 q 1364 843 1372 845 q 1347 839 1356 841 q 1331 835 1337 836 q 1187 644 1260 772 q 1057 370 1114 515 q 1167 379 1120 372 q 1238 393 1214 386 q 1276 410 1261 401 q 1295 425 1291 420 q 1299 433 1298 429 q 1048 345 1307 352 q 1036 313 1044 335 q 1023 281 1027 292 q 997 202 1009 242 q 973 115 984 163 q 956 27 962 68 q 952 -49 950 -13 q 966 -106 954 -85 q 1029 -145 987 -140 q 1111 -126 1072 -150 q 1142 -99 1126 -117 q 1169 -68 1158 -81 q 1184 -56 1179 -56 q 1185 -72 1190 -59 q 1170 -101 1181 -84 q 1147 -127 1158 -118 q 960 -154 1064 -199 q 896 -86 915 -135 q 881 33 876 -37 q 905 177 886 102 q 954 338 923 252 q 956 341 955 338 q 956 344 956 343 q 786 347 889 344 q 719 349 751 349 q 717 346 718 348 q 715 343 716 344 q 659 241 679 277 q 603 148 639 206 q 540 57 566 90 q 474 -16 513 25 q 397 -79 434 -57 q 313 -118 361 -101 q 215 -138 266 -135 q 84 -109 142 -142 q 4 -7 26 -75 q 0 29 0 7 q 6 83 -1 51 q 27 146 13 115 q 72 212 42 178 q 143 272 102 246 q 192 300 172 290 q 256 327 213 311 q 345 352 298 343 q 467 368 392 361 q 631 376 541 375 q 1153 829 862 756 q 1036 825 1097 823 q 927 833 975 827 q 811 840 880 838 q 671 836 743 842 q 539 812 601 830 q 427 764 477 794 q 347 688 376 734 q 316 585 317 642 q 340 512 315 540 q 400 479 364 484 q 477 485 436 473 q 549 524 518 497 q 591 571 574 547 q 618 627 608 596 q 631 680 627 659 q 640 739 635 702 q 654 738 642 762 q 674 659 671 703 q 674 646 675 652 q 581 498 669 560 q 535 475 564 486 q 473 459 507 465 q 407 457 440 454 q 346 473 373 461 q 301 514 318 486 q 283 584 283 543 q 315 700 283 649 q 401 783 346 751 q 525 834 457 815 q 674 859 593 852 q 822 862 744 865 q 962 855 900 860 q 1097 851 1025 850 q 1227 864 1169 852 q 1237 868 1231 865 q 1259 876 1242 870 q 1292 887 1276 882 q 1329 896 1308 892 q 1364 902 1349 901 q 1393 899 1380 903 q 1411 886 1407 895 m 615 349 q 350 325 461 350 q 174 258 239 299 q 103 199 132 233 q 59 136 73 166 q 39 76 45 106 q 34 25 33 45 q 39 -7 35 5 q 105 -86 57 -60 q 217 -108 153 -112 q 277 -92 247 -106 q 332 -59 307 -78 q 386 -6 357 -39 q 436 55 415 27 q 485 127 457 83 q 530 201 513 172 q 574 278 547 231 q 615 349 602 326 m 965 368 q 1104 642 1021 514 q 1267 830 1187 770 q 1111 781 1174 812 q 733 375 908 681 q 800 372 778 374 q 965 368 894 368 m 1114 1043 q 1113 1068 1101 1053 q 1143 1080 1125 1085 q 1149 1076 1145 1078 q 1226 1011 1175 1059 q 1271 954 1278 962 q 1256 950 1264 950 q 1235 957 1249 950 q 1208 972 1221 964 q 1180 992 1196 980 q 1153 1013 1164 1004 q 1130 1030 1142 1021 q 1114 1043 1118 1040 z "},"Á":{"ha":1116,"x_min":-1,"x_max":1415,"o":"m 1411 886 q 1415 873 1414 878 q 1410 862 1415 867 q 1398 854 1404 857 q 1382 848 1392 851 q 1364 843 1372 845 q 1347 839 1356 841 q 1331 835 1337 836 q 1187 644 1260 772 q 1057 370 1114 515 q 1167 379 1120 372 q 1238 393 1214 386 q 1276 410 1261 401 q 1295 425 1291 420 q 1299 433 1298 429 q 1048 345 1307 352 q 1036 313 1044 335 q 1023 281 1027 292 q 997 202 1009 242 q 973 115 984 163 q 956 27 962 68 q 952 -49 950 -13 q 966 -106 954 -85 q 1029 -145 987 -140 q 1111 -126 1072 -150 q 1142 -99 1126 -117 q 1169 -68 1158 -81 q 1184 -56 1179 -56 q 1185 -72 1190 -59 q 1170 -101 1181 -84 q 1147 -127 1158 -118 q 960 -154 1064 -199 q 896 -86 915 -135 q 881 33 876 -37 q 905 178 886 103 q 954 339 923 254 q 956 341 955 340 q 956 344 956 343 q 786 347 889 344 q 719 349 751 349 q 717 346 718 348 q 715 343 716 344 q 659 241 679 277 q 603 148 639 206 q 540 57 566 90 q 474 -16 513 25 q 397 -79 434 -57 q 313 -118 361 -101 q 215 -138 266 -135 q 84 -109 142 -142 q 4 -7 26 -75 q 0 29 0 7 q 6 83 -1 51 q 27 146 13 115 q 72 212 42 178 q 143 272 102 246 q 192 300 172 290 q 256 327 213 311 q 345 352 298 343 q 467 368 392 361 q 631 376 541 375 q 1153 829 862 756 q 1036 825 1097 823 q 927 833 975 827 q 811 840 880 838 q 671 836 743 842 q 539 812 601 830 q 427 764 477 794 q 347 688 376 734 q 316 585 317 642 q 340 512 315 540 q 400 479 364 484 q 477 485 436 473 q 549 524 518 497 q 591 571 574 547 q 618 627 608 596 q 631 680 627 659 q 640 739 635 702 q 654 738 642 762 q 674 659 671 703 q 674 646 675 652 q 581 498 669 560 q 535 475 564 486 q 473 459 507 465 q 407 457 440 454 q 346 473 373 461 q 301 514 318 486 q 283 584 283 543 q 315 700 283 649 q 401 783 346 751 q 525 834 457 815 q 674 859 593 852 q 822 862 744 865 q 962 855 900 860 q 1097 851 1025 850 q 1227 864 1169 852 q 1237 868 1231 865 q 1259 876 1242 870 q 1292 887 1276 882 q 1329 896 1308 892 q 1364 902 1349 901 q 1393 899 1380 903 q 1411 886 1407 895 m 615 349 q 350 325 461 350 q 174 258 239 299 q 103 199 132 233 q 59 136 73 166 q 39 76 45 106 q 34 25 33 45 q 39 -7 35 5 q 105 -86 57 -60 q 217 -108 153 -112 q 277 -92 247 -106 q 332 -59 307 -78 q 386 -6 357 -39 q 436 55 415 27 q 485 127 457 83 q 530 201 513 172 q 574 278 547 231 q 615 349 602 326 m 965 368 q 1104 642 1021 514 q 1267 830 1187 770 q 1111 781 1174 812 q 733 375 908 681 q 800 372 778 374 q 965 368 894 368 m 1364 1043 q 1348 1030 1360 1040 q 1325 1013 1336 1021 q 1298 992 1314 1004 q 1270 972 1282 980 q 1243 957 1257 964 q 1222 950 1230 950 q 1207 954 1214 950 q 1252 1011 1200 962 q 1329 1076 1303 1059 q 1362 1072 1347 1088 q 1367 1046 1375 1058 l 1364 1043 z "},"Â":{"ha":1116,"x_min":-1,"x_max":1415,"o":"m 1411 886 q 1415 873 1414 878 q 1410 862 1415 867 q 1398 854 1404 857 q 1382 848 1392 851 q 1364 843 1372 845 q 1347 839 1356 841 q 1331 835 1337 836 q 1187 644 1260 772 q 1057 370 1114 515 q 1167 379 1120 372 q 1238 393 1214 386 q 1276 410 1261 401 q 1295 425 1291 420 q 1299 433 1298 429 q 1048 345 1307 352 q 1036 313 1044 335 q 1023 281 1027 292 q 997 202 1009 242 q 973 115 984 163 q 956 27 962 68 q 952 -49 950 -13 q 966 -106 954 -85 q 1029 -145 987 -140 q 1111 -126 1072 -150 q 1142 -99 1126 -117 q 1169 -68 1158 -81 q 1184 -56 1179 -56 q 1185 -72 1190 -59 q 1170 -101 1181 -84 q 1147 -127 1158 -118 q 960 -154 1064 -199 q 896 -86 915 -135 q 881 33 876 -37 q 905 178 886 103 q 954 339 923 254 q 956 341 955 340 q 956 344 956 343 q 786 347 889 344 q 719 349 751 349 q 717 346 718 348 q 715 343 716 344 q 659 241 679 277 q 603 148 639 206 q 540 57 566 90 q 474 -16 513 25 q 397 -79 434 -57 q 313 -118 361 -101 q 215 -138 266 -135 q 84 -109 142 -142 q 4 -7 26 -75 q 0 29 0 7 q 6 83 -1 51 q 27 146 13 115 q 72 212 42 178 q 143 272 102 246 q 192 300 172 290 q 256 327 213 311 q 345 352 298 343 q 467 368 392 361 q 631 376 541 375 q 1153 829 862 756 q 1036 825 1097 823 q 927 833 975 827 q 811 840 880 838 q 671 836 743 842 q 539 812 601 830 q 427 764 477 794 q 347 688 376 734 q 316 585 317 642 q 340 512 315 540 q 400 479 364 484 q 477 485 436 473 q 549 524 518 497 q 591 571 574 547 q 618 627 608 596 q 631 680 627 659 q 640 739 635 702 q 654 738 642 762 q 674 659 671 703 q 674 646 675 652 q 581 498 669 560 q 535 475 564 486 q 473 459 507 465 q 407 457 440 454 q 346 473 373 461 q 301 514 318 486 q 283 584 283 543 q 315 700 283 649 q 401 783 346 751 q 525 834 457 815 q 674 859 593 852 q 822 862 744 865 q 962 855 900 860 q 1097 851 1025 850 q 1227 864 1169 852 q 1237 868 1231 865 q 1259 876 1242 870 q 1292 887 1276 882 q 1329 896 1308 892 q 1364 902 1349 901 q 1393 899 1380 903 q 1411 886 1407 895 m 615 349 q 350 325 461 350 q 174 258 239 299 q 103 199 132 233 q 59 136 73 166 q 39 76 45 106 q 34 25 33 45 q 39 -7 35 5 q 105 -86 57 -60 q 217 -108 153 -112 q 277 -92 247 -106 q 332 -59 307 -78 q 386 -6 357 -39 q 436 55 415 27 q 485 127 457 83 q 530 201 513 172 q 574 278 547 231 q 615 349 602 326 m 965 368 q 1104 642 1021 514 q 1267 830 1187 770 q 1111 781 1174 812 q 733 375 908 681 q 800 372 778 374 q 965 368 894 368 m 1303 1083 q 1324 1053 1317 1077 q 1333 962 1331 1028 q 1322 955 1333 957 q 1299 957 1310 953 q 1288 970 1288 961 q 1289 1017 1289 986 q 1289 1055 1289 1048 q 1276 1043 1290 1061 q 1244 1001 1262 1025 q 1218 970 1225 976 q 1179 961 1203 956 q 1165 975 1160 964 q 1166 977 1166 975 q 1253 1069 1222 1046 q 1303 1083 1284 1091 z "},"Ã":{"ha":1116,"x_min":-1,"x_max":1415,"o":"m 1411 886 q 1415 873 1414 878 q 1410 862 1415 867 q 1398 854 1404 857 q 1382 848 1392 851 q 1364 843 1372 845 q 1347 839 1356 841 q 1331 835 1337 836 q 1187 644 1260 772 q 1057 370 1114 515 q 1167 379 1120 372 q 1238 393 1214 386 q 1276 410 1261 401 q 1295 425 1291 420 q 1299 433 1298 429 q 1048 345 1307 352 q 1036 313 1044 335 q 1023 281 1027 292 q 997 202 1009 242 q 973 115 984 163 q 956 27 962 68 q 952 -49 950 -13 q 966 -106 954 -85 q 1029 -145 987 -140 q 1111 -126 1072 -150 q 1142 -99 1126 -117 q 1169 -68 1158 -81 q 1184 -56 1179 -56 q 1185 -72 1190 -59 q 1170 -101 1181 -84 q 1147 -127 1158 -118 q 960 -154 1064 -199 q 896 -86 915 -135 q 881 33 876 -37 q 905 178 886 103 q 954 339 923 254 q 956 341 955 340 q 956 344 956 343 q 786 347 889 344 q 719 349 751 349 q 717 346 718 348 q 715 343 716 344 q 659 241 679 277 q 603 148 639 206 q 540 57 566 90 q 474 -16 513 25 q 397 -79 434 -57 q 313 -118 361 -101 q 215 -138 266 -135 q 84 -109 142 -142 q 4 -7 26 -75 q 0 29 0 7 q 6 83 -1 51 q 27 146 13 115 q 72 212 42 178 q 143 272 102 246 q 192 300 172 290 q 256 327 213 311 q 345 352 298 343 q 467 368 392 361 q 631 376 541 375 q 1153 829 862 756 q 1036 825 1097 823 q 927 833 975 827 q 811 840 880 838 q 671 836 743 842 q 539 812 601 830 q 427 764 477 794 q 347 688 376 734 q 316 585 317 642 q 340 512 315 540 q 400 479 364 484 q 477 485 436 473 q 549 524 518 497 q 591 571 574 547 q 618 627 608 596 q 631 680 627 659 q 640 739 635 702 q 654 738 642 762 q 674 659 671 703 q 674 646 675 652 q 581 498 669 560 q 535 475 564 486 q 473 459 507 465 q 407 457 440 454 q 346 473 373 461 q 301 514 318 486 q 283 584 283 543 q 315 700 283 649 q 401 783 346 751 q 525 834 457 815 q 674 859 593 852 q 822 862 744 865 q 962 855 900 860 q 1097 851 1025 850 q 1227 864 1169 852 q 1237 868 1231 865 q 1259 876 1242 870 q 1292 887 1276 882 q 1329 896 1308 892 q 1364 902 1349 901 q 1393 899 1380 903 q 1411 886 1407 895 m 615 349 q 350 325 461 350 q 174 258 239 299 q 103 199 132 233 q 59 136 73 166 q 39 76 45 106 q 34 25 33 45 q 39 -7 35 5 q 105 -86 57 -60 q 217 -108 153 -112 q 277 -92 247 -106 q 332 -59 307 -78 q 386 -6 357 -39 q 436 55 415 27 q 485 127 457 83 q 530 201 513 172 q 574 278 547 231 q 615 349 602 326 m 965 368 q 1104 642 1021 514 q 1267 830 1187 770 q 1111 781 1174 812 q 733 375 908 681 q 800 372 778 374 q 965 368 894 368 m 1192 971 q 1210 1022 1190 997 q 1258 1047 1230 1048 q 1300 1034 1272 1046 q 1343 1021 1329 1021 q 1361 1021 1354 1020 q 1378 1027 1368 1021 q 1396 1045 1388 1033 q 1390 1000 1402 1025 q 1345 974 1378 974 q 1299 986 1329 974 q 1255 999 1270 999 q 1192 971 1221 999 z "},"Ä":{"ha":1116,"x_min":-1,"x_max":1415,"o":"m 1411 886 q 1415 873 1414 878 q 1410 862 1415 867 q 1398 854 1404 857 q 1382 848 1392 851 q 1364 843 1372 845 q 1347 839 1356 841 q 1331 835 1337 836 q 1187 644 1260 772 q 1057 370 1114 515 q 1167 379 1120 372 q 1238 393 1214 386 q 1276 410 1261 401 q 1295 425 1291 420 q 1299 433 1298 429 q 1048 345 1307 352 q 1036 313 1044 335 q 1023 281 1027 292 q 997 202 1009 242 q 973 115 984 163 q 956 27 962 68 q 952 -49 950 -13 q 966 -106 954 -85 q 1029 -145 987 -140 q 1111 -126 1072 -150 q 1142 -99 1126 -117 q 1169 -68 1158 -81 q 1184 -56 1179 -56 q 1185 -72 1190 -59 q 1170 -101 1181 -84 q 1147 -127 1158 -118 q 960 -154 1064 -199 q 896 -86 915 -135 q 881 33 876 -37 q 905 178 886 103 q 954 339 923 254 q 956 341 955 340 q 956 344 956 343 q 786 347 889 344 q 719 349 751 349 q 717 346 718 348 q 715 343 716 344 q 659 241 679 277 q 603 148 639 206 q 540 57 566 90 q 474 -16 513 25 q 397 -79 434 -57 q 313 -118 361 -101 q 215 -138 266 -135 q 84 -109 142 -142 q 4 -7 26 -75 q 0 29 0 7 q 6 83 -1 51 q 27 146 13 115 q 72 212 42 178 q 143 272 102 246 q 192 300 172 290 q 256 327 213 311 q 345 352 298 343 q 467 368 392 361 q 631 376 541 375 q 1153 829 862 756 q 1036 825 1097 823 q 927 833 975 827 q 811 840 880 838 q 671 836 743 842 q 539 812 601 830 q 427 764 477 794 q 347 688 376 734 q 316 585 317 642 q 340 512 315 540 q 400 479 364 484 q 477 485 436 473 q 549 524 518 497 q 591 571 574 547 q 618 627 608 596 q 631 680 627 659 q 640 739 635 702 q 654 738 642 762 q 674 659 671 703 q 674 646 675 652 q 581 498 669 560 q 535 475 564 486 q 473 459 507 465 q 407 457 440 454 q 346 473 373 461 q 301 514 318 486 q 283 584 283 543 q 315 700 283 649 q 401 783 346 751 q 525 834 457 815 q 674 859 593 852 q 822 862 744 865 q 962 855 900 860 q 1097 851 1025 850 q 1227 864 1169 852 q 1237 868 1231 865 q 1259 876 1242 870 q 1292 887 1276 882 q 1329 896 1308 892 q 1364 902 1349 901 q 1393 899 1380 903 q 1411 886 1407 895 m 615 349 q 350 325 461 350 q 174 258 239 299 q 103 199 132 233 q 59 136 73 166 q 39 76 45 106 q 34 25 33 45 q 39 -7 35 5 q 105 -86 57 -60 q 217 -108 153 -112 q 277 -92 247 -106 q 332 -59 307 -78 q 386 -6 357 -39 q 436 55 415 27 q 485 127 457 83 q 530 201 513 172 q 574 278 547 231 q 615 349 602 326 m 965 368 q 1104 642 1021 514 q 1267 830 1187 770 q 1111 781 1174 812 q 733 375 908 681 q 800 372 778 374 q 965 368 894 368 m 1251 982 q 1245 975 1251 982 q 1221 969 1238 969 q 1192 982 1204 969 q 1179 1011 1179 994 q 1192 1041 1179 1029 q 1221 1053 1204 1053 q 1251 1041 1238 1053 q 1263 1011 1263 1028 q 1251 982 1263 994 m 1361 982 q 1354 975 1361 982 q 1331 969 1348 969 q 1302 982 1314 969 q 1289 1011 1289 994 q 1301 1041 1289 1029 q 1331 1053 1314 1053 q 1361 1041 1348 1053 q 1373 1011 1373 1028 q 1361 982 1373 994 z "},"Å":{"ha":1116,"x_min":-1,"x_max":1415,"o":"m 1411 886 q 1415 873 1414 878 q 1410 862 1415 867 q 1398 854 1404 857 q 1382 848 1392 851 q 1364 843 1372 845 q 1347 839 1356 841 q 1331 835 1337 836 q 1187 644 1260 772 q 1057 370 1114 515 q 1167 379 1120 372 q 1238 393 1214 386 q 1276 410 1261 401 q 1295 425 1291 420 q 1299 433 1298 429 q 1048 345 1307 352 q 1036 313 1044 335 q 1023 281 1027 292 q 997 202 1009 242 q 973 115 984 163 q 956 27 962 68 q 952 -49 950 -13 q 966 -106 954 -85 q 1029 -145 987 -140 q 1111 -126 1072 -150 q 1142 -99 1126 -117 q 1169 -68 1158 -81 q 1184 -56 1179 -56 q 1185 -72 1190 -59 q 1170 -101 1181 -84 q 1147 -127 1158 -118 q 960 -154 1064 -199 q 896 -86 915 -135 q 881 33 876 -37 q 905 178 886 103 q 954 339 923 254 q 956 341 955 340 q 956 344 956 343 q 786 347 889 344 q 719 349 751 349 q 717 346 718 348 q 715 343 716 344 q 659 241 679 277 q 603 148 639 206 q 540 57 566 90 q 474 -16 513 25 q 397 -79 434 -57 q 313 -118 361 -101 q 215 -138 266 -135 q 84 -109 142 -142 q 4 -7 26 -75 q 0 29 0 7 q 6 83 -1 51 q 27 146 13 115 q 72 212 42 178 q 143 272 102 246 q 192 300 172 290 q 256 327 213 311 q 345 352 298 343 q 467 368 392 361 q 631 376 541 375 q 1153 829 862 756 q 1036 825 1097 823 q 927 833 975 827 q 811 840 880 838 q 671 836 743 842 q 539 812 601 830 q 427 764 477 794 q 347 688 376 734 q 316 585 317 642 q 340 512 315 540 q 400 479 364 484 q 477 485 436 473 q 549 524 518 497 q 591 571 574 547 q 618 627 608 596 q 631 680 627 659 q 640 739 635 702 q 654 738 642 762 q 674 659 671 703 q 674 646 675 652 q 581 498 669 560 q 535 475 564 486 q 473 459 507 465 q 407 457 440 454 q 346 473 373 461 q 301 514 318 486 q 283 584 283 543 q 315 700 283 649 q 401 783 346 751 q 525 834 457 815 q 674 859 593 852 q 822 862 744 865 q 962 855 900 860 q 1097 851 1025 850 q 1227 864 1169 852 q 1237 868 1231 865 q 1259 876 1242 870 q 1292 887 1276 882 q 1329 896 1308 892 q 1364 902 1349 901 q 1393 899 1380 903 q 1411 886 1407 895 m 615 349 q 350 325 461 350 q 174 258 239 299 q 103 199 132 233 q 59 136 73 166 q 39 76 45 106 q 34 25 33 45 q 39 -7 35 5 q 105 -86 57 -60 q 217 -108 153 -112 q 277 -92 247 -106 q 332 -59 307 -78 q 386 -6 357 -39 q 436 55 415 27 q 485 127 457 83 q 530 201 513 172 q 574 278 547 231 q 615 349 602 326 m 965 368 q 1104 642 1021 514 q 1267 830 1187 770 q 1111 781 1174 812 q 733 375 908 681 q 800 372 778 374 q 965 368 894 368 m 1340 973 q 1332 965 1340 973 q 1301 957 1324 957 q 1263 973 1279 957 q 1247 1011 1247 989 q 1263 1049 1247 1034 q 1301 1065 1278 1065 q 1339 1049 1323 1065 q 1356 1011 1356 1034 q 1340 973 1356 989 m 1286 995 q 1289 991 1286 995 q 1302 988 1293 988 q 1318 995 1312 988 q 1324 1011 1324 1002 q 1318 1027 1324 1021 q 1301 1034 1311 1034 q 1286 1027 1293 1034 q 1280 1011 1280 1021 q 1286 995 1280 1002 z "},"Æ":{"ha":1487,"x_min":-1,"x_max":1649,"o":"m 965 368 q 1104 642 1021 514 q 1267 830 1187 770 q 1111 781 1174 812 q 733 375 908 681 q 800 372 778 374 q 965 368 894 368 m 615 349 q 352 326 465 352 q 174 258 239 300 q 103 199 132 233 q 59 136 73 166 q 39 76 45 106 q 34 25 33 45 q 39 -7 35 5 q 105 -86 57 -60 q 217 -108 153 -112 q 277 -92 247 -106 q 332 -59 307 -78 q 386 -6 357 -39 q 436 55 415 27 q 485 127 457 83 q 530 201 513 172 q 574 278 547 231 q 615 349 602 326 m 1280 592 q 1320 525 1286 553 q 1419 484 1354 496 q 1443 474 1440 481 q 1438 462 1447 467 q 1418 456 1430 456 q 1033 252 1147 461 q 995 112 996 185 q 1027 -13 995 38 q 1113 -70 1060 -63 q 1157 -72 1128 -74 q 1215 -64 1185 -69 q 1281 -40 1244 -58 q 1348 5 1317 -22 q 1411 75 1380 35 q 1460 146 1441 114 q 1494 205 1478 178 q 1519 243 1510 233 q 1533 245 1529 254 q 1514 199 1535 241 q 1452 97 1493 157 q 1372 0 1411 37 q 1245 -80 1316 -52 q 1108 -106 1175 -109 q 1012 -82 1054 -103 q 945 -29 970 -62 q 909 45 921 3 q 901 133 898 87 q 919 224 903 178 q 954 339 929 269 q 956 341 955 340 q 956 344 956 343 q 786 347 889 344 q 719 349 751 349 q 717 346 718 348 q 715 343 716 344 q 659 241 679 277 q 603 148 639 206 q 540 57 566 90 q 474 -16 513 25 q 397 -79 434 -57 q 313 -118 361 -101 q 215 -138 266 -135 q 84 -109 142 -142 q 4 -7 26 -75 q 0 29 0 7 q 6 83 -1 51 q 27 146 13 115 q 72 212 42 178 q 143 272 102 246 q 192 300 172 290 q 256 327 213 311 q 345 352 298 343 q 467 368 392 361 q 631 376 541 375 q 1153 829 862 756 q 1036 825 1097 823 q 927 833 975 827 q 811 840 880 838 q 671 836 743 842 q 539 812 601 830 q 427 764 477 794 q 347 688 376 734 q 316 585 317 642 q 340 512 315 540 q 400 479 364 484 q 477 485 436 473 q 549 524 518 497 q 591 571 574 547 q 618 627 608 596 q 631 680 627 659 q 640 739 635 702 q 654 738 642 762 q 674 659 671 703 q 674 646 675 652 q 581 498 669 560 q 535 475 564 486 q 473 459 507 465 q 407 457 440 454 q 346 473 373 461 q 301 514 318 486 q 283 584 283 543 q 315 700 283 649 q 401 783 346 751 q 525 834 457 815 q 674 859 593 852 q 822 862 744 865 q 962 855 900 860 q 1097 851 1025 850 q 1227 864 1169 852 q 1237 868 1231 865 q 1259 876 1242 870 q 1292 887 1276 882 q 1329 896 1308 892 q 1364 902 1349 901 q 1393 899 1380 903 q 1411 886 1407 895 q 1415 873 1414 878 q 1410 862 1415 867 q 1398 854 1404 857 q 1382 848 1392 851 q 1364 843 1372 845 q 1347 839 1356 841 q 1331 835 1337 836 q 1297 801 1311 817 q 1496 862 1387 869 q 1583 841 1546 859 q 1634 799 1619 824 q 1649 744 1649 773 q 1629 687 1649 715 q 1572 639 1609 659 q 1424 593 1510 604 q 1280 592 1339 581 m 1279 612 q 1561 656 1421 590 q 1596 682 1581 666 q 1617 715 1611 698 q 1620 751 1623 733 q 1607 783 1618 769 q 1574 807 1596 798 q 1519 816 1551 816 q 1356 750 1431 816 q 1279 612 1282 684 m 1074 410 q 1216 467 1140 450 q 1357 473 1291 484 q 1299 493 1329 477 q 1243 535 1269 509 q 1207 598 1217 562 q 1208 679 1198 634 q 1074 410 1137 562 z "},"Ç":{"ha":583,"x_min":-5,"x_max":735,"o":"m 75 842 q 94 747 60 795 q 192 656 128 699 q 372 782 277 740 q 316 840 349 812 q 263 868 298 854 q 190 889 229 882 q 119 885 152 897 q 75 842 85 874 m 172 635 q 54 769 83 696 q 75 892 24 843 q 159 917 105 920 q 264 896 213 913 q 351 855 315 878 q 420 801 392 829 q 509 820 461 814 q 597 821 559 825 q 662 805 635 817 q 705 777 688 793 q 728 741 721 760 q 735 703 735 722 q 727 667 734 684 q 666 595 709 624 q 566 556 623 567 q 444 549 509 545 q 314 570 378 552 q 258 589 281 579 q 147 398 195 509 q 113 289 126 349 q 100 166 100 229 q 116 51 100 102 q 173 -32 131 -1 q 279 -58 214 -62 q 381 -32 333 -55 q 469 33 429 -8 q 540 120 509 74 q 604 228 572 166 q 623 244 612 244 q 626 243 625 244 q 627 241 627 243 q 627 238 627 239 q 626 234 627 236 q 624 230 625 231 q 622 225 623 228 q 620 221 621 222 q 281 -82 477 -66 l 277 -82 q 279 -94 276 -92 q 291 -94 283 -96 q 311 -97 298 -92 q 334 -128 330 -104 q 321 -168 337 -152 q 282 -180 308 -182 q 246 -163 256 -178 q 243 -146 240 -155 q 252 -137 245 -138 q 263 -138 258 -135 q 281 -147 268 -146 q 304 -141 294 -148 q 310 -121 314 -134 q 297 -109 307 -109 q 278 -114 287 -110 q 262 -111 270 -119 q 258 -83 255 -102 q 138 -60 191 -85 q 55 11 86 -35 q 9 118 23 56 q 2 257 -5 180 q 37 417 9 334 q 172 635 74 529 m 463 750 q 484 682 488 709 q 452 652 479 654 q 439 654 445 651 q 430 664 434 656 q 423 677 426 671 q 415 698 420 684 q 406 722 410 711 q 275 610 336 681 q 334 589 308 596 q 434 572 379 575 q 542 575 489 568 q 638 607 595 583 q 699 671 682 632 q 697 742 717 712 q 632 780 678 772 q 520 770 585 787 q 463 750 491 762 z "},"È":{"ha":587,"x_min":-4,"x_max":744,"o":"m 484 1007 q 482 1032 471 1017 q 512 1044 494 1049 q 518 1040 515 1042 q 596 975 544 1023 q 640 918 648 926 q 626 914 633 914 q 604 921 618 914 q 577 936 590 928 q 549 956 565 944 q 523 977 534 968 q 499 995 511 985 q 484 1007 488 1004 m 184 815 q 199 727 165 774 q 302 646 232 680 q 328 726 306 686 q 406 808 353 770 q 339 848 384 832 q 247 858 294 864 q 184 815 201 851 m 435 826 q 595 862 511 867 q 681 841 646 859 q 730 798 716 824 q 744 744 744 772 q 724 687 743 715 q 672 639 705 659 q 641 623 659 631 q 595 605 624 614 q 535 591 566 596 q 463 587 505 587 q 380 597 422 588 l 380 597 q 418 527 384 556 q 519 484 452 497 q 544 474 540 481 q 538 462 547 467 q 518 456 530 456 q 133 252 248 461 q 95 112 96 185 q 127 -13 95 38 q 213 -70 160 -63 q 257 -72 229 -74 q 315 -64 286 -69 q 380 -40 344 -58 q 447 5 416 -22 q 510 75 479 35 q 559 146 541 114 q 594 205 578 178 q 619 243 610 233 q 633 245 629 254 q 614 199 635 241 q 552 97 593 157 q 472 0 511 37 q 346 -80 416 -52 q 208 -106 275 -109 q 83 -65 134 -102 q 15 26 33 -28 q 2 145 -4 81 q 39 271 8 210 q 146 392 74 340 q 301 464 218 443 q 457 473 384 484 q 357 521 406 481 q 302 620 309 562 q 215 670 251 640 q 166 731 180 701 q 153 790 152 762 q 170 840 154 819 q 243 878 193 871 q 347 869 294 884 q 435 826 399 854 m 488 774 q 513 732 505 752 q 518 697 520 711 q 509 675 517 684 q 492 665 500 665 q 479 671 485 664 q 467 690 473 677 q 455 717 461 702 q 453 723 454 721 q 451 728 452 725 q 448 734 449 731 q 446 740 447 737 q 380 618 385 682 q 385 617 382 618 q 390 615 389 616 q 528 609 452 598 q 661 656 604 619 q 715 720 701 682 q 705 787 729 758 q 619 816 681 816 q 488 774 551 816 z "},"É":{"ha":587,"x_min":-4,"x_max":744,"o":"m 659 1007 q 643 995 654 1004 q 620 977 631 985 q 592 956 608 968 q 564 936 576 944 q 538 921 552 928 q 516 914 524 914 q 501 918 508 914 q 546 975 494 926 q 624 1040 598 1023 q 657 1036 642 1053 q 662 1010 670 1022 l 659 1007 m 184 815 q 199 727 165 774 q 302 646 232 680 q 328 726 306 686 q 406 808 353 770 q 339 848 384 832 q 247 858 294 864 q 184 815 201 851 m 435 826 q 595 862 511 867 q 681 841 646 859 q 730 798 716 824 q 744 744 744 772 q 724 687 743 715 q 672 639 705 659 q 641 623 659 631 q 595 605 624 614 q 535 591 566 596 q 463 587 505 587 q 380 597 422 588 l 380 597 q 418 527 384 556 q 519 484 452 497 q 544 474 540 481 q 538 462 547 467 q 518 456 530 456 q 133 252 248 461 q 95 112 96 185 q 127 -13 95 38 q 213 -70 160 -63 q 257 -72 229 -74 q 315 -64 286 -69 q 380 -40 344 -58 q 447 5 416 -22 q 510 75 479 35 q 559 146 541 114 q 594 205 578 178 q 619 243 610 233 q 633 245 629 254 q 614 199 635 241 q 552 97 593 157 q 472 0 511 37 q 346 -80 416 -52 q 208 -106 275 -109 q 83 -65 134 -102 q 15 26 33 -28 q 2 145 -4 81 q 39 271 8 210 q 146 392 74 340 q 301 464 218 443 q 457 473 384 484 q 357 521 406 481 q 302 620 309 562 q 215 670 251 640 q 166 731 180 701 q 153 790 152 762 q 170 840 154 819 q 243 878 193 871 q 347 869 294 884 q 435 826 399 854 m 488 774 q 513 732 505 752 q 518 697 520 711 q 509 675 517 684 q 492 665 500 665 q 479 671 485 664 q 467 690 473 677 q 455 717 461 702 q 453 723 454 721 q 451 728 452 725 q 448 734 449 731 q 446 740 447 737 q 380 618 385 682 q 385 617 382 618 q 390 615 389 616 q 528 609 452 598 q 661 656 604 619 q 715 720 701 682 q 705 787 729 758 q 619 816 681 816 q 488 774 551 816 z "},"Ê":{"ha":587,"x_min":-4,"x_max":744,"o":"m 688 1067 q 709 1036 702 1061 q 718 946 715 1012 q 707 938 718 941 q 684 940 695 936 q 672 953 672 944 q 673 1000 673 969 q 673 1039 673 1031 q 661 1026 674 1044 q 629 984 647 1008 q 603 953 610 959 q 564 944 588 939 q 550 958 545 947 q 551 960 551 958 q 638 1052 607 1029 q 688 1067 669 1075 m 184 815 q 199 727 165 774 q 302 646 232 680 q 328 726 306 686 q 406 808 353 770 q 339 848 384 832 q 247 858 294 864 q 184 815 201 851 m 435 826 q 595 862 511 867 q 681 841 646 859 q 730 798 716 824 q 744 744 744 772 q 724 687 743 715 q 672 639 705 659 q 641 623 659 631 q 595 605 624 614 q 535 591 566 596 q 463 587 505 587 q 380 597 422 588 l 380 597 q 418 527 384 556 q 519 484 452 497 q 544 474 540 481 q 538 462 547 467 q 518 456 530 456 q 133 252 248 461 q 95 112 96 185 q 127 -13 95 38 q 213 -70 160 -63 q 257 -72 229 -74 q 315 -64 286 -69 q 380 -40 344 -58 q 447 5 416 -22 q 510 75 479 35 q 559 146 541 114 q 594 205 578 178 q 619 243 610 233 q 633 245 629 254 q 614 199 635 241 q 552 97 593 157 q 472 0 511 37 q 346 -80 416 -52 q 208 -106 275 -109 q 83 -65 134 -102 q 15 26 33 -28 q 2 145 -4 81 q 39 271 8 210 q 146 392 74 340 q 301 464 218 443 q 457 473 384 484 q 357 521 406 481 q 302 620 309 562 q 215 670 251 640 q 166 731 180 701 q 153 790 152 762 q 170 840 154 819 q 243 878 193 871 q 347 869 294 884 q 435 826 399 854 m 488 774 q 513 732 505 752 q 518 697 520 711 q 509 675 517 684 q 492 665 500 665 q 479 671 485 664 q 467 690 473 677 q 455 717 461 702 q 453 723 454 721 q 451 728 452 725 q 448 734 449 731 q 446 740 447 737 q 380 618 385 682 q 385 617 382 618 q 390 615 389 616 q 528 609 452 598 q 661 656 604 619 q 715 720 701 682 q 705 787 729 758 q 619 816 681 816 q 488 774 551 816 z "},"Ë":{"ha":587,"x_min":-4,"x_max":744,"o":"m 552 947 q 546 941 552 947 q 523 935 540 935 q 493 947 506 935 q 481 977 481 959 q 493 1006 481 994 q 522 1019 505 1019 q 552 1006 540 1019 q 565 977 565 994 q 552 947 565 959 m 662 947 q 656 941 662 947 q 632 935 650 935 q 602 947 614 935 q 590 977 590 959 q 602 1006 590 994 q 632 1019 614 1019 q 662 1006 650 1019 q 674 977 674 994 q 662 947 674 959 m 184 815 q 199 727 165 774 q 302 646 232 680 q 328 726 306 686 q 406 808 353 770 q 339 848 384 832 q 247 858 294 864 q 184 815 201 851 m 435 826 q 595 862 511 867 q 681 841 646 859 q 730 798 716 824 q 744 744 744 772 q 724 687 743 715 q 672 639 705 659 q 641 623 659 631 q 595 605 624 614 q 535 591 566 596 q 463 587 505 587 q 380 597 422 588 l 380 597 q 418 527 384 556 q 519 484 452 497 q 544 474 540 481 q 538 462 547 467 q 518 456 530 456 q 133 252 248 461 q 95 112 96 185 q 127 -13 95 38 q 213 -70 160 -63 q 257 -72 229 -74 q 315 -64 286 -69 q 380 -40 344 -58 q 447 5 416 -22 q 510 75 479 35 q 559 146 541 114 q 594 205 578 178 q 619 243 610 233 q 633 245 629 254 q 614 199 635 241 q 552 97 593 157 q 472 0 511 37 q 346 -80 416 -52 q 208 -106 275 -109 q 83 -65 134 -102 q 15 26 33 -28 q 2 145 -4 81 q 39 271 8 210 q 146 392 74 340 q 301 464 218 443 q 457 473 384 484 q 357 521 406 481 q 302 620 309 562 q 215 670 251 640 q 166 731 180 701 q 153 790 152 762 q 170 840 154 819 q 243 878 193 871 q 347 869 294 884 q 435 826 399 854 m 488 774 q 513 732 505 752 q 518 697 520 711 q 509 675 517 684 q 492 665 500 665 q 479 671 485 664 q 467 690 473 677 q 455 717 461 702 q 453 723 454 721 q 451 728 452 725 q 448 734 449 731 q 446 740 447 737 q 380 618 385 682 q 385 617 382 618 q 390 615 389 616 q 528 609 452 598 q 661 656 604 619 q 715 720 701 682 q 705 787 729 758 q 619 816 681 816 q 488 774 551 816 z "},"Ì":{"ha":700,"x_min":-9,"x_max":1084,"o":"m 1042 845 q 1078 835 1066 852 q 1068 823 1084 826 q 1053 821 1067 823 q 1042 819 1050 820 q 1031 817 1035 818 q 975 787 989 796 q 859 702 905 747 q 765 576 812 657 q 671 367 719 496 q 809 458 762 368 q 840 499 826 490 q 871 507 854 509 q 884 502 878 507 q 892 489 890 497 q 893 470 895 480 q 882 445 891 459 q 857 415 872 430 q 771 362 821 382 q 663 344 720 342 q 659 332 661 340 q 654 321 656 324 q 620 229 636 270 q 579 137 604 188 q 530 48 555 87 q 472 -30 505 9 q 402 -96 438 -69 q 320 -140 366 -122 q 223 -161 274 -157 q 93 -131 151 -165 q 13 -28 35 -97 q 7 115 -9 45 q 24 161 14 142 q 46 191 35 181 q 68 205 57 201 q 88 209 79 210 q 102 203 97 208 q 112 190 109 197 q 113 175 115 183 q 110 161 111 166 q 99 144 108 156 q 85 127 90 133 q 67 107 81 122 q 47 -30 20 54 q 114 -109 65 -83 q 225 -130 162 -136 q 277 -117 252 -127 q 323 -94 302 -107 q 363 -59 343 -81 q 399 -17 384 -37 q 431 33 414 3 q 459 87 448 64 q 486 148 471 111 q 510 208 500 184 q 533 270 519 232 q 556 330 547 309 q 568 362 564 352 q 486 441 511 387 q 466 555 460 496 q 503 661 473 614 q 587 740 534 708 q 703 786 640 771 q 825 810 766 802 q 946 826 884 818 q 1042 845 1008 835 m 753 983 q 751 1008 740 993 q 781 1020 764 1025 q 787 1017 784 1019 q 865 951 813 1000 q 909 895 917 903 q 895 890 903 890 q 873 898 887 890 q 847 912 859 905 q 819 932 834 920 q 792 953 803 944 q 769 971 781 962 q 753 983 757 980 m 581 393 q 658 538 616 473 q 737 645 700 604 q 817 721 774 687 q 889 772 859 755 q 955 806 920 789 q 957 806 956 806 q 880 794 911 800 q 810 781 849 789 q 743 763 770 772 q 685 740 715 754 q 632 709 654 726 q 590 669 610 692 q 555 618 570 646 q 533 488 524 551 q 581 393 542 425 z "},"Í":{"ha":700,"x_min":-9,"x_max":1084,"o":"m 1042 845 q 1078 835 1066 852 q 1068 823 1084 826 q 1053 821 1067 823 q 1042 819 1050 820 q 1031 817 1035 818 q 975 787 989 796 q 859 702 905 747 q 765 576 812 657 q 671 367 719 496 q 809 458 762 368 q 840 499 826 490 q 871 507 854 509 q 884 502 878 507 q 892 489 890 497 q 893 470 895 480 q 882 445 891 459 q 857 415 872 430 q 771 362 821 382 q 663 344 720 342 q 659 332 661 340 q 654 321 656 324 q 620 229 636 270 q 579 137 604 188 q 530 48 555 87 q 472 -30 505 9 q 402 -96 438 -69 q 320 -140 366 -122 q 223 -161 274 -157 q 93 -131 151 -165 q 13 -28 35 -97 q 7 115 -9 45 q 24 161 14 142 q 46 191 35 181 q 68 205 57 201 q 88 209 79 210 q 102 203 97 208 q 112 190 109 197 q 113 175 115 183 q 110 161 111 166 q 99 144 108 156 q 85 127 90 133 q 67 107 81 122 q 47 -30 20 54 q 114 -109 65 -83 q 225 -130 162 -136 q 277 -117 252 -127 q 323 -94 302 -107 q 363 -59 343 -81 q 399 -17 384 -37 q 431 33 414 3 q 459 87 448 64 q 486 148 471 111 q 510 208 500 184 q 533 270 519 232 q 556 330 547 309 q 568 362 564 352 q 486 441 511 387 q 466 555 460 496 q 503 661 473 614 q 587 740 534 708 q 703 786 640 771 q 825 810 766 802 q 946 826 884 818 q 1042 845 1008 835 m 972 983 q 957 971 968 981 q 933 953 945 962 q 906 932 922 944 q 878 912 890 920 q 852 898 866 905 q 830 890 838 890 q 815 895 822 890 q 860 951 808 903 q 937 1017 911 1000 q 970 1013 954 1028 q 976 987 983 999 l 972 983 m 581 393 q 658 538 616 473 q 737 645 700 604 q 817 721 774 687 q 889 772 859 755 q 955 806 920 789 q 957 806 956 806 q 880 794 911 800 q 810 781 849 789 q 743 763 770 772 q 685 740 715 754 q 632 709 654 726 q 590 669 610 692 q 555 618 570 646 q 533 488 524 551 q 581 393 542 425 z "},"Î":{"ha":700,"x_min":-9,"x_max":1084,"o":"m 1042 845 q 1078 835 1066 852 q 1068 823 1084 826 q 1053 821 1067 823 q 1042 819 1050 820 q 1031 817 1035 818 q 975 787 989 796 q 859 702 905 747 q 765 576 812 657 q 671 367 719 496 q 809 458 762 368 q 840 499 826 490 q 871 507 854 509 q 884 502 878 507 q 892 489 890 497 q 893 470 895 480 q 882 445 891 459 q 857 415 872 430 q 771 362 821 382 q 663 344 720 342 q 659 332 661 340 q 654 321 656 324 q 620 229 636 270 q 579 137 604 188 q 530 48 555 87 q 472 -30 505 9 q 402 -96 438 -69 q 320 -140 366 -122 q 223 -161 274 -157 q 93 -131 151 -165 q 13 -28 35 -97 q 7 115 -9 45 q 24 161 14 142 q 46 191 35 181 q 68 205 57 201 q 88 209 79 210 q 102 203 97 208 q 112 190 109 197 q 113 175 115 183 q 110 161 111 166 q 99 144 108 156 q 85 127 90 133 q 67 107 81 122 q 47 -30 20 54 q 114 -109 65 -83 q 225 -130 162 -136 q 277 -117 252 -127 q 323 -94 302 -107 q 363 -59 343 -81 q 399 -17 384 -37 q 431 33 414 3 q 459 87 448 64 q 486 148 471 111 q 510 208 500 184 q 533 270 519 232 q 556 330 547 309 q 568 362 564 352 q 486 441 511 387 q 466 555 460 496 q 503 661 473 614 q 587 740 534 708 q 703 786 640 771 q 825 810 766 802 q 946 826 884 818 q 1042 845 1008 835 m 932 1011 q 953 981 946 1005 q 962 890 960 956 q 951 883 962 885 q 928 884 939 880 q 917 897 917 888 q 918 945 918 913 q 918 983 918 976 q 905 971 919 989 q 873 928 891 953 q 847 897 854 903 q 808 888 831 884 q 795 902 790 892 q 796 904 795 903 q 883 997 852 974 q 932 1011 913 1019 m 581 393 q 658 538 616 473 q 737 645 700 604 q 817 721 774 687 q 889 772 859 755 q 955 806 920 789 q 957 806 956 806 q 880 794 911 800 q 810 781 849 789 q 743 763 770 772 q 685 740 715 754 q 632 709 654 726 q 590 669 610 692 q 555 618 570 646 q 533 488 524 551 q 581 393 542 425 z "},"Ï":{"ha":700,"x_min":-9,"x_max":1084,"o":"m 1042 845 q 1078 835 1066 852 q 1068 823 1084 826 q 1053 821 1067 823 q 1042 819 1050 820 q 1031 817 1035 818 q 975 787 989 796 q 859 702 905 747 q 765 576 812 657 q 671 367 719 496 q 809 458 762 368 q 840 499 826 490 q 871 507 854 509 q 884 502 878 507 q 892 489 890 497 q 893 470 895 480 q 882 445 891 459 q 857 415 872 430 q 771 362 821 382 q 663 344 720 342 q 659 332 661 340 q 654 321 656 324 q 620 229 636 270 q 579 137 604 188 q 530 48 555 87 q 472 -30 505 9 q 402 -96 438 -69 q 320 -140 366 -122 q 223 -161 274 -157 q 93 -131 151 -165 q 13 -28 35 -97 q 7 115 -9 45 q 24 161 14 142 q 46 191 35 181 q 68 205 57 201 q 88 209 79 210 q 102 203 97 208 q 112 190 109 197 q 113 175 115 183 q 110 161 111 166 q 99 144 108 156 q 85 127 90 133 q 67 107 81 122 q 47 -30 20 54 q 114 -109 65 -83 q 225 -130 162 -136 q 277 -117 252 -127 q 323 -94 302 -107 q 363 -59 343 -81 q 399 -17 384 -37 q 431 33 414 3 q 459 87 448 64 q 486 148 471 111 q 510 208 500 184 q 533 270 519 232 q 556 330 547 309 q 568 362 564 352 q 486 441 511 387 q 466 555 460 496 q 503 661 473 614 q 587 740 534 708 q 703 786 640 771 q 825 810 766 802 q 946 826 884 818 q 1042 845 1008 835 m 789 882 q 759 894 771 882 q 747 923 747 906 q 759 953 747 941 q 788 966 771 966 q 818 953 806 966 q 831 924 831 941 q 818 894 831 906 q 789 882 806 882 m 899 882 q 869 894 881 882 q 857 923 857 906 q 869 953 857 941 q 898 966 881 966 q 928 954 916 966 q 940 924 940 941 q 928 894 940 906 q 899 882 916 882 m 581 393 q 658 538 616 473 q 737 645 700 604 q 817 721 774 687 q 889 772 859 755 q 955 806 920 789 q 957 806 956 806 q 880 794 911 800 q 810 781 849 789 q 743 763 770 772 q 685 740 715 754 q 632 709 654 726 q 590 669 610 692 q 555 618 570 646 q 533 488 524 551 q 581 393 542 425 z "},"Ð":{"ha":1144,"x_min":-9,"x_max":1109,"o":"m 454 509 q 465 470 457 490 q 479 438 472 450 q 491 414 486 425 q 495 396 496 403 q 485 385 494 389 q 471 382 479 382 q 454 385 463 382 q 435 394 444 387 q 418 413 426 401 q 404 441 410 425 q 396 481 398 458 q 397 533 394 503 q 442 655 404 601 q 537 740 480 709 q 663 785 594 771 q 804 792 732 799 q 866 781 839 789 q 955 829 905 806 q 1053 857 1050 871 q 1049 849 1053 852 q 1022 835 1044 846 q 975 810 999 825 q 907 766 939 790 q 1008 699 964 741 q 1080 593 1052 656 q 1109 451 1109 530 q 1080 274 1109 372 q 1009 127 1053 193 q 912 19 964 62 q 801 -54 860 -24 q 684 -96 742 -83 q 573 -109 627 -108 q 477 -100 520 -111 q 406 -69 434 -89 q 223 -138 322 -132 q 92 -108 150 -142 q 13 -6 35 -74 q 7 138 -9 67 q 24 184 14 165 q 46 214 35 204 q 68 228 57 224 q 88 232 79 233 q 102 226 97 231 q 114 207 111 216 q 109 184 116 197 q 96 163 102 171 q 71 135 90 155 q 67 130 68 132 q 47 -7 20 77 q 114 -86 65 -60 q 225 -106 162 -113 q 306 -80 268 -102 q 371 -28 344 -58 q 426 48 399 1 q 471 136 453 96 q 511 235 489 177 q 445 239 481 237 q 388 242 409 241 q 361 243 366 243 q 344 254 347 242 q 357 275 341 269 q 367 277 361 276 q 526 275 389 279 q 539 310 528 281 q 556 353 550 338 q 828 753 662 625 q 789 762 810 758 q 736 765 764 766 q 677 759 707 764 q 617 743 647 753 q 560 718 587 733 q 511 682 533 703 q 474 635 489 661 q 453 578 459 610 q 454 509 448 547 m 429 -51 q 529 -73 475 -71 q 638 -60 583 -75 q 747 -12 693 -45 q 846 71 800 22 q 927 192 891 120 q 983 348 964 263 q 998 511 1002 436 q 962 645 995 585 q 871 736 930 705 q 761 591 810 680 q 654 344 711 501 q 627 271 649 328 q 728 252 728 263 q 612 233 728 233 q 429 -51 531 39 z "},"Ñ":{"ha":1223,"x_min":-9,"x_max":1716,"o":"m 1594 861 q 1696 820 1666 861 q 1705 773 1715 793 q 1686 761 1699 762 q 1653 764 1664 758 q 1639 781 1643 770 q 1632 802 1635 791 q 1616 821 1628 813 q 1581 829 1604 829 q 1510 819 1544 830 q 1444 781 1476 807 q 1382 720 1412 755 q 1319 632 1352 686 q 1255 522 1286 579 q 1184 385 1223 464 q 1159 333 1177 371 q 1130 274 1141 296 q 1099 213 1120 253 q 1063 148 1078 174 q 1025 86 1048 123 q 983 25 1002 50 q 938 -28 964 1 q 889 -77 913 -58 q 838 -114 865 -97 q 781 -140 810 -131 q 767 -139 772 -142 q 765 -129 763 -136 q 813 63 800 -12 q 832 250 826 137 q 847 439 839 363 q 956 753 871 651 q 848 669 890 713 q 762 539 807 625 q 654 298 717 454 q 617 206 631 240 q 576 116 603 172 q 527 25 549 60 q 470 -52 505 -9 q 400 -119 435 -94 q 320 -162 366 -144 q 223 -184 274 -180 q 93 -154 151 -188 q 13 -52 35 -120 q 7 92 -9 22 q 24 138 14 119 q 46 168 35 158 q 68 182 57 178 q 88 186 79 187 q 102 180 97 185 q 112 167 109 174 q 113 152 115 160 q 110 138 111 143 q 99 121 108 133 q 85 104 90 110 q 67 84 81 99 q 47 -53 20 31 q 114 -132 65 -106 q 225 -153 162 -159 q 327 -121 279 -147 q 413 -57 375 -96 q 487 39 450 -19 q 551 156 523 97 q 610 293 578 215 q 755 593 688 489 q 890 746 822 697 q 798 740 851 741 q 699 739 745 739 q 596 739 652 739 q 339 670 435 736 q 241 487 243 604 q 281 400 240 427 q 377 381 322 372 q 475 427 433 390 q 517 474 500 450 q 543 531 534 499 q 556 583 552 562 q 564 642 559 604 q 579 641 567 665 q 599 562 596 606 q 599 549 600 555 q 507 401 593 463 q 449 374 485 386 q 372 360 413 362 q 294 367 330 358 q 233 407 257 376 q 208 487 208 437 q 258 637 208 575 q 395 730 309 700 q 599 762 482 761 q 671 762 627 762 q 756 763 714 762 q 849 767 798 764 q 942 777 900 770 q 1052 821 1021 816 q 1083 810 1077 824 q 1077 789 1088 800 q 1047 773 1065 779 q 1016 763 1028 766 q 998 759 1004 760 q 957 633 969 712 q 937 397 945 553 q 884 89 927 224 q 799 -104 842 -45 q 877 -40 840 -78 q 939 26 915 -3 q 1002 122 964 56 q 1056 217 1040 188 q 1118 337 1071 245 q 1125 352 1122 347 q 1132 365 1128 357 q 1139 379 1136 372 q 1174 449 1150 400 q 1212 527 1197 497 q 1254 604 1227 557 q 1303 681 1281 651 q 1358 748 1325 711 q 1423 805 1391 784 q 1497 843 1455 827 q 1582 861 1538 859 q 1588 861 1584 861 q 1594 861 1592 861 m 1145 888 q 1163 939 1143 913 q 1211 964 1183 964 q 1253 950 1225 963 q 1296 937 1282 938 q 1314 937 1308 937 q 1330 944 1320 938 q 1348 962 1340 949 q 1343 916 1355 942 q 1297 890 1331 890 q 1252 903 1281 890 q 1207 916 1223 916 q 1145 888 1175 916 z "},"Ò":{"ha":857,"x_min":-1,"x_max":938,"o":"m 586 1011 q 585 1036 573 1021 q 614 1048 597 1053 q 621 1044 617 1046 q 699 979 646 1027 q 743 922 751 930 q 729 918 736 918 q 707 925 721 918 q 680 940 692 932 q 652 960 668 948 q 625 981 636 972 q 602 999 614 989 q 586 1011 590 1008 m 551 701 q 372 475 436 599 q 334 392 353 439 q 336 391 334 392 q 338 391 337 391 q 444 378 387 377 q 507 494 467 434 q 549 553 528 526 q 597 606 571 580 q 649 651 623 633 q 704 683 675 669 q 763 699 734 697 q 823 693 792 701 q 881 623 870 680 q 887 733 905 680 q 845 793 875 770 q 781 816 814 817 q 570 717 690 815 q 618 663 625 670 q 572 686 611 656 q 557 696 567 689 l 551 701 m 504 766 q 758 846 647 855 q 866 808 826 841 q 916 737 905 776 q 883 566 938 651 q 845 407 878 496 q 774 245 813 318 q 298 -102 544 -178 q 204 -33 238 -84 q 164 87 170 18 q 172 236 158 157 q 217 399 185 316 q 137 449 175 421 q 67 513 100 477 q 17 588 35 550 q 1 671 -1 627 q 29 758 3 715 q 96 816 53 795 q 189 842 138 838 q 286 842 239 846 q 378 826 334 838 q 504 766 434 811 m 481 751 q 380 798 426 786 q 275 811 328 810 q 173 793 222 812 q 104 734 123 774 q 87 644 85 686 q 110 562 88 602 q 163 492 132 523 q 233 437 193 462 q 326 601 272 526 q 440 722 379 675 q 481 751 467 742 m 434 352 q 336 356 386 350 q 320 359 325 357 q 268 172 282 260 q 269 19 254 85 q 333 -67 285 -46 q 431 -73 380 -87 q 532 -17 481 -58 q 631 84 583 24 q 719 215 678 144 q 789 360 759 286 q 837 509 823 446 q 684 408 771 443 q 526 362 612 378 q 452 159 484 279 q 431 127 443 123 q 409 176 416 132 q 407 218 406 198 q 434 352 412 288 m 540 389 q 694 443 627 406 q 847 565 797 499 q 827 659 858 648 q 763 652 798 669 q 699 609 728 636 q 640 543 670 581 q 594 481 610 505 q 566 436 578 456 q 540 389 551 409 z "},"Ó":{"ha":857,"x_min":-1,"x_max":938,"o":"m 806 1011 q 790 999 802 1008 q 767 981 778 989 q 740 960 755 972 q 711 940 724 948 q 685 925 699 932 q 663 918 671 918 q 648 922 655 918 q 693 979 641 930 q 771 1044 745 1027 q 804 1040 789 1057 q 809 1015 817 1026 l 806 1011 m 551 701 q 372 475 436 599 q 334 392 353 439 q 336 391 334 392 q 338 391 337 391 q 444 378 387 377 q 507 494 467 434 q 549 553 528 526 q 597 606 571 580 q 649 651 623 633 q 704 683 675 669 q 763 699 734 697 q 823 693 792 701 q 881 623 870 680 q 887 733 905 680 q 845 793 875 770 q 781 816 814 817 q 570 717 690 815 q 618 663 625 670 q 572 686 611 656 q 557 696 567 689 l 551 701 m 504 766 q 758 846 647 855 q 866 808 826 841 q 916 737 905 776 q 883 566 938 651 q 845 407 878 496 q 774 245 813 318 q 298 -102 544 -178 q 204 -33 238 -84 q 164 87 170 18 q 172 236 158 157 q 217 399 185 316 q 137 449 175 421 q 67 513 100 477 q 17 588 35 550 q 1 671 -1 627 q 29 758 3 715 q 96 816 53 795 q 189 842 138 838 q 286 842 239 846 q 378 826 334 838 q 504 766 434 811 m 481 751 q 380 798 426 786 q 275 811 328 810 q 173 793 222 812 q 104 734 123 774 q 87 644 85 686 q 110 562 88 602 q 163 492 132 523 q 233 437 193 462 q 326 601 272 526 q 440 722 379 675 q 481 751 467 742 m 434 352 q 336 356 386 350 q 320 359 325 357 q 268 172 282 260 q 269 19 254 85 q 333 -67 285 -46 q 431 -73 380 -87 q 532 -17 481 -58 q 631 84 583 24 q 719 215 678 144 q 789 360 759 286 q 837 509 823 446 q 684 408 771 443 q 526 362 612 378 q 452 159 484 279 q 431 127 443 123 q 409 176 416 132 q 407 218 406 198 q 434 352 412 288 m 540 389 q 694 443 627 406 q 847 565 797 499 q 827 659 858 648 q 763 652 798 669 q 699 609 728 636 q 640 543 670 581 q 594 481 610 505 q 566 436 578 456 q 540 389 551 409 z "},"Ô":{"ha":857,"x_min":-1,"x_max":938,"o":"m 802 1042 q 823 1011 816 1036 q 832 921 829 987 q 821 913 832 916 q 798 915 809 911 q 786 928 786 919 q 787 975 787 944 q 787 1014 787 1006 q 774 1001 788 1019 q 743 959 761 983 q 717 928 724 934 q 677 919 702 914 q 664 932 659 922 q 665 935 665 933 q 752 1027 721 1004 q 802 1042 783 1050 m 551 701 q 372 475 436 599 q 334 392 353 439 q 336 391 334 392 q 338 391 337 391 q 444 378 387 377 q 507 494 467 434 q 549 553 528 526 q 597 606 571 580 q 649 651 623 633 q 704 683 675 669 q 763 699 734 697 q 823 693 792 701 q 881 623 870 680 q 887 733 905 680 q 845 793 875 770 q 781 816 814 817 q 570 717 690 815 q 618 663 625 670 q 572 686 611 656 q 557 696 567 689 l 551 701 m 504 766 q 758 846 647 855 q 866 808 826 841 q 916 737 905 776 q 883 566 938 651 q 845 407 878 496 q 774 245 813 318 q 298 -102 544 -178 q 204 -33 238 -84 q 164 87 170 18 q 172 236 158 157 q 217 399 185 316 q 137 449 175 421 q 67 513 100 477 q 17 588 35 550 q 1 671 -1 627 q 29 758 3 715 q 96 816 53 795 q 189 842 138 838 q 286 842 239 846 q 378 826 334 838 q 504 766 434 811 m 481 751 q 380 798 426 786 q 275 811 328 810 q 173 793 222 812 q 104 734 123 774 q 87 644 85 686 q 110 562 88 602 q 163 492 132 523 q 233 437 193 462 q 326 601 272 526 q 440 722 379 675 q 481 751 467 742 m 434 352 q 336 356 386 350 q 320 359 325 357 q 268 172 282 260 q 269 19 254 85 q 333 -67 285 -46 q 431 -73 380 -87 q 532 -17 481 -58 q 631 84 583 24 q 719 215 678 144 q 789 360 759 286 q 837 509 823 446 q 684 408 771 443 q 526 362 612 378 q 452 159 484 279 q 431 127 443 123 q 409 176 416 132 q 407 218 406 198 q 434 352 412 288 m 540 389 q 694 443 627 406 q 847 565 797 499 q 827 659 858 648 q 763 652 798 669 q 699 609 728 636 q 640 543 670 581 q 594 481 610 505 q 566 436 578 456 q 540 389 551 409 z "},"Õ":{"ha":857,"x_min":-1,"x_max":938,"o":"m 648 908 q 667 959 646 934 q 715 984 687 985 q 758 971 729 983 q 800 958 786 959 q 818 958 812 958 q 834 965 825 959 q 852 983 844 970 q 847 937 859 963 q 802 911 835 911 q 756 924 785 911 q 711 937 727 937 q 648 908 679 937 m 551 701 q 372 475 436 599 q 334 392 353 439 q 336 391 334 392 q 338 391 337 391 q 444 378 387 377 q 507 494 467 434 q 549 553 528 526 q 597 606 571 580 q 649 651 623 633 q 704 683 675 669 q 763 699 734 697 q 823 693 792 701 q 881 623 870 680 q 887 733 905 680 q 845 793 875 770 q 781 816 814 817 q 570 717 690 815 q 618 663 625 670 q 572 686 611 656 q 557 696 567 689 l 551 701 m 504 766 q 758 846 647 855 q 866 808 826 841 q 916 737 905 776 q 883 566 938 651 q 845 407 878 496 q 774 245 813 318 q 298 -102 544 -178 q 204 -33 238 -84 q 164 87 170 18 q 172 236 158 157 q 217 399 185 316 q 137 449 175 421 q 67 513 100 477 q 17 588 35 550 q 1 671 -1 627 q 29 758 3 715 q 96 816 53 795 q 189 842 138 838 q 286 842 239 846 q 378 826 334 838 q 504 766 434 811 m 481 751 q 380 798 426 786 q 275 811 328 810 q 173 793 222 812 q 104 734 123 774 q 87 644 85 686 q 110 562 88 602 q 163 492 132 523 q 233 437 193 462 q 326 601 272 526 q 440 722 379 675 q 481 751 467 742 m 434 352 q 336 356 386 350 q 320 359 325 357 q 268 172 282 260 q 269 19 254 85 q 333 -67 285 -46 q 431 -73 380 -87 q 532 -17 481 -58 q 631 84 583 24 q 719 215 678 144 q 789 360 759 286 q 837 509 823 446 q 684 408 771 443 q 526 362 612 378 q 452 159 484 279 q 431 127 443 123 q 409 176 416 132 q 407 218 406 198 q 434 352 412 288 m 540 389 q 694 443 627 406 q 847 565 797 499 q 827 659 858 648 q 763 652 798 669 q 699 609 728 636 q 640 543 670 581 q 594 481 610 505 q 566 436 578 456 q 540 389 551 409 z "},"Ö":{"ha":857,"x_min":-1,"x_max":938,"o":"m 699 911 q 669 923 681 911 q 656 953 656 936 q 669 982 656 970 q 699 995 681 995 q 728 983 716 995 q 741 954 741 970 q 728 923 741 936 q 699 911 715 911 m 808 911 q 779 923 791 911 q 766 953 766 936 q 779 983 766 970 q 808 995 791 995 q 838 983 825 995 q 850 954 850 970 q 838 923 850 936 q 808 911 825 911 m 551 701 q 372 475 436 599 q 334 392 353 439 q 336 391 334 392 q 338 391 337 391 q 444 378 387 377 q 507 494 467 434 q 549 553 528 526 q 597 606 571 580 q 649 651 623 633 q 704 683 675 669 q 763 699 734 697 q 823 693 792 701 q 881 623 870 680 q 887 733 905 680 q 845 793 875 770 q 781 816 814 817 q 570 717 690 815 q 618 663 625 670 q 572 686 611 656 q 557 696 567 689 l 551 701 m 504 766 q 758 846 647 855 q 866 808 826 841 q 916 737 905 776 q 883 566 938 651 q 845 407 878 496 q 774 245 813 318 q 298 -102 544 -178 q 204 -33 238 -84 q 164 87 170 18 q 172 236 158 157 q 217 399 185 316 q 137 449 175 421 q 67 513 100 477 q 17 588 35 550 q 1 671 -1 627 q 29 758 3 715 q 96 816 53 795 q 189 842 138 838 q 286 842 239 846 q 378 826 334 838 q 504 766 434 811 m 481 751 q 380 798 426 786 q 275 811 328 810 q 173 793 222 812 q 104 734 123 774 q 87 644 85 686 q 110 562 88 602 q 163 492 132 523 q 233 437 193 462 q 326 601 272 526 q 440 722 379 675 q 481 751 467 742 m 434 352 q 336 356 386 350 q 320 359 325 357 q 268 172 282 260 q 269 19 254 85 q 333 -67 285 -46 q 431 -73 380 -87 q 532 -17 481 -58 q 631 84 583 24 q 719 215 678 144 q 789 360 759 286 q 837 509 823 446 q 684 408 771 443 q 526 362 612 378 q 452 159 484 279 q 431 127 443 123 q 409 176 416 132 q 407 218 406 198 q 434 352 412 288 m 540 389 q 694 443 627 406 q 847 565 797 499 q 827 659 858 648 q 763 652 798 669 q 699 609 728 636 q 640 543 670 581 q 594 481 610 505 q 566 436 578 456 q 540 389 551 409 z "},"×":{"ha":713,"x_min":191,"x_max":591,"o":"m 233 135 q 204 141 216 125 q 211 170 191 157 q 337 256 212 170 q 224 357 260 322 q 225 380 214 368 q 254 383 238 393 q 259 380 257 382 q 373 280 302 341 q 463 340 433 320 q 479 350 469 344 q 496 361 490 357 q 511 370 502 365 q 525 378 519 376 q 538 385 531 381 q 550 389 545 388 q 560 390 555 390 q 569 389 565 391 q 575 383 572 387 q 510 314 591 363 q 506 311 507 312 q 502 309 504 310 q 497 306 499 307 q 408 249 460 283 q 417 241 412 246 q 426 233 422 236 q 505 163 499 170 q 510 140 517 150 q 506 134 509 138 q 478 136 497 124 q 404 197 459 149 q 388 211 399 201 q 372 225 378 220 q 233 135 275 161 z "},"Ø":{"ha":857,"x_min":-1,"x_max":938,"o":"m 355 -269 q 330 -284 348 -285 q 313 -270 313 -284 q 316 -258 313 -264 q 378 -114 323 -243 q 298 -102 339 -115 q 204 -33 238 -84 q 164 87 170 18 q 172 236 158 157 q 217 399 185 316 q 137 449 175 421 q 67 513 100 477 q 17 588 35 550 q 1 671 -1 627 q 29 758 3 715 q 96 816 53 795 q 189 842 138 838 q 286 842 239 846 q 378 826 334 838 q 504 766 434 811 q 758 846 647 855 q 782 844 774 845 q 798 880 795 874 q 850 991 839 975 q 882 1004 865 1014 q 896 970 901 995 q 853 870 891 945 q 833 828 846 857 q 916 737 899 798 q 883 566 938 651 q 845 407 878 496 q 774 245 813 318 q 426 -108 604 -67 q 394 -182 410 -144 q 368 -241 377 -220 q 355 -269 358 -263 m 551 701 q 372 475 436 599 q 334 392 353 439 q 336 391 334 392 q 338 391 337 391 q 444 378 387 377 q 507 494 467 434 q 716 688 611 650 q 770 815 750 768 q 570 717 682 808 q 618 663 625 670 q 572 686 611 656 q 557 696 567 689 l 551 701 m 481 751 q 380 798 426 786 q 275 811 328 810 q 173 793 222 812 q 104 734 123 774 q 87 644 85 686 q 110 562 88 602 q 163 492 132 523 q 233 437 193 462 q 326 601 272 526 q 440 722 379 675 q 481 751 467 742 m 881 623 q 887 733 905 680 q 824 806 869 785 q 777 700 794 740 q 823 693 801 700 q 881 623 870 680 m 434 352 q 336 356 386 350 q 320 359 325 357 q 268 172 282 260 q 269 19 254 85 q 333 -67 285 -46 q 393 -79 361 -80 q 447 50 410 -39 q 519 221 484 139 q 585 375 554 303 q 526 362 551 366 q 452 159 484 279 q 431 127 443 123 q 409 176 416 132 q 407 218 406 198 q 434 352 412 288 m 540 389 q 596 403 570 395 q 671 579 656 547 q 566 436 614 517 q 540 389 551 409 m 837 509 q 684 408 771 443 q 643 393 679 406 q 443 -69 519 106 q 573 19 506 -47 q 695 175 640 86 q 789 360 750 263 q 837 509 823 446 m 847 565 q 827 659 858 648 q 755 649 794 670 q 705 534 739 612 q 656 425 671 456 q 694 443 682 435 q 847 565 797 499 z "},"Ù":{"ha":883,"x_min":-7,"x_max":1017,"o":"m 78 669 q 27 520 32 606 q 69 417 23 434 q 137 421 102 406 q 194 458 173 437 q 233 502 216 479 q 325 703 292 586 q 330 594 341 654 q 283 484 318 534 q 236 433 262 454 q 184 400 209 411 q 136 386 160 390 q 93 382 111 381 q 64 389 75 384 q 7 454 22 405 q 5 563 -7 504 q 50 673 18 622 q 152 775 90 736 q 285 819 214 813 q 371 809 332 822 q 437 766 410 795 q 474 690 464 736 q 474 581 485 644 q 439 472 467 539 q 381 340 412 404 q 321 203 350 275 q 275 74 292 132 q 267 -30 259 17 q 314 -96 275 -76 q 713 345 471 -175 q 719 358 717 354 q 721 362 720 359 q 722 366 722 364 q 869 678 789 555 q 956 780 920 754 q 1015 795 993 806 q 1013 788 1017 794 q 997 765 1008 782 q 970 725 985 749 q 932 658 955 702 q 887 562 909 614 q 750 196 783 320 q 727 -16 717 73 q 774 -135 736 -97 q 849 -161 812 -174 q 923 -105 892 -147 q 936 -94 933 -92 q 939 -100 937 -96 q 919 -143 943 -115 q 852 -182 895 -172 q 760 -169 802 -193 q 693 -99 718 -145 q 659 4 669 -54 q 657 115 649 61 q 674 201 665 163 q 398 -126 537 -82 q 342 -135 370 -134 q 288 -123 314 -136 q 240 -90 261 -111 q 207 -33 220 -69 q 194 51 195 4 q 213 181 193 111 q 262 314 233 251 q 323 438 292 378 q 377 558 353 498 q 406 661 401 617 q 388 750 412 715 q 330 792 363 785 q 255 791 296 799 q 165 752 214 784 q 78 669 116 721 m 586 956 q 585 981 573 965 q 614 992 597 998 q 621 989 617 991 q 699 923 646 972 q 743 867 751 875 q 729 863 736 863 q 707 870 721 863 q 680 885 692 877 q 652 904 668 892 q 625 925 636 916 q 602 943 614 934 q 586 956 590 953 z "},"Ú":{"ha":883,"x_min":-7,"x_max":1017,"o":"m 78 669 q 27 520 32 606 q 69 417 23 434 q 137 421 102 406 q 194 458 173 437 q 233 502 216 479 q 325 703 292 586 q 330 594 341 654 q 283 484 318 534 q 236 433 262 454 q 184 400 209 411 q 136 386 160 390 q 93 382 111 381 q 64 389 75 384 q 7 454 22 405 q 5 563 -7 504 q 50 673 18 622 q 152 775 90 736 q 285 819 214 813 q 371 809 332 822 q 437 766 410 795 q 474 690 464 736 q 474 581 485 644 q 439 472 467 539 q 381 340 412 404 q 321 203 350 275 q 275 74 292 132 q 267 -30 259 17 q 314 -96 275 -76 q 713 345 471 -175 q 719 358 717 354 q 721 362 720 359 q 722 366 722 364 q 869 678 789 555 q 956 780 920 754 q 1015 795 993 806 q 1013 788 1017 794 q 997 765 1008 782 q 970 725 985 749 q 932 658 955 702 q 887 562 909 614 q 750 196 783 320 q 727 -16 717 73 q 774 -135 736 -97 q 849 -161 812 -174 q 923 -105 892 -147 q 936 -94 933 -92 q 939 -100 937 -96 q 919 -143 943 -115 q 852 -182 895 -172 q 760 -169 802 -193 q 693 -99 718 -145 q 659 4 669 -54 q 657 115 649 61 q 674 201 665 163 q 398 -126 537 -82 q 342 -135 370 -134 q 288 -123 314 -136 q 240 -90 261 -111 q 207 -33 220 -69 q 194 51 195 4 q 213 181 193 111 q 262 314 233 251 q 323 438 292 378 q 377 558 353 498 q 406 661 401 617 q 388 750 412 715 q 330 792 363 785 q 255 791 296 799 q 165 752 214 784 q 78 669 116 721 m 806 956 q 790 943 802 953 q 767 925 778 934 q 740 904 755 916 q 711 885 724 892 q 685 870 699 877 q 663 863 671 863 q 648 867 655 863 q 693 923 641 875 q 771 989 745 972 q 804 984 789 1001 q 809 959 817 970 l 806 956 z "},"Û":{"ha":883,"x_min":-7,"x_max":1017,"o":"m 78 669 q 27 520 32 606 q 69 417 23 434 q 137 421 102 406 q 194 458 173 437 q 233 502 216 479 q 325 703 292 586 q 330 594 341 654 q 283 484 318 534 q 236 433 262 454 q 184 400 209 411 q 136 386 160 390 q 93 382 111 381 q 64 389 75 384 q 7 454 22 405 q 5 563 -7 504 q 50 673 18 622 q 152 775 90 736 q 285 819 214 813 q 371 809 332 822 q 437 766 410 795 q 474 690 464 736 q 474 581 485 644 q 439 472 467 539 q 381 340 412 404 q 321 203 350 275 q 275 74 292 132 q 267 -30 259 17 q 314 -96 275 -76 q 713 345 471 -175 q 719 358 717 354 q 721 362 720 359 q 722 366 722 364 q 869 678 789 555 q 956 780 920 754 q 1015 795 993 806 q 1013 788 1017 794 q 997 765 1008 782 q 970 725 985 749 q 932 658 955 702 q 887 562 909 614 q 750 196 783 320 q 727 -16 717 73 q 774 -135 736 -97 q 849 -161 812 -174 q 923 -105 892 -147 q 936 -94 933 -92 q 939 -100 937 -96 q 919 -143 943 -115 q 852 -182 895 -172 q 760 -169 802 -193 q 693 -99 718 -145 q 659 4 669 -54 q 657 115 649 61 q 674 201 665 163 q 398 -126 537 -82 q 342 -135 370 -134 q 288 -123 314 -136 q 240 -90 261 -111 q 207 -33 220 -69 q 194 51 195 4 q 213 181 193 111 q 262 314 233 251 q 323 438 292 378 q 377 558 353 498 q 406 661 401 617 q 388 750 412 715 q 330 792 363 785 q 255 791 296 799 q 165 752 214 784 q 78 669 116 721 m 774 986 q 795 956 788 980 q 804 865 802 931 q 793 858 804 860 q 770 859 781 855 q 758 872 758 863 q 759 920 759 888 q 760 958 760 951 q 747 946 760 964 q 715 903 733 928 q 689 872 696 878 q 650 863 674 859 q 636 877 631 867 q 637 879 637 878 q 724 971 693 949 q 774 986 755 994 z "},"Ü":{"ha":883,"x_min":-7,"x_max":1017,"o":"m 78 669 q 27 520 32 606 q 69 417 23 434 q 137 421 102 406 q 194 458 173 437 q 233 502 216 479 q 325 703 292 586 q 330 594 341 654 q 283 484 318 534 q 236 433 262 454 q 184 400 209 411 q 136 386 160 390 q 93 382 111 381 q 64 389 75 384 q 7 454 22 405 q 5 563 -7 504 q 50 673 18 622 q 152 775 90 736 q 285 819 214 813 q 371 809 332 822 q 437 766 410 795 q 474 690 464 736 q 474 581 485 644 q 439 472 467 539 q 381 340 412 404 q 321 203 350 275 q 275 74 292 132 q 267 -30 259 17 q 314 -96 275 -76 q 713 345 471 -175 q 719 358 717 354 q 721 362 720 359 q 722 366 722 364 q 869 678 789 555 q 956 780 920 754 q 1015 795 993 806 q 1013 788 1017 794 q 997 765 1008 782 q 970 725 985 749 q 932 658 955 702 q 887 562 909 614 q 750 196 783 320 q 727 -16 717 73 q 774 -135 736 -97 q 849 -161 812 -174 q 923 -105 892 -147 q 936 -94 933 -92 q 939 -100 937 -96 q 919 -143 943 -115 q 852 -182 895 -172 q 760 -169 802 -193 q 693 -99 718 -145 q 659 4 669 -54 q 657 115 649 61 q 674 201 665 163 q 398 -126 537 -82 q 342 -135 370 -134 q 288 -123 314 -136 q 240 -90 261 -111 q 207 -33 220 -69 q 194 51 195 4 q 213 181 193 111 q 262 314 233 251 q 323 438 292 378 q 377 558 353 498 q 406 661 401 617 q 388 750 412 715 q 330 792 363 785 q 255 791 296 799 q 165 752 214 784 q 78 669 116 721 m 659 856 q 629 868 641 856 q 616 897 616 880 q 629 927 616 915 q 658 939 641 939 q 688 927 675 939 q 701 898 701 915 q 688 868 701 880 q 659 856 675 856 m 768 856 q 738 868 751 856 q 726 897 726 880 q 738 927 726 914 q 768 939 750 939 q 798 927 785 939 q 810 898 810 915 q 798 868 810 880 q 768 856 785 856 z "},"Ý":{"ha":895,"x_min":-8,"x_max":1165,"o":"m 861 997 q 845 985 857 994 q 822 966 833 975 q 795 946 811 958 q 767 926 779 934 q 741 911 755 918 q 719 904 726 904 q 704 908 711 904 q 749 965 696 916 q 827 1031 801 1014 q 851 1033 838 1039 q 866 1016 863 1027 q 861 997 869 1004 m 349 814 q 209 789 276 824 q 92 680 142 753 q 43 565 56 626 q 42 457 30 504 q 87 393 54 410 q 171 392 131 373 q 242 461 211 412 q 288 574 274 510 q 294 629 292 592 q 301 682 297 666 q 313 690 304 698 q 340 642 330 675 q 345 556 350 608 q 315 455 340 504 q 266 398 298 423 q 201 363 235 374 q 134 349 168 352 q 78 358 100 346 q 9 442 27 382 q 7 570 -8 501 q 62 698 22 639 q 181 809 108 766 q 330 852 254 852 q 488 783 429 852 q 522 597 547 715 q 457 434 511 545 q 392 267 403 323 q 387 212 387 240 q 393 157 387 184 q 416 111 399 130 q 460 90 433 93 q 713 302 571 77 q 883 649 795 520 q 928 708 905 681 q 972 756 951 736 q 1014 793 993 776 q 1053 821 1035 810 q 1087 840 1071 831 q 1117 852 1104 848 q 1140 859 1131 857 q 1156 861 1150 861 q 1163 859 1162 861 q 1160 854 1165 857 q 1145 847 1156 851 q 1121 836 1135 842 q 1089 818 1107 829 q 1054 793 1072 807 q 1018 757 1037 779 q 982 709 998 735 q 888 529 932 628 q 823 368 844 430 q 775 214 803 307 q 745 110 748 121 q 692 -16 724 45 q 617 -133 661 -77 q 521 -231 572 -189 q 404 -299 469 -273 q 267 -326 338 -325 q 186 -315 227 -327 q 109 -273 146 -303 q 54 -198 72 -242 q 47 -54 28 -135 q 63 -8 53 -28 q 83 22 73 12 q 105 37 94 32 q 125 41 117 42 q 139 35 134 40 q 151 16 149 25 q 148 -5 153 6 q 134 -27 142 -17 q 111 -55 126 -38 q 109 -57 110 -56 q 107 -59 109 -58 q 106 -61 106 -60 q 89 -199 57 -118 q 161 -274 109 -249 q 269 -295 212 -299 q 372 -266 322 -291 q 460 -201 421 -240 q 535 -109 499 -163 q 597 -1 570 -56 q 646 118 623 54 q 665 168 661 159 q 519 62 593 83 q 463 53 491 53 q 409 63 435 53 q 361 93 382 73 q 326 149 340 113 q 309 231 312 184 q 324 350 306 286 q 367 462 342 413 q 414 575 391 511 q 441 692 437 640 q 415 777 446 746 q 349 814 385 808 z "},"ß":{"ha":737,"x_min":-1,"x_max":638,"o":"m 404 385 q 493 420 444 384 q 566 516 543 457 q 571 624 591 581 q 496 665 551 667 q 267 329 376 661 q 19 -54 156 -3 q 0 -53 -1 -62 q 19 -28 1 -42 q 20 -27 20 -28 q 75 43 48 -6 q 117 139 101 92 q 154 256 132 185 q 187 358 176 327 q 249 502 218 443 q 309 596 281 562 q 370 649 336 630 q 432 674 404 669 q 498 681 460 680 q 576 665 544 682 q 624 620 609 648 q 636 555 638 592 q 615 479 635 518 q 466 366 569 387 q 542 254 519 332 q 536 100 565 176 q 482 21 517 52 q 408 -22 447 -10 q 323 -34 368 -33 q 241 -26 278 -34 q 170 -6 203 -19 q 142 15 142 5 q 154 20 142 22 q 161 18 157 20 q 181 10 173 13 q 209 0 189 7 q 244 -9 229 -6 q 283 -13 260 -12 q 325 -11 307 -14 q 366 2 344 -7 q 405 28 387 12 q 438 70 422 44 q 465 131 454 96 q 479 215 477 168 q 467 306 481 262 q 425 362 454 349 q 388 376 395 366 q 396 385 383 383 q 404 385 399 385 z "},"à":{"ha":389,"x_min":-30,"x_max":433,"o":"m 107 503 q 102 521 98 509 q 118 538 106 533 q 142 536 129 543 q 219 471 168 519 q 264 414 271 422 q 249 410 257 410 q 228 417 241 410 q 201 432 214 424 q 173 451 189 439 q 146 472 157 463 q 123 490 135 481 q 107 503 111 499 m 240 285 q 246 296 241 288 q 253 308 251 304 q 261 319 256 312 q 272 328 267 326 q 286 334 278 331 q 306 337 294 337 q 330 334 317 336 q 315 243 369 326 q 248 93 258 156 q 248 51 243 64 q 263 41 252 38 q 287 54 274 43 q 315 81 300 64 q 410 229 356 128 q 419 244 416 242 q 428 243 422 245 q 432 235 433 239 q 424 216 431 231 q 414 198 422 214 q 402 177 405 182 q 392 159 400 173 q 381 139 385 144 q 370 121 378 134 q 358 102 363 109 q 347 85 354 96 q 334 69 340 75 q 322 55 329 62 q 309 41 315 47 q 229 11 269 4 q 178 66 189 18 q 175 121 172 94 q 49 9 110 11 q 6 26 24 9 q -19 69 -12 43 q -28 123 -26 95 q -23 174 -30 152 q 5 244 -14 211 q 50 302 24 277 q 110 339 75 328 q 182 345 144 351 q 221 324 203 342 q 240 284 239 306 l 240 285 m 200 310 q 146 300 178 321 q 83 228 115 278 q 46 137 60 191 q 46 54 33 83 q 106 68 61 23 q 146 117 125 87 q 192 189 170 151 q 223 255 201 213 q 200 310 223 298 z "},"á":{"ha":389,"x_min":-30,"x_max":433,"o":"m 315 503 q 299 490 311 500 q 276 472 288 481 q 249 451 265 463 q 221 432 233 439 q 195 417 209 424 q 173 410 180 410 q 158 414 165 410 q 203 471 151 422 q 281 536 255 519 q 305 538 292 545 q 320 521 317 532 q 315 503 323 510 m 240 285 q 246 296 241 288 q 253 308 251 304 q 261 319 256 312 q 272 328 267 326 q 286 334 278 331 q 306 337 294 337 q 330 334 317 336 q 315 243 369 326 q 248 93 258 156 q 248 51 243 64 q 263 41 252 38 q 287 54 274 43 q 315 81 300 64 q 410 229 356 128 q 419 244 416 242 q 428 243 422 245 q 432 235 433 239 q 424 216 431 231 q 414 198 422 214 q 402 177 405 182 q 392 159 400 173 q 381 139 385 144 q 370 121 378 134 q 358 102 363 109 q 347 85 354 96 q 334 69 340 75 q 322 55 329 62 q 309 41 315 47 q 229 11 269 4 q 178 66 189 18 q 175 121 172 94 q 49 9 110 11 q 6 26 24 9 q -19 69 -12 43 q -28 123 -26 95 q -23 174 -30 152 q 5 244 -14 211 q 50 302 24 277 q 110 339 75 328 q 182 345 144 351 q 221 324 203 342 q 240 284 239 306 l 240 285 m 200 310 q 146 300 178 321 q 83 228 115 278 q 46 137 60 191 q 46 54 33 83 q 106 68 61 23 q 146 117 125 87 q 192 189 170 151 q 223 255 201 213 q 200 310 223 298 z "},"â":{"ha":389,"x_min":-30,"x_max":433,"o":"m 262 536 q 283 506 277 530 q 293 415 290 481 q 281 408 293 410 q 259 410 270 406 q 248 422 248 414 q 249 470 248 439 q 249 509 249 501 q 236 496 250 514 q 203 453 222 478 q 178 422 185 429 q 138 414 163 409 q 125 427 120 417 l 126 429 q 213 522 182 499 q 262 536 244 545 m 240 285 q 246 296 241 288 q 253 308 251 304 q 261 319 256 312 q 272 328 267 326 q 286 334 278 331 q 306 337 294 337 q 330 334 317 336 q 315 243 369 326 q 248 93 258 156 q 248 51 243 64 q 263 41 252 38 q 287 54 274 43 q 315 81 300 64 q 410 229 356 128 q 419 244 416 242 q 428 243 422 245 q 432 235 433 239 q 424 216 431 231 q 414 198 422 214 q 402 177 405 182 q 392 159 400 173 q 381 139 385 144 q 370 121 378 134 q 358 102 363 109 q 347 85 354 96 q 334 69 340 75 q 322 55 329 62 q 309 41 315 47 q 229 11 269 4 q 178 66 189 18 q 175 121 172 94 q 49 9 110 11 q 6 26 24 9 q -19 69 -12 43 q -28 123 -26 95 q -23 174 -30 152 q 5 244 -14 211 q 50 302 24 277 q 110 339 75 328 q 182 345 144 351 q 221 324 203 342 q 240 284 239 306 l 240 285 m 200 310 q 146 300 178 321 q 83 228 115 278 q 46 137 60 191 q 46 54 33 83 q 106 68 61 23 q 146 117 125 87 q 192 189 170 151 q 223 255 201 213 q 200 310 223 298 z "},"ã":{"ha":389,"x_min":-30,"x_max":433,"o":"m 86 411 q 104 462 84 437 q 153 487 125 488 q 195 474 167 486 q 237 461 223 462 q 256 461 249 460 q 272 468 262 462 q 290 486 282 473 q 284 440 297 466 q 239 414 272 414 q 194 426 222 414 q 149 439 165 439 q 86 411 116 439 m 240 285 q 246 296 241 288 q 253 308 251 304 q 261 319 256 312 q 272 328 267 326 q 286 334 278 331 q 306 337 294 337 q 330 334 317 336 q 315 243 369 326 q 248 93 258 156 q 248 51 243 64 q 263 41 252 38 q 287 54 274 43 q 315 81 300 64 q 410 229 356 128 q 419 244 416 242 q 428 243 422 245 q 432 235 433 239 q 424 216 431 231 q 414 198 422 214 q 402 177 405 182 q 392 159 400 173 q 381 139 385 144 q 370 121 378 134 q 358 102 363 109 q 347 85 354 96 q 334 69 340 75 q 322 55 329 62 q 309 41 315 47 q 229 11 269 4 q 178 66 189 18 q 175 121 172 94 q 49 9 110 11 q 6 26 24 9 q -19 69 -12 43 q -28 123 -26 95 q -23 174 -30 152 q 5 244 -14 211 q 50 302 24 277 q 110 339 75 328 q 182 345 144 351 q 221 324 203 342 q 240 284 239 306 l 240 285 m 200 310 q 146 300 178 321 q 83 228 115 278 q 46 137 60 191 q 46 54 33 83 q 106 68 61 23 q 146 117 125 87 q 192 189 170 151 q 223 255 201 213 q 200 310 223 298 z "},"ä":{"ha":389,"x_min":-30,"x_max":433,"o":"m 181 416 q 174 410 181 416 q 151 404 168 404 q 122 416 134 404 q 109 446 109 429 q 122 476 109 464 q 151 488 134 488 q 181 476 168 488 q 193 446 193 464 q 181 416 193 429 m 291 416 q 284 410 291 416 q 261 404 278 404 q 232 416 244 404 q 219 446 219 429 q 231 476 219 464 q 260 488 243 488 q 291 476 278 488 q 303 446 303 463 q 291 416 303 429 m 240 285 q 246 296 241 288 q 253 308 251 304 q 261 319 256 312 q 272 328 267 326 q 286 334 278 331 q 306 337 294 337 q 330 334 317 336 q 315 243 369 326 q 248 93 258 156 q 248 51 243 64 q 263 41 252 38 q 287 54 274 43 q 315 81 300 64 q 410 229 356 128 q 419 244 416 242 q 428 243 422 245 q 432 235 433 239 q 424 216 431 231 q 414 198 422 214 q 402 177 405 182 q 392 159 400 173 q 381 139 385 144 q 370 121 378 134 q 358 102 363 109 q 347 85 354 96 q 334 69 340 75 q 322 55 329 62 q 309 41 315 47 q 229 11 269 4 q 178 66 189 18 q 175 121 172 94 q 49 9 110 11 q 6 26 24 9 q -19 69 -12 43 q -28 123 -26 95 q -23 174 -30 152 q 5 244 -14 211 q 50 302 24 277 q 110 339 75 328 q 182 345 144 351 q 221 324 203 342 q 240 284 239 306 l 240 285 m 200 310 q 146 300 178 321 q 83 228 115 278 q 46 137 60 191 q 46 54 33 83 q 106 68 61 23 q 146 117 125 87 q 192 189 170 151 q 223 255 201 213 q 200 310 223 298 z "},"å":{"ha":389,"x_min":-30,"x_max":433,"o":"m 272 419 q 264 411 272 419 q 233 403 256 403 q 195 419 211 403 q 179 457 179 435 q 195 495 179 479 q 233 511 210 511 q 271 496 255 511 q 288 458 288 480 q 272 419 288 435 m 213 438 q 218 434 213 438 q 233 429 222 429 q 253 438 245 429 q 262 458 262 446 q 253 478 262 469 q 233 486 245 486 q 213 478 222 486 q 205 458 205 469 q 213 438 205 446 m 240 285 q 246 296 241 288 q 253 308 251 304 q 261 319 256 312 q 272 328 267 326 q 286 334 278 331 q 306 337 294 337 q 330 334 317 336 q 315 243 369 326 q 248 93 258 156 q 248 51 243 64 q 263 41 252 38 q 287 54 274 43 q 315 81 300 64 q 410 229 356 128 q 419 244 416 242 q 428 243 422 245 q 432 235 433 239 q 424 216 431 231 q 414 198 422 214 q 402 177 405 182 q 392 159 400 173 q 381 139 385 144 q 370 121 378 134 q 358 102 363 109 q 347 85 354 96 q 334 69 340 75 q 322 55 329 62 q 309 41 315 47 q 229 11 269 4 q 178 66 189 18 q 175 121 172 94 q 49 9 110 11 q 6 26 24 9 q -19 69 -12 43 q -28 123 -26 95 q -23 174 -30 152 q 5 244 -14 211 q 50 302 24 277 q 110 339 75 328 q 182 345 144 351 q 221 324 203 342 q 240 284 239 306 l 240 285 m 200 310 q 146 300 178 321 q 83 228 115 278 q 46 137 60 191 q 46 54 33 83 q 106 68 61 23 q 146 117 125 87 q 192 189 170 151 q 223 255 201 213 q 200 310 223 298 z "},"æ":{"ha":454,"x_min":-30,"x_max":498,"o":"m 395 300 q 361 309 388 321 q 291 231 324 294 q 275 196 283 216 q 318 196 291 185 q 366 227 345 206 q 393 267 385 247 q 395 300 400 288 m 200 310 q 146 300 178 321 q 83 228 115 278 q 46 137 60 191 q 46 54 33 83 q 106 68 61 23 q 146 117 125 87 q 189 184 172 153 q 222 264 199 227 q 200 310 219 300 m 269 177 q 256 80 253 129 q 288 26 258 32 q 333 37 309 22 q 379 80 357 52 q 416 130 402 109 q 446 176 430 151 q 450 184 449 182 q 464 208 457 196 q 473 226 470 220 q 480 237 477 232 q 485 243 483 242 q 490 244 488 245 q 496 233 498 241 q 465 176 493 223 q 451 151 464 174 q 432 119 438 129 q 410 86 425 109 q 383 53 394 64 q 353 27 372 41 q 318 7 335 12 q 281 2 302 2 q 238 12 260 3 q 181 131 176 40 q 49 9 114 12 q 6 26 24 9 q -19 69 -12 43 q -28 123 -26 95 q -23 174 -30 152 q 5 244 -14 211 q 50 302 24 277 q 110 339 75 328 q 182 345 144 351 q 220 325 203 342 q 239 287 237 308 q 320 342 272 327 q 381 342 351 352 q 419 312 412 332 q 414 260 427 290 q 374 207 401 229 q 269 177 311 157 z "},"ç":{"ha":273,"x_min":-11,"x_max":323,"o":"m 212 310 q 163 298 193 322 q 104 233 133 273 q 72 163 83 203 q 66 85 60 123 q 103 33 73 47 q 145 36 119 26 q 192 72 170 46 q 252 155 220 105 q 296 232 283 205 q 314 244 304 248 q 307 214 323 241 q 208 61 247 104 q 131 5 169 18 q 135 -2 131 -1 q 146 -1 138 -3 q 165 -5 154 0 q 188 -36 184 -12 q 176 -76 191 -60 q 136 -88 162 -90 q 100 -71 110 -86 q 97 -54 94 -62 q 106 -44 100 -46 q 117 -45 113 -43 q 135 -55 122 -54 q 158 -48 149 -56 q 164 -28 168 -41 q 151 -17 161 -16 q 133 -22 141 -18 q 117 -18 124 -26 q 111 1 111 -11 q 54 11 83 -2 q 6 56 23 24 q -11 120 -11 87 q -4 182 -10 153 q 74 302 16 255 q 186 347 131 350 q 235 316 214 345 q 241 243 258 286 q 221 219 235 228 q 195 214 208 211 q 177 230 181 217 q 186 254 174 243 q 205 274 197 264 q 217 295 213 284 q 212 310 220 305 z "},"è":{"ha":259,"x_min":-20,"x_max":288,"o":"m 201 300 q 167 309 193 321 q 96 231 130 294 q 81 196 89 217 q 124 195 97 185 q 171 227 151 205 q 198 267 191 247 q 201 300 205 288 m 31 476 q 26 495 22 483 q 41 512 30 507 q 65 510 52 517 q 143 444 91 493 q 187 387 195 395 q 173 383 180 383 q 151 390 165 383 q 124 405 137 397 q 96 425 112 413 q 70 446 81 437 q 46 464 58 454 q 31 476 35 473 m 75 177 q 61 79 58 128 q 93 26 63 30 q 241 160 161 18 q 250 175 243 164 q 259 191 256 185 q 267 203 262 196 q 275 213 271 210 q 281 215 278 216 q 287 212 286 214 q 286 203 288 210 q 277 183 283 195 q 256 147 270 171 q 239 119 245 128 q 218 88 233 109 q 191 55 203 66 q 161 28 180 43 q 126 8 143 14 q 87 3 109 3 q 43 12 66 3 q -8 74 5 29 q -6 180 -20 118 q 42 283 7 239 q 126 342 77 327 q 187 342 157 352 q 224 312 217 332 q 219 260 232 290 q 179 207 207 229 q 75 177 117 157 z "},"é":{"ha":259,"x_min":-20,"x_max":288,"o":"m 201 300 q 167 309 193 321 q 96 231 130 294 q 81 196 89 217 q 124 195 97 185 q 171 227 151 205 q 198 267 191 247 q 201 300 205 288 m 214 476 q 198 464 210 473 q 175 446 186 454 q 148 425 163 437 q 120 405 132 413 q 93 390 107 397 q 72 383 79 383 q 57 387 64 383 q 101 444 50 395 q 179 510 153 493 q 203 512 191 518 q 218 495 216 506 q 214 476 221 484 m 75 177 q 61 79 58 128 q 93 26 63 30 q 241 160 161 18 q 250 175 243 164 q 259 191 256 185 q 267 203 262 196 q 275 213 271 210 q 281 215 278 216 q 287 212 286 214 q 286 203 288 210 q 277 183 283 195 q 256 147 270 171 q 239 119 245 128 q 218 88 233 109 q 191 55 203 66 q 161 28 180 43 q 126 8 143 14 q 87 3 109 3 q 43 12 66 3 q -8 74 5 29 q -6 180 -20 118 q 42 283 7 239 q 126 342 77 327 q 187 342 157 352 q 224 312 217 332 q 219 260 232 290 q 179 207 207 229 q 75 177 117 157 z "},"ê":{"ha":259,"x_min":-20,"x_max":288,"o":"m 201 300 q 167 309 193 321 q 96 231 130 294 q 81 196 89 217 q 124 195 97 185 q 171 227 151 205 q 198 267 191 247 q 201 300 205 288 m 221 522 q 242 492 235 516 q 252 401 249 467 q 240 394 252 396 q 217 395 229 391 q 205 408 205 399 q 207 456 206 425 q 207 494 207 487 q 194 482 208 500 q 162 439 180 464 q 136 408 144 414 q 97 399 121 395 q 83 413 79 403 l 85 415 q 172 508 140 485 q 221 522 203 530 m 75 177 q 61 79 58 128 q 93 26 63 30 q 241 160 161 18 q 250 175 243 164 q 259 191 256 185 q 267 203 262 196 q 275 213 271 210 q 281 215 278 216 q 287 212 286 214 q 286 203 288 210 q 277 183 283 195 q 256 147 270 171 q 239 119 245 128 q 218 88 233 109 q 191 55 203 66 q 161 28 180 43 q 126 8 143 14 q 87 3 109 3 q 43 12 66 3 q -8 74 5 29 q -6 180 -20 118 q 42 283 7 239 q 126 342 77 327 q 187 342 157 352 q 224 312 217 332 q 219 260 232 290 q 179 207 207 229 q 75 177 117 157 z "},"ë":{"ha":259,"x_min":-20,"x_max":288,"o":"m 201 300 q 167 309 193 321 q 96 231 130 294 q 81 196 89 217 q 124 195 97 185 q 171 227 151 205 q 198 267 191 247 q 201 300 205 288 m 138 404 q 132 398 138 404 q 109 392 126 392 q 79 404 91 392 q 66 433 66 416 q 79 463 66 451 q 108 475 91 475 q 138 463 125 475 q 151 434 151 451 q 138 404 151 416 m 218 392 q 188 404 201 392 q 176 433 176 416 q 188 463 176 450 q 218 475 201 475 q 248 463 235 475 q 260 434 260 451 q 248 404 260 416 q 218 392 235 392 m 75 177 q 61 79 58 128 q 93 26 63 30 q 241 160 161 18 q 250 175 243 164 q 259 191 256 185 q 267 203 262 196 q 275 213 271 210 q 281 215 278 216 q 287 212 286 214 q 286 203 288 210 q 277 183 283 195 q 256 147 270 171 q 239 119 245 128 q 218 88 233 109 q 191 55 203 66 q 161 28 180 43 q 126 8 143 14 q 87 3 109 3 q 43 12 66 3 q -8 74 5 29 q -6 180 -20 118 q 42 283 7 239 q 126 342 77 327 q 187 342 157 352 q 224 312 217 332 q 219 260 232 290 q 179 207 207 229 q 75 177 117 157 z "},"ì":{"ha":180,"x_min":-29,"x_max":225,"o":"m 3 476 q -2 495 -6 483 q 13 512 2 507 q 37 510 24 517 q 115 444 63 493 q 160 387 168 395 q 145 383 153 383 q 123 390 138 383 q 97 405 109 397 q 69 425 85 413 q 42 446 53 437 q 19 464 31 454 q 3 476 7 473 m 43 275 q 59 302 52 292 q 84 321 66 313 q 125 328 101 330 q 139 322 134 326 q 143 309 144 317 q 141 294 142 301 q 134 276 140 287 q 126 259 129 264 q 117 243 123 253 q 41 83 63 146 q 47 35 26 39 q 97 65 68 31 q 193 214 128 100 q 199 224 196 218 q 203 232 202 229 q 207 237 205 234 q 210 241 209 241 q 212 244 210 242 q 216 245 214 245 q 220 244 217 244 q 224 236 225 241 q 215 216 223 231 q 97 35 136 70 q 21 12 57 0 q -27 73 -15 24 q -28 90 -28 83 q -25 112 -29 98 q -19 136 -22 126 q -10 161 -16 146 q 1 187 -3 177 q 13 213 5 197 q 24 236 20 228 q 35 257 28 245 q 43 275 41 270 z "},"í":{"ha":180,"x_min":-29,"x_max":225,"o":"m 211 476 q 195 464 207 473 q 172 446 183 454 q 145 425 161 437 q 117 405 130 413 q 91 390 104 397 q 69 383 77 383 q 54 387 61 383 q 99 444 47 395 q 176 510 151 493 q 200 512 188 518 q 216 495 213 506 q 211 476 218 484 m 43 275 q 59 302 52 292 q 84 321 66 313 q 125 328 101 330 q 139 322 134 326 q 143 309 144 317 q 141 294 142 301 q 134 276 140 287 q 126 259 129 264 q 117 243 123 253 q 41 83 63 146 q 47 35 26 39 q 97 65 68 31 q 193 214 128 100 q 199 224 196 218 q 203 232 202 229 q 207 237 205 234 q 210 241 209 241 q 212 244 210 242 q 216 245 214 245 q 220 244 217 244 q 224 236 225 241 q 215 216 223 231 q 97 35 136 70 q 21 12 57 0 q -27 73 -15 24 q -28 90 -28 83 q -25 112 -29 98 q -19 136 -22 126 q -10 161 -16 146 q 1 187 -3 177 q 13 213 5 197 q 24 236 20 228 q 35 257 28 245 q 43 275 41 270 z "},"î":{"ha":180,"x_min":-29,"x_max":225,"o":"m 179 518 q 200 488 193 512 q 210 397 207 463 q 198 390 210 392 q 175 391 186 387 q 164 404 164 395 q 165 452 165 420 q 165 490 165 483 q 152 478 166 496 q 120 435 138 460 q 94 404 102 410 q 55 395 79 391 q 41 409 37 399 l 43 411 q 130 504 98 481 q 179 518 161 526 m 43 275 q 59 302 52 292 q 84 321 66 313 q 125 328 101 330 q 139 322 134 326 q 143 309 144 317 q 141 294 142 301 q 134 276 140 287 q 126 259 129 264 q 117 243 123 253 q 41 83 63 146 q 47 35 26 39 q 97 65 68 31 q 193 214 128 100 q 199 224 196 218 q 203 232 202 229 q 207 237 205 234 q 210 241 209 241 q 212 244 210 242 q 216 245 214 245 q 220 244 217 244 q 224 236 225 241 q 215 216 223 231 q 97 35 136 70 q 21 12 57 0 q -27 73 -15 24 q -28 90 -28 83 q -25 112 -29 98 q -19 136 -22 126 q -10 161 -16 146 q 1 187 -3 177 q 13 213 5 197 q 24 236 20 228 q 35 257 28 245 q 43 275 41 270 z "},"ï":{"ha":180,"x_min":-29,"x_max":225,"o":"m 96 404 q 90 398 96 404 q 66 392 84 392 q 37 404 49 392 q 24 433 24 416 q 37 463 24 450 q 66 475 49 475 q 96 463 84 475 q 109 434 109 451 q 96 404 109 416 m 206 404 q 200 398 206 404 q 176 392 194 392 q 146 404 159 392 q 134 433 134 416 q 146 463 134 450 q 176 475 159 475 q 206 463 194 475 q 218 434 218 451 q 206 404 218 416 m 43 275 q 59 302 52 292 q 84 321 66 313 q 125 328 101 330 q 139 322 134 326 q 143 309 144 317 q 141 294 142 301 q 134 276 140 287 q 126 259 129 264 q 117 243 123 253 q 41 83 63 146 q 47 35 26 39 q 97 65 68 31 q 193 214 128 100 q 199 224 196 218 q 203 232 202 229 q 207 237 205 234 q 210 241 209 241 q 212 244 210 242 q 216 245 214 245 q 220 244 217 244 q 224 236 225 241 q 215 216 223 231 q 97 35 136 70 q 21 12 57 0 q -27 73 -15 24 q -28 90 -28 83 q -25 112 -29 98 q -19 136 -22 126 q -10 161 -16 146 q 1 187 -3 177 q 13 213 5 197 q 24 236 20 228 q 35 257 28 245 q 43 275 41 270 z "},"ð":{"ha":387,"x_min":-30,"x_max":526,"o":"m 504 431 q 373 429 486 432 q 302 257 337 353 q 248 84 267 161 q 259 31 235 29 q 314 74 281 32 q 406 222 353 124 q 408 227 406 224 q 424 246 418 245 q 428 245 426 246 q 432 238 433 244 q 422 216 431 233 q 396 168 415 203 q 367 116 376 132 q 341 77 358 100 q 307 35 324 53 q 229 11 268 -2 q 179 73 189 23 q 183 134 175 93 q 49 8 115 11 q 6 25 24 7 q -19 68 -12 43 q -28 122 -26 94 q -23 173 -30 151 q 5 243 -14 210 q 50 302 24 277 q 110 339 75 327 q 182 345 144 351 q 213 331 198 342 q 234 304 227 319 q 285 427 257 366 q 139 425 180 425 q 124 434 127 425 q 125 453 121 444 q 136 461 130 462 q 302 464 149 460 q 343 545 317 496 q 372 576 355 568 q 421 576 389 585 q 436 567 432 573 q 436 550 440 562 q 428 531 432 538 q 414 507 425 524 q 391 466 406 494 q 501 467 479 468 q 520 456 515 465 q 520 439 526 447 q 504 431 515 431 m 200 309 q 146 299 178 321 q 83 227 115 277 q 50 142 60 191 q 52 60 39 94 q 121 82 69 22 q 144 113 132 95 q 200 201 174 153 q 222 269 209 231 q 200 309 217 300 z "},"ñ":{"ha":431,"x_min":0,"x_max":475,"o":"m 143 387 q 161 438 141 413 q 209 463 181 464 q 252 450 223 463 q 294 437 280 438 q 313 437 306 437 q 329 444 319 438 q 347 462 339 450 q 341 416 354 442 q 296 390 329 390 q 251 403 279 390 q 206 416 222 416 q 143 387 174 416 m 46 236 q 32 215 36 218 q 20 217 28 212 q 33 250 16 220 q 36 256 35 254 q 46 271 43 267 q 58 287 49 276 q 77 303 66 298 q 99 311 87 309 q 157 295 142 317 q 165 233 173 273 q 321 330 263 347 q 378 279 371 315 q 351 196 386 243 q 297 101 313 143 q 298 41 282 59 q 327 43 309 32 q 365 84 344 55 q 405 144 386 113 q 446 215 424 175 q 450 223 448 218 q 453 230 452 228 q 456 236 454 233 q 459 240 458 239 q 463 243 460 241 q 466 244 465 245 q 469 244 467 243 q 474 234 475 241 q 463 210 473 227 q 441 169 460 205 q 414 119 422 133 q 388 79 405 105 q 355 38 371 53 q 323 14 339 22 q 270 3 295 1 q 228 26 245 5 q 210 81 210 47 q 231 152 210 111 q 273 231 252 194 q 295 283 294 267 q 259 292 297 317 q 168 201 217 264 q 128 138 141 166 q 121 125 125 131 q 97 75 106 96 q 66 15 76 27 q 29 -1 50 -5 q 7 9 15 2 q 1 34 0 16 q 14 83 1 53 q 39 139 18 94 q 70 210 60 185 q 77 226 72 216 q 85 244 82 237 q 92 261 89 252 q 93 274 94 269 q 85 279 92 279 q 46 236 72 280 z "},"ò":{"ha":328,"x_min":-27,"x_max":379,"o":"m 72 476 q 71 501 60 485 q 100 513 83 519 q 107 510 104 512 q 185 444 133 493 q 229 387 237 395 q 215 383 222 383 q 193 390 207 383 q 166 405 178 397 q 138 425 154 413 q 111 446 122 437 q 88 464 100 454 q 72 476 76 473 m 184 176 q 209 171 199 180 q 214 146 219 163 q 206 125 212 142 q 237 209 232 169 q 220 270 241 248 q 160 275 195 289 q 98 222 126 260 q 64 151 74 189 q 58 85 54 113 q 76 45 62 56 q 107 39 89 34 q 143 55 126 43 q 176 84 159 66 q 159 109 163 92 q 157 138 155 125 q 184 176 161 171 m 158 330 q 239 294 205 330 q 261 207 267 262 q 219 99 256 151 q 265 118 239 96 q 311 168 292 140 q 329 194 321 182 q 341 214 336 206 q 349 227 345 221 q 353 236 352 233 q 356 241 355 239 q 359 244 357 243 q 363 244 360 244 q 356 205 378 244 q 332 165 355 203 q 274 101 311 132 q 199 75 237 70 q 151 30 175 47 q 104 7 126 13 q 63 1 82 1 q 27 9 44 2 q -14 62 -1 22 q -17 157 -27 102 q 29 256 -7 212 q 90 310 56 289 q 158 330 123 330 z "},"ó":{"ha":328,"x_min":-27,"x_max":379,"o":"m 258 476 q 242 464 254 473 q 219 446 231 454 q 193 425 208 437 q 164 405 177 413 q 138 390 152 397 q 116 383 124 383 q 102 387 109 383 q 146 444 94 395 q 224 510 198 493 q 248 512 235 518 q 263 495 260 506 q 258 476 266 484 m 184 176 q 209 171 199 180 q 214 146 219 163 q 206 125 212 142 q 237 209 232 169 q 220 270 241 248 q 160 275 195 289 q 98 222 126 260 q 64 151 74 189 q 58 85 54 113 q 76 45 62 56 q 107 39 89 34 q 143 55 126 43 q 176 84 159 66 q 159 109 163 92 q 157 138 155 125 q 184 176 161 171 m 158 330 q 239 294 205 330 q 261 207 267 262 q 219 99 256 151 q 265 118 239 96 q 311 168 292 140 q 329 194 321 182 q 341 214 336 206 q 349 227 345 221 q 353 236 352 233 q 356 241 355 239 q 359 244 357 243 q 363 244 360 244 q 356 205 378 244 q 332 165 355 203 q 274 101 311 132 q 199 75 237 70 q 151 30 175 47 q 104 7 126 13 q 63 1 82 1 q 27 9 44 2 q -14 62 -1 22 q -17 157 -27 102 q 29 256 -7 212 q 90 310 56 289 q 158 330 123 330 z "},"ô":{"ha":328,"x_min":-27,"x_max":379,"o":"m 235 504 q 256 473 249 498 q 265 383 262 449 q 254 375 265 378 q 231 377 242 373 q 220 390 220 381 q 221 437 220 406 q 221 476 221 469 q 208 464 222 481 q 176 421 194 446 q 150 390 157 396 q 111 381 135 376 q 97 395 92 385 q 98 397 98 397 q 185 490 154 467 q 235 504 216 512 m 184 176 q 209 171 199 180 q 214 146 219 163 q 206 125 212 142 q 237 209 232 169 q 220 270 241 248 q 160 275 195 289 q 98 222 126 260 q 64 151 74 189 q 58 85 54 113 q 76 45 62 56 q 107 39 89 34 q 143 55 126 43 q 176 84 159 66 q 159 109 163 92 q 157 138 155 125 q 184 176 161 171 m 158 330 q 239 294 205 330 q 261 207 267 262 q 219 99 256 151 q 265 118 239 96 q 311 168 292 140 q 329 194 321 182 q 341 214 336 206 q 349 227 345 221 q 353 236 352 233 q 356 241 355 239 q 359 244 357 243 q 363 244 360 244 q 356 205 378 244 q 332 165 355 203 q 274 101 311 132 q 199 75 237 70 q 151 30 175 47 q 104 7 126 13 q 63 1 82 1 q 27 9 44 2 q -14 62 -1 22 q -17 157 -27 102 q 29 256 -7 212 q 90 310 56 289 q 158 330 123 330 z "},"õ":{"ha":328,"x_min":-27,"x_max":379,"o":"m 72 382 q 90 433 70 408 q 138 458 111 458 q 181 445 153 457 q 224 432 210 433 q 242 432 235 431 q 258 438 248 433 q 276 456 268 444 q 271 411 283 437 q 225 385 258 385 q 180 397 209 385 q 135 410 151 410 q 72 382 102 410 m 184 176 q 209 171 199 180 q 214 146 219 163 q 206 125 212 142 q 237 209 232 169 q 220 270 241 248 q 160 275 195 289 q 98 222 126 260 q 64 151 74 189 q 58 85 54 113 q 76 45 62 56 q 107 39 89 34 q 143 55 126 43 q 176 84 159 66 q 159 109 163 92 q 157 138 155 125 q 184 176 161 171 m 158 330 q 239 294 205 330 q 261 207 267 262 q 219 99 256 151 q 265 118 239 96 q 311 168 292 140 q 329 194 321 182 q 341 214 336 206 q 349 227 345 221 q 353 236 352 233 q 356 241 355 239 q 359 244 357 243 q 363 244 360 244 q 356 205 378 244 q 332 165 355 203 q 274 101 311 132 q 199 75 237 70 q 151 30 175 47 q 104 7 126 13 q 63 1 82 1 q 27 9 44 2 q -14 62 -1 22 q -17 157 -27 102 q 29 256 -7 212 q 90 310 56 289 q 158 330 123 330 z "},"ö":{"ha":328,"x_min":-27,"x_max":379,"o":"m 145 386 q 139 380 145 386 q 115 374 133 374 q 85 386 98 374 q 73 416 73 399 q 85 446 73 433 q 115 458 98 458 q 145 445 132 458 q 157 416 157 433 q 145 386 157 399 m 255 386 q 249 380 255 386 q 225 374 243 374 q 195 386 208 374 q 183 416 183 399 q 195 446 183 433 q 224 458 208 458 q 255 445 242 458 q 267 416 267 433 q 255 386 267 399 m 184 176 q 209 171 199 180 q 214 146 219 163 q 206 125 212 142 q 237 209 232 169 q 220 270 241 248 q 160 275 195 289 q 98 222 126 260 q 64 151 74 189 q 58 85 54 113 q 76 45 62 56 q 107 39 89 34 q 143 55 126 43 q 176 84 159 66 q 159 109 163 92 q 157 138 155 125 q 184 176 161 171 m 158 330 q 239 294 205 330 q 261 207 267 262 q 219 99 256 151 q 265 118 239 96 q 311 168 292 140 q 329 194 321 182 q 341 214 336 206 q 349 227 345 221 q 353 236 352 233 q 356 241 355 239 q 359 244 357 243 q 363 244 360 244 q 356 205 378 244 q 332 165 355 203 q 274 101 311 132 q 199 75 237 70 q 151 30 175 47 q 104 7 126 13 q 63 1 82 1 q 27 9 44 2 q -14 62 -1 22 q -17 157 -27 102 q 29 256 -7 212 q 90 310 56 289 q 158 330 123 330 z "},"÷":{"ha":595,"x_min":151,"x_max":526,"o":"m 168 252 q 153 267 154 252 q 168 290 152 283 q 179 292 173 292 q 401 288 259 290 q 448 287 420 288 q 515 283 504 286 q 526 264 526 280 q 504 247 526 250 q 408 245 481 244 q 168 252 208 249 m 355 108 q 349 102 355 108 q 326 96 343 96 q 296 108 308 96 q 283 138 283 121 q 296 168 283 155 q 325 180 308 180 q 355 167 342 180 q 368 138 368 155 q 355 108 368 121 m 371 345 q 341 357 353 345 q 329 386 329 369 q 341 416 329 404 q 371 429 354 429 q 400 416 388 429 q 413 387 413 404 q 400 357 413 369 q 371 345 388 345 z "},"ø":{"ha":328,"x_min":-27,"x_max":379,"o":"m 54 -87 q 35 -95 50 -97 q 23 -81 20 -92 q 29 -65 25 -76 q 41 -34 33 -54 q 54 1 48 -14 q 27 9 43 3 q -14 62 -1 22 q -17 157 -27 102 q 29 256 -7 212 q 90 310 56 289 q 158 330 123 330 q 174 330 169 330 q 185 361 180 344 q 194 388 191 379 q 201 404 197 396 q 210 414 205 412 q 222 414 214 416 q 238 392 239 408 q 219 336 237 375 q 211 317 216 330 q 239 294 224 309 q 261 207 267 262 q 219 99 256 151 q 265 118 239 96 q 311 168 292 140 q 329 194 321 182 q 341 214 336 206 q 349 227 345 221 q 353 236 352 233 q 356 241 355 239 q 359 244 357 243 q 363 244 360 244 q 356 205 378 244 q 332 165 355 203 q 274 101 311 132 q 199 75 237 70 q 89 3 144 13 q 74 -38 81 -17 q 61 -71 66 -58 q 54 -87 56 -83 m 184 176 q 209 171 199 180 q 214 146 219 163 q 206 125 212 142 q 237 209 232 169 q 220 270 241 248 q 196 280 211 278 q 102 38 172 220 q 176 84 136 41 q 159 109 163 92 q 157 138 155 125 q 184 176 161 171 m 72 50 q 109 153 79 68 q 152 271 140 237 q 98 222 123 255 q 65 155 75 191 q 58 92 55 119 q 72 50 60 64 z "},"ù":{"ha":389,"x_min":-31,"x_max":446,"o":"m 100 476 q 98 501 87 485 q 128 513 111 519 q 135 510 132 512 q 213 444 161 493 q 257 387 264 395 q 242 383 250 383 q 220 390 235 383 q 194 405 206 397 q 166 425 182 413 q 139 446 150 437 q 116 464 127 454 q 100 476 104 473 m 260 298 q 334 322 291 351 q 330 253 363 302 q 276 149 298 203 q 250 72 254 95 q 265 22 242 19 q 317 67 286 26 q 419 227 354 114 q 439 244 433 250 q 431 210 446 238 q 313 28 356 76 q 259 -1 290 2 q 205 15 229 -4 q 174 65 181 33 q 173 101 171 80 q 85 4 117 20 q 8 0 43 -18 q -29 68 -26 18 q -14 145 -31 98 q 22 232 2 193 q 78 320 58 301 q 126 325 97 339 q 142 301 142 317 q 133 264 143 286 q 100 208 123 243 q 49 94 65 153 q 54 26 33 36 q 108 55 76 18 q 195 180 140 92 q 260 298 212 218 z "},"ú":{"ha":389,"x_min":-31,"x_max":446,"o":"m 334 476 q 318 464 330 473 q 295 446 306 454 q 268 425 283 437 q 239 405 252 413 q 213 390 227 397 q 191 383 199 383 q 176 387 183 383 q 221 444 169 395 q 298 510 273 493 q 332 505 315 522 q 337 480 345 492 l 334 476 m 260 298 q 334 322 291 351 q 330 253 363 302 q 276 149 298 203 q 250 72 254 95 q 265 22 242 19 q 317 67 286 26 q 419 227 354 114 q 439 244 433 250 q 431 210 446 238 q 313 28 356 76 q 259 -1 290 2 q 205 15 229 -4 q 174 65 181 33 q 173 101 171 80 q 85 4 117 20 q 8 0 43 -18 q -29 68 -26 18 q -14 145 -31 98 q 22 232 2 193 q 78 320 58 301 q 126 325 97 339 q 142 301 142 317 q 133 264 143 286 q 100 208 123 243 q 49 94 65 153 q 54 26 33 36 q 108 55 76 18 q 195 180 140 92 q 260 298 212 218 z "},"û":{"ha":389,"x_min":-31,"x_max":446,"o":"m 267 519 q 288 489 281 513 q 297 399 294 465 q 286 391 297 393 q 263 393 274 389 q 252 406 252 397 q 253 453 252 422 q 253 492 253 484 q 240 479 254 497 q 208 436 226 461 q 182 406 189 412 q 142 397 166 392 q 130 410 125 400 q 131 412 130 412 q 217 505 186 482 q 267 519 248 528 m 260 298 q 334 322 291 351 q 330 253 363 302 q 276 149 298 203 q 250 72 254 95 q 265 22 242 19 q 317 67 286 26 q 419 227 354 114 q 439 244 433 250 q 431 210 446 238 q 313 28 356 76 q 259 -1 290 2 q 205 15 229 -4 q 174 65 181 33 q 173 101 171 80 q 85 4 117 20 q 8 0 43 -18 q -29 68 -26 18 q -14 145 -31 98 q 22 232 2 193 q 78 320 58 301 q 126 325 97 339 q 142 301 142 317 q 133 264 143 286 q 100 208 123 243 q 49 94 65 153 q 54 26 33 36 q 108 55 76 18 q 195 180 140 92 q 260 298 212 218 z "},"ü":{"ha":389,"x_min":-31,"x_max":446,"o":"m 164 382 q 134 394 146 382 q 122 424 122 407 q 134 454 122 441 q 163 466 146 466 q 193 453 180 466 q 205 424 205 441 q 193 394 205 406 q 164 382 181 382 m 303 394 q 297 388 303 394 q 273 382 290 382 q 244 394 256 382 q 231 424 231 407 q 244 453 231 441 q 273 466 256 466 q 303 453 290 466 q 315 424 315 441 q 303 394 315 407 m 260 298 q 334 322 291 351 q 330 253 363 302 q 276 149 298 203 q 250 72 254 95 q 265 22 242 19 q 317 67 286 26 q 419 227 354 114 q 439 244 433 250 q 431 210 446 238 q 313 28 356 76 q 259 -1 290 2 q 205 15 229 -4 q 174 65 181 33 q 173 101 171 80 q 85 4 117 20 q 8 0 43 -18 q -29 68 -26 18 q -14 145 -31 98 q 22 232 2 193 q 78 320 58 301 q 126 325 97 339 q 142 301 142 317 q 133 264 143 286 q 100 208 123 243 q 49 94 65 153 q 54 26 33 36 q 108 55 76 18 q 195 180 140 92 q 260 298 212 218 z "},"ý":{"ha":362,"x_min":-336,"x_max":360,"o":"m 334 463 q 318 450 330 460 q 295 432 306 441 q 268 411 283 423 q 239 392 252 399 q 213 377 227 384 q 191 370 199 370 q 176 374 183 370 q 221 430 169 382 q 298 496 273 479 q 332 492 315 507 q 337 467 345 478 q 334 463 336 464 m 340 328 q 357 327 353 329 q 357 320 360 325 q 346 307 353 315 q 342 303 344 304 q 339 299 341 302 q 336 295 337 297 q 332 291 334 294 q 329 287 330 289 q 326 282 327 284 q 305 249 315 266 q 286 213 295 233 q 271 178 277 193 q 257 139 265 164 q 245 102 249 114 q 233 60 242 90 q 221 20 224 30 q 182 -100 201 -48 q 138 -206 163 -153 q 84 -297 113 -259 q 21 -365 56 -334 q -57 -410 -14 -395 q -152 -425 -101 -425 q -245 -402 -205 -425 q -311 -324 -285 -380 q -324 -200 -336 -272 q -313 -159 -321 -177 q -296 -132 -305 -142 q -278 -118 -288 -123 q -261 -114 -269 -113 q -249 -118 -254 -114 q -245 -165 -229 -136 q -273 -203 -251 -174 q -281 -323 -309 -251 q -153 -397 -251 -397 q -88 -383 -119 -397 q -33 -346 -57 -369 q 15 -288 -8 -323 q 56 -219 39 -253 q 91 -139 73 -185 q 120 -59 109 -94 q 145 20 132 -25 q 172 101 165 83 q 92 16 122 35 q 38 0 64 1 q -9 18 12 -1 q -31 71 -29 37 q 8 212 -33 125 q 55 295 33 266 q 98 319 77 323 q 130 307 123 315 q 128 271 137 298 q 86 188 119 243 q 42 85 53 132 q 52 28 32 38 q 120 73 72 20 q 211 195 169 127 q 340 328 271 319 z "}}}
